<svg xmlns="http://www.w3.org/2000/svg" xmlns:xlink="http://www.w3.org/1999/xlink" width="128" height="128" preserveAspectRatio="xMidYMid meet" viewBox="0 0 128 128" style="-ms-transform: rotate(360deg); -webkit-transform: rotate(360deg); transform: rotate(360deg);"><radialGradient id="IconifyId-174b6112cae-463056-4641" cx="67.07" cy="67.368" r="62.259" gradientUnits="userSpaceOnUse"><stop stop-color="#BDBDBD" offset=".175"/><stop stop-color="#E0E0E0" offset=".517"/><stop stop-color="#fff" offset=".853"/></radialGradient><path d="M52.43 53.33c-4.52-3.2-11.39-9.92-16.55-17.73c-4.15-6.27-8.4-15.12-5.08-21.62c1.39-2.72 3.28-3.29 4.62-3.29c1.44 0 2.98.64 4.66 1.95c.08-2.16.6-3.78 1.56-4.88c.9-1.03 2.16-1.57 3.67-1.57c.55 0 1.14.07 1.77.22c7.12 1.63 11.16 10.58 13.3 17.8c2.66 8.98 3.39 18.56 2.93 24.08l-.1 1.2l-1.19.17c-2.89.4-5.56 1.64-7.72 3.58l-.89.8l-.98-.71z" fill="url(#IconifyId-174b6112cae-463056-4641)"/><path d="M45.3 7.69c.43 0 .91.06 1.43.18C58.19 10.5 62.77 36.5 61.8 48.16c-3.16.44-6.13 1.82-8.51 3.95c-9.55-6.76-26.51-26.97-21.16-37.44c.88-1.71 2-2.47 3.28-2.47c1.86 0 4.08 1.59 6.39 4.15c-.71-5.11.1-8.66 3.5-8.66m0-3c-1.95 0-3.61.72-4.8 2.09c-.76.88-1.3 1.98-1.61 3.33c-1.19-.61-2.35-.91-3.48-.91c-1.44 0-4.13.53-5.95 4.1c-2.89 5.66-1.1 13.65 5.16 23.13c5.27 7.96 12.3 14.84 16.94 18.12l1.95 1.38l1.78-1.6c1.94-1.74 4.34-2.85 6.93-3.21l2.38-.33l.2-2.39c.47-5.66-.27-15.47-2.99-24.63c-3.23-10.9-8.21-17.41-14.4-18.83c-.74-.17-1.45-.25-2.11-.25z" fill="#BDBDBD"/><radialGradient id="IconifyId-174b6112cae-463056-4642" cx="68.242" cy="66.072" r="62.141" gradientUnits="userSpaceOnUse"><stop stop-color="#BDBDBD" offset=".175"/><stop stop-color="#E0E0E0" offset=".517"/><stop stop-color="#fff" offset=".853"/></radialGradient><path d="M39.24 65.31c-11.08 0-30.73-2.78-34.1-13.18c-.65-2.02-.49-3.72.47-5.04c.98-1.34 2.67-2.16 5.14-2.46c-1.65-1.78-2.43-3.45-2.36-5.08c.07-1.69 1.05-3.13 2.89-4.29c1.8-1.13 3.98-1.7 6.49-1.7c11.85 0 28.57 12.71 34.6 19.83l.78.92l-.73.96c-.87 1.14-1.56 2.42-2.06 3.8c-.49 1.35-.78 2.76-.85 4.19l-.06 1.2l-1.18.2c-2.53.42-5.65.65-9.03.65z" fill="url(#IconifyId-174b6112cae-463056-4642)"/><path d="M17.77 35.06c10.95 0 27.12 11.83 33.45 19.3c-.94 1.24-1.72 2.65-2.28 4.19c-.56 1.53-.86 3.08-.94 4.62c-2.4.41-5.43.64-8.77.64c-12.71 0-29.8-3.28-32.67-12.14c-1.33-4.12 1.64-5.68 6.64-5.68c.45 0 .91.01 1.39.04c-4.65-3.52-6.52-6.98-2.52-9.49c1.64-1.03 3.57-1.48 5.7-1.48m0-3c-2.8 0-5.25.65-7.29 1.92c-2.85 1.79-3.53 3.97-3.59 5.49c-.06 1.39.34 2.77 1.22 4.18c-1.64.53-2.87 1.38-3.72 2.54c-.87 1.2-1.69 3.27-.69 6.39C7.1 63.08 24.96 66.8 39.22 66.8c3.47 0 6.68-.23 9.27-.68l2.36-.4l.13-2.4c.07-1.28.33-2.54.77-3.76c.45-1.24 1.07-2.38 1.85-3.4l1.46-1.92l-1.56-1.84c-7.04-8.31-23.82-20.34-35.73-20.34z" fill="#BDBDBD"/><radialGradient id="IconifyId-174b6112cae-463056-4643" cx="63.86" cy="67.43" r="63.471" gradientUnits="userSpaceOnUse"><stop stop-color="#BDBDBD" offset=".175"/><stop stop-color="#E0E0E0" offset=".517"/><stop stop-color="#fff" offset=".853"/></radialGradient><path d="M72.77 52.45c-1.15-.87-2.43-1.57-3.8-2.06c-1.35-.49-2.76-.78-4.19-.86l-1.2-.06l-.2-1.18c-.93-5.46-1.04-15.08.83-24.24c1.5-7.37 4.75-16.63 11.7-18.87c.8-.26 1.57-.39 2.27-.39c1.35 0 2.52.49 3.41 1.42c.97 1.02 1.58 2.54 1.83 4.59c1.7-1.58 3.32-2.36 4.88-2.36c1.22 0 2.98.5 4.48 2.89c3.88 6.19.41 15.37-3.18 21.99c-4.46 8.23-10.73 15.52-14.95 19.1l-.92.78l-.96-.75z" fill="url(#IconifyId-174b6112cae-463056-4643)"/><path d="M78.17 6.28c3.08 0 4.09 3.39 3.84 8.35c2.18-2.89 4.35-4.71 6.28-4.71c1.17 0 2.26.67 3.21 2.19c6.24 9.97-8.9 31.58-17.83 39.15c-1.24-.94-2.65-1.72-4.19-2.28a15.77 15.77 0 0 0-4.63-.94c-1.97-11.54.32-37.82 11.51-41.43c.67-.23 1.27-.33 1.81-.33m0-3c-.86 0-1.78.16-2.73.47c-6.04 1.95-10.44 8.87-12.7 20c-1.91 9.35-1.79 19.19-.84 24.79l.4 2.36l2.39.13c1.29.07 2.55.33 3.76.77c1.23.45 2.38 1.07 3.41 1.85l1.92 1.45l1.83-1.55c4.33-3.67 10.74-11.13 15.3-19.53c5.42-9.99 6.5-18.12 3.13-23.5c-1.86-2.97-4.16-3.6-5.75-3.6c-1.3 0-2.6.41-3.92 1.23c-.39-1.21-.96-2.21-1.7-2.99c-1.18-1.23-2.73-1.88-4.5-1.88z" fill="#BDBDBD"/><radialGradient id="IconifyId-174b6112cae-463056-4644" cx="62.514" cy="66.247" r="62.183" gradientUnits="userSpaceOnUse"><stop stop-color="#BDBDBD" offset=".175"/><stop stop-color="#E0E0E0" offset=".517"/><stop stop-color="#fff" offset=".853"/></radialGradient><path d="M83.18 63.46c-1.23 0-2.39-.04-3.44-.13l-1.2-.1l-.17-1.19c-.4-2.88-1.64-5.55-3.58-7.72l-.79-.89l.69-.98c5.8-8.19 22.14-22.82 34.08-22.82c1.95 0 3.72.4 5.26 1.18c1.94.99 3.03 2.34 3.25 4.02c.21 1.61-.42 3.35-1.91 5.26c2.56.1 4.39.82 5.46 2.15c.98 1.23 1.24 2.85.79 4.84c-2.81 12.26-27.58 16.38-38.44 16.38z" fill="url(#IconifyId-174b6112cae-463056-4644)"/><path d="M108.77 31.14c1.66 0 3.2.32 4.58 1.02c4.21 2.15 2.65 5.76-1.68 9.67c1.12-.16 2.16-.24 3.1-.24c3.95 0 6.24 1.45 5.38 5.17c-2.41 10.48-24.33 15.2-36.98 15.2c-1.19 0-2.31-.04-3.31-.13c-.44-3.16-1.82-6.13-3.95-8.51c5.88-8.3 21.89-22.18 32.86-22.18m0-3c-12.46 0-29.35 15.03-35.31 23.45l-1.38 1.95l1.6 1.78c1.74 1.94 2.85 4.34 3.21 6.92l.33 2.38l2.39.2c1.09.09 2.28.14 3.56.14c11.71 0 36.86-4.28 39.91-17.53c.7-3.05-.2-5.01-1.08-6.11c-.94-1.19-2.31-1.99-4.09-2.4c.75-1.48 1.04-2.9.85-4.28c-.2-1.51-1.06-3.63-4.06-5.16c-1.74-.89-3.73-1.34-5.93-1.34z" fill="#BDBDBD"/><radialGradient id="IconifyId-174b6112cae-463056-4645" cx="66.901" cy="61.644" r="62.132" gradientUnits="userSpaceOnUse"><stop stop-color="#BDBDBD" offset=".175"/><stop stop-color="#E0E0E0" offset=".517"/><stop stop-color="#fff" offset=".853"/></radialGradient><path d="M49.83 123.28c-1.35 0-2.52-.49-3.41-1.42c-.97-1.02-1.58-2.54-1.83-4.58c-1.7 1.58-3.32 2.36-4.88 2.36c-1.22 0-2.98-.5-4.48-2.89c-3.88-6.19-.41-15.37 3.18-21.99c4.46-8.23 10.73-15.52 14.95-19.1l.92-.78l.96.72a14.59 14.59 0 0 0 7.99 2.93l1.2.07l.2 1.18c.93 5.46 1.04 15.08-.83 24.24c-1.5 7.37-4.75 16.63-11.7 18.88c-.81.24-1.57.38-2.27.38z" fill="url(#IconifyId-174b6112cae-463056-4645)"/><path d="M54.33 76.8c1.24.94 2.65 1.72 4.19 2.28c1.53.56 3.08.86 4.62.94c1.97 11.54-.32 37.82-11.51 41.43c-.67.22-1.27.32-1.81.32c-3.08 0-4.09-3.39-3.84-8.35c-2.18 2.89-4.35 4.71-6.28 4.71c-1.17 0-2.26-.67-3.21-2.19c-6.24-9.96 8.91-31.58 17.84-39.14m-.11-3.84l-1.83 1.55c-4.33 3.67-10.74 11.13-15.3 19.53c-5.42 9.99-6.5 18.12-3.13 23.5c1.86 2.97 4.16 3.6 5.75 3.6c1.3 0 2.6-.41 3.92-1.23c.39 1.21.96 2.2 1.7 2.99c1.17 1.23 2.73 1.88 4.49 1.88c.86 0 1.78-.16 2.73-.47c6.04-1.95 10.43-8.87 12.7-20c1.91-9.35 1.8-19.19.84-24.79l-.4-2.36l-2.39-.13c-1.29-.07-2.55-.33-3.76-.77c-1.23-.45-2.38-1.07-3.41-1.85l-1.91-1.45z" fill="#BDBDBD"/><radialGradient id="IconifyId-174b6112cae-463056-4646" cx="62.451" cy="63.027" r="62.468" gradientUnits="userSpaceOnUse"><stop stop-color="#C4C4C4" offset="0"/><stop stop-color="#CCCDCF" offset=".092"/><stop stop-color="#E0E0E2" offset=".362"/><stop stop-color="#F7F7F7" offset=".753"/><stop stop-color="#fff" offset="1"/></radialGradient><path d="M110.23 94.49c-11.85 0-28.57-12.71-34.6-19.83l-.78-.92l.72-.96c.88-1.16 1.57-2.43 2.07-3.8c.49-1.35.78-2.76.86-4.19l.06-1.2l1.18-.2c2.51-.43 5.63-.66 9.01-.66c11.08 0 30.73 2.78 34.1 13.18c.65 2.02.5 3.72-.47 5.04c-.98 1.34-2.67 2.16-5.14 2.46c1.65 1.78 2.43 3.45 2.36 5.08c-.07 1.69-1.05 3.13-2.89 4.28c-1.79 1.15-3.97 1.72-6.48 1.72z" fill="url(#IconifyId-174b6112cae-463056-4646)"/><path d="M88.76 64.24c12.71 0 29.81 3.28 32.67 12.15c1.34 4.12-1.64 5.69-6.64 5.69c-.45 0-.91-.01-1.39-.04c4.65 3.51 6.52 6.98 2.52 9.49c-1.63 1.02-3.56 1.47-5.7 1.47c-10.95 0-27.12-11.83-33.45-19.3c.94-1.24 1.72-2.65 2.28-4.19c.56-1.53.86-3.08.94-4.63c2.4-.41 5.43-.64 8.77-.64m0-3c-3.47 0-6.67.23-9.27.68l-2.36.4l-.13 2.4a13.111 13.111 0 0 1-2.62 7.17l-1.45 1.92l1.55 1.83C81.53 83.96 98.31 96 110.22 96c2.8 0 5.25-.65 7.29-1.93c2.85-1.78 3.52-3.97 3.59-5.49c.06-1.39-.34-2.77-1.22-4.18c1.64-.53 2.87-1.38 3.72-2.54c.87-1.2 1.69-3.27.68-6.39c-3.39-10.5-21.26-14.23-35.52-14.23z" fill="#BDBDBD"/><radialGradient id="IconifyId-174b6112cae-463056-4647" cx="68.177" cy="62.845" r="63.194" gradientUnits="userSpaceOnUse"><stop stop-color="#BDBDBD" offset=".175"/><stop stop-color="#E0E0E0" offset=".517"/><stop stop-color="#fff" offset=".853"/></radialGradient><path d="M19.22 98.42c-1.95 0-3.72-.4-5.26-1.18c-1.94-.99-3.03-2.34-3.25-4.02c-.21-1.61.42-3.35 1.91-5.26c-2.56-.1-4.4-.82-5.46-2.15c-.98-1.23-1.24-2.85-.79-4.84C9.19 68.72 33.96 64.6 44.82 64.6c1.24 0 2.39.04 3.44.13l1.2.1l.17 1.19c.4 2.88 1.64 5.55 3.58 7.72l.8.89l-.69.98c-5.81 8.18-22.15 22.81-34.1 22.81z" fill="url(#IconifyId-174b6112cae-463056-4647)"/><path d="M44.82 66.1c1.19 0 2.31.04 3.31.13c.44 3.16 1.82 6.13 3.95 8.51c-5.87 8.3-21.89 22.18-32.86 22.18c-1.66 0-3.2-.32-4.58-1.02c-4.2-2.15-2.65-5.76 1.69-9.67c-1.12.16-2.16.24-3.1.24c-3.95 0-6.24-1.45-5.39-5.17c2.41-10.48 24.33-15.2 36.98-15.2m0-3c-11.71 0-36.86 4.28-39.91 17.53c-.7 3.05.2 5.01 1.07 6.11c.94 1.19 2.31 1.99 4.09 2.4c-.75 1.48-1.04 2.9-.86 4.27c.2 1.51 1.06 3.63 4.05 5.16c1.75.9 3.75 1.35 5.94 1.35c12.46 0 29.35-15.03 35.31-23.45l1.38-1.95l-1.6-1.78a13.07 13.07 0 0 1-3.21-6.92l-.33-2.38l-2.39-.2c-1.06-.1-2.26-.14-3.54-.14z" fill="#BDBDBD"/><radialGradient id="IconifyId-174b6112cae-463056-4648" cx="63.673" cy="61.704" r="62.469" gradientUnits="userSpaceOnUse"><stop stop-color="#BDBDBD" offset=".175"/><stop stop-color="#E0E0E0" offset=".517"/><stop stop-color="#fff" offset=".853"/></radialGradient><path d="M82.7 121.86c-.55 0-1.14-.07-1.76-.21c-7.12-1.63-11.16-10.58-13.3-17.8c-2.66-8.98-3.39-18.56-2.93-24.08l.1-1.2L66 78.4c2.89-.4 5.56-1.64 7.72-3.58l.89-.8l.98.69c4.52 3.2 11.39 9.92 16.55 17.72c4.15 6.28 8.4 15.12 5.08 21.62c-1.39 2.72-3.28 3.29-4.62 3.29c-1.44 0-2.98-.64-4.66-1.95c-.08 2.16-.6 3.77-1.56 4.88c-.91 1.05-2.18 1.59-3.68 1.59z" fill="url(#IconifyId-174b6112cae-463056-4648)"/><path d="M74.71 75.94c9.55 6.76 26.51 26.97 21.16 37.44c-.88 1.72-2 2.47-3.28 2.47c-1.86 0-4.08-1.59-6.39-4.15c.72 5.12-.09 8.67-3.5 8.67c-.43 0-.91-.06-1.43-.18c-11.47-2.63-16.04-28.64-15.08-40.29c3.17-.45 6.14-1.83 8.52-3.96m-.22-3.83l-1.78 1.6a13.036 13.036 0 0 1-6.92 3.21l-2.38.33l-.2 2.39c-.47 5.66.27 15.47 2.99 24.63c3.23 10.9 8.21 17.41 14.4 18.84c.73.17 1.44.25 2.1.25c1.95 0 3.61-.72 4.8-2.09c.76-.88 1.3-1.98 1.61-3.33c1.19.61 2.35.91 3.47.91c1.44 0 4.13-.53 5.95-4.11c2.89-5.66 1.1-13.65-5.16-23.13c-5.27-7.97-12.3-14.84-16.94-18.12l-1.94-1.38z" fill="#BDBDBD"/><radialGradient id="IconifyId-174b6112cae-463056-4649" cx="64" cy="64.026" r="16.724" gradientUnits="userSpaceOnUse"><stop stop-color="#FF8F00" offset=".003"/><stop stop-color="#FFB300" offset="1"/></radialGradient><circle cx="64" cy="64.03" r="16.72" fill="url(#IconifyId-174b6112cae-463056-4649)" stroke="#A67C52" stroke-miterlimit="10" stroke-width="3"/><rect x="0" y="0" width="128" height="128" fill="rgba(0, 0, 0, 0)" /></svg>