<svg xmlns="http://www.w3.org/2000/svg" xmlns:xlink="http://www.w3.org/1999/xlink" width="128" height="128" preserveAspectRatio="xMidYMid meet" viewBox="0 0 128 128" style="-ms-transform: rotate(360deg); -webkit-transform: rotate(360deg); transform: rotate(360deg);"><radialGradient id="IconifyId-174b613a7f7-e58598-4686" cx="44.829" cy="63.172" r="52.381" gradientTransform="matrix(.9025 .5073 -.5498 .8917 37.393 -15.898)" gradientUnits="userSpaceOnUse"><stop stop-color="#CCE5B0" offset=".017"/><stop stop-color="#C6E2A7" offset=".154"/><stop stop-color="#B7DA8F" offset=".377"/><stop stop-color="#AED581" offset=".482"/><stop stop-color="#A7D07A" offset=".606"/><stop stop-color="#6EBA22" offset=".88"/><stop stop-color="#7CB342" offset="1"/></radialGradient><path d="M33.59 33.08c-9.21 3.15-25.7 16.98-20.25 45.55s24.82 41.01 30.81 43.03s7.92-.67 11.44.17s9.33 2.52 11.62 1.68s2.99-2.02 7.04-1.85s11.09-4.37 16.72-11.26s38.14-51.78 1.97-75.98c0 0-5.76-4.52-15.74-4.09c-8.46.36-11.18 4.24-19.7 3.56c-6.7-.54-12.11-4.84-23.91-.81z" fill="url(#IconifyId-174b613a7f7-e58598-4686)"/><path d="M78.53 33.3c7.91 0 12.54 3.46 12.57 3.48c.06.05.12.09.18.13c8.68 5.81 13.77 13.37 15.12 22.47c1.32 8.86-.76 19.13-6.19 30.51c-4.96 10.4-10.9 17.8-11.56 18.61c-5.13 6.28-11.36 10.17-14.18 10.17h-.1c-.31-.01-.6-.02-.87-.02c-3.12 0-4.73.81-6.02 1.46c-.45.23-.84.42-1.29.59c0 0-.18.05-.64.05c-1.92 0-5.22-.82-7.63-1.42c-.58-.15-1.13-.28-1.64-.4c-.7-.17-1.4-.25-2.12-.25c-1.16 0-2.2.22-3.11.41c-.87.18-1.69.36-2.63.36c-1.01 0-2.09-.2-3.31-.61c-4.75-1.6-23.56-13.21-28.82-40.75c-2.26-11.83-.84-21.98 4.23-30.17c4.15-6.71 9.98-10.59 14.04-11.98c3.04-1.04 5.81-1.55 8.47-1.55c3 0 5.43.63 8.01 1.29c1.98.51 4.03 1.04 6.25 1.21c.74.06 1.47.09 2.18.09c4.05 0 6.88-.95 9.63-1.87c2.48-.83 4.82-1.62 8.25-1.77c.4-.03.79-.04 1.18-.04m0-3c-.43 0-.87.01-1.32.03c-7.78.33-10.71 3.64-17.76 3.64c-.61 0-1.26-.03-1.94-.08c-4.62-.37-8.62-2.51-14.49-2.51c-2.68 0-5.74.45-9.44 1.71c-9.21 3.15-25.7 16.98-20.25 45.55c5.46 28.58 24.82 41.01 30.81 43.03c1.71.58 3.09.77 4.27.77c2.36 0 3.93-.77 5.74-.77c.45 0 .93.05 1.43.17c2.85.68 7.19 1.91 9.96 1.91c.65 0 1.22-.07 1.66-.23c2.14-.79 2.89-1.87 6.29-1.87c.24 0 .49.01.75.02h.22c4.08 0 10.97-4.5 16.5-11.27c5.63-6.89 38.14-51.78 1.97-75.98c.03 0-5.23-4.12-14.4-4.12z" fill="#424242" opacity=".2"/><linearGradient id="IconifyId-174b613a7f7-e58598-4687" x1="46.107" x2="80.314" y1="44.654" y2="44.654" gradientUnits="userSpaceOnUse"><stop stop-color="#9CCC65" stop-opacity="0" offset=".004"/><stop stop-color="#33691E" offset=".534"/><stop stop-color="#9CCC65" stop-opacity="0" offset="1"/></linearGradient><path d="M47.6 44.82c-.87-.59-1.47-1.76-.82-2.44c.64-.65 4.46-.3 7.45.29c.75.18 6.05 1.58 9.09 1.47c2.04-.06 4.48-.61 8.14-1.41c3.87-.88 3.79-1.32 5.54-1.47c1.74-.16 3.45-.15 3.68.71c.2.72-.8 1.8-1.84 2.42c-4.08 2.45-9.78 3.85-15.5 3.73c-6.66-.14-12.12-.85-15.74-3.3z" fill="url(#IconifyId-174b613a7f7-e58598-4687)"/><linearGradient id="IconifyId-174b613a7f7-e58598-4688" x1="67.983" x2="114.58" y1="18.755" y2="18.755" gradientTransform="rotate(3.859 86.29 20.286)" gradientUnits="userSpaceOnUse"><stop stop-color="#689F38" offset=".123"/><stop stop-color="#73A743" offset=".322"/><stop stop-color="#8EBD60" offset=".668"/><stop stop-color="#AED581" offset=".993"/></linearGradient><path d="M112.51 8.53c-3.04 1.35-6.5-.83-10.01-2.12c0 0-7.26-2.67-15.37-.96c-5.65 1.19-9.57 4.19-11.35 5.74c-5.86 5.12-7.63 12.02-8.21 14.56c.16.16.72 1.07.8 1.31c.06-.01.1-.01.16-.02c4.36-.71 12.99 9.18 27.7 5.39s19.19-25.32 19.19-25.32l.12-.08c-.01-.01-2.37 1.21-3.03 1.5z" fill="url(#IconifyId-174b613a7f7-e58598-4688)"/><path d="M92.78 7.87c4.9 0 8.66 1.34 8.69 1.35c.68.25 1.37.54 2.11.85c2.18.92 4.44 1.88 6.86 1.88c.14 0 .27 0 .41-.01c-2.23 6.1-6.94 15.41-15.36 17.58c-1.99.51-3.98.77-5.92.77c-5.71 0-10.18-2.21-13.77-3.98c-1.77-.87-3.29-1.63-4.74-2.02c1.68-5.54 4.51-8.93 6.7-10.86c2.03-1.78 5.42-4.1 9.99-5.06c1.59-.33 3.29-.5 5.03-.5m0-3c-1.77 0-3.68.16-5.65.57c-5.65 1.19-9.57 4.19-11.35 5.74c-5.86 5.12-7.63 12.02-8.21 14.56c.16.16.72 1.07.8 1.31c.06-.01.1-.01.16-.02c.15-.02.31-.03.47-.03c3.74 0 10.28 6.3 20.56 6.3c2.07 0 4.29-.26 6.67-.87c14.71-3.79 19.19-25.32 19.19-25.32l.12-.08c-.04 0-2.38 1.21-3.03 1.5c-.67.3-1.37.42-2.08.42c-2.5 0-5.2-1.54-7.93-2.55c0 .01-4.17-1.53-9.72-1.53z" fill="#424242" opacity=".2"/><path d="M61.03 39.14s.01-.05.04-.15c.02-.09.05-.21.08-.38c.09-.46.23-1.2.44-2.13c.44-1.86 1.16-4.58 2.84-7.54c.83-1.47 1.94-2.99 3.36-4.35c.71-.69 1.51-1.32 2.36-1.89c.44-.3.86-.53 1.36-.82c.43-.21.85-.43 1.36-.65c1.94-.87 4.06-1.43 6.24-1.62s4.34-.05 6.43.11s4.12.32 6.1.2c1.97-.12 3.88-.51 5.66-1.16c.94-.32 1.79-.68 2.64-1.04c.84-.39 1.67-.76 2.46-1.18c1.58-.81 3.05-1.64 4.36-2.48c2.64-1.65 4.73-3.21 6.14-4.36c.7-.58 1.24-1.05 1.58-1.4c.35-.34.5-.54.5-.54l.11.08s-.15.22-.47.59c-.32.38-.83.89-1.49 1.53c-1.33 1.27-3.33 2.97-5.9 4.8c-1.28.92-2.71 1.86-4.28 2.78c-.78.47-1.6.91-2.45 1.36c-.87.43-1.76.87-2.66 1.24c-1.85.83-3.93 1.36-6.06 1.57c-2.13.23-4.28.15-6.36.08c-2.08-.08-4.11-.1-6.02.22c-1.91.29-3.71.91-5.3 1.74c-.37.18-.81.45-1.22.68c-.32.21-.72.45-1.05.7c-.69.5-1.32 1.04-1.88 1.63c-1.12 1.17-1.99 2.46-2.65 3.74s-1.12 2.54-1.46 3.68s-.55 2.17-.71 3.02c-.15.86-.25 1.54-.32 2.04c-.04.25-.07.45-.13.72l-.06.22l-3.59-1.04z" fill="#558B2F"/><path d="M56.45 13.58c-.69-1.18-1.33-1.96-1.91-2.17c-2.83-1.01-6.2 2.43-6.96 3.25c2.83 2.23 6.18.66 8.87-1.08z" fill="#42210B"/><linearGradient id="IconifyId-174b613a7f7-e58598-4689" x1="51.984" x2="63.045" y1="13.165" y2="46.683" gradientUnits="userSpaceOnUse"><stop stop-color="#8C6239" offset="0"/><stop stop-color="#603813" offset=".992"/></linearGradient><path d="M64.57 38.96c-.98-5.9-4.96-19.93-8.12-25.37c-2.69 1.74-6.05 3.31-8.87 1.08c-.1.11-.16.18-.16.18c6.64 7.79 9.22 10.85 12.02 18.82c2.88 8.18 3.5 11.69 3.33 12.96c-.18 1.32 2.1.35 2.1.35s1.02-.14-.3-8.02z" fill="url(#IconifyId-174b613a7f7-e58598-4689)"/><path d="M53.46 13.33c.1 0 .19.01.27.03c.12.11.42.44.9 1.28c1.79 3.09 3.98 9.4 5.63 15.24c-2.39-5.78-5-9.08-9.97-14.91c1.07-.9 2.28-1.64 3.17-1.64m0-2.1c-2.55 0-5.21 2.71-5.87 3.43c-.1.11-.16.18-.16.18c6.64 7.79 9.22 10.85 12.02 18.82c2.88 8.18 3.5 11.69 3.33 12.96c-.07.54.26.69.68.69c.62 0 1.43-.34 1.43-.34s1.01-.13-.31-8.01c-.98-5.9-4.96-19.93-8.12-25.37c-.69-1.18-1.33-1.96-1.91-2.17a3.21 3.21 0 0 0-1.09-.19z" fill="#424242" opacity=".2"/><rect x="0" y="0" width="128" height="128" fill="rgba(0, 0, 0, 0)" /></svg>