<svg xmlns="http://www.w3.org/2000/svg" xmlns:xlink="http://www.w3.org/1999/xlink" width="128" height="128" preserveAspectRatio="xMidYMid meet" viewBox="0 0 128 128" style="-ms-transform: rotate(360deg); -webkit-transform: rotate(360deg); transform: rotate(360deg);"><linearGradient id="IconifyId-174b19e828f-737707-4168" x1="64" x2="64" y1="100.5" y2="124.01" gradientUnits="userSpaceOnUse"><stop stop-color="#8D6E63" offset="0"/><stop stop-color="#5D4037" offset=".998"/></linearGradient><path d="M67.06 124h-6.11a5.94 5.94 0 0 1-5.94-5.94V97.82a5.94 5.94 0 0 1 5.94-5.94h6.11A5.94 5.94 0 0 1 73 97.82v20.24a5.94 5.94 0 0 1-5.94 5.94z" fill="url(#IconifyId-174b19e828f-737707-4168)"/><path d="M67.06 95.28c1.4 0 2.54 1.14 2.54 2.54v20.24c0 1.4-1.14 2.54-2.54 2.54h-6.11c-1.4 0-2.54-1.14-2.54-2.54V97.82c0-1.4 1.14-2.54 2.54-2.54h6.11m0-3.4h-6.11a5.94 5.94 0 0 0-5.94 5.94v20.24a5.94 5.94 0 0 0 5.94 5.94h6.11a5.94 5.94 0 0 0 5.94-5.94V97.82a5.94 5.94 0 0 0-5.94-5.94z" fill="#424242" opacity=".2"/><linearGradient id="IconifyId-174b19e828f-737707-4169" x1="64.094" x2="64.094" y1="105.7" y2="8.997" gradientUnits="userSpaceOnUse"><stop stop-color="#558B2F" offset=".395"/><stop stop-color="#588E31" offset=".417"/><stop stop-color="#89BB57" offset=".807"/><stop stop-color="#9CCC65" offset="1"/></linearGradient><path d="M114.47 100.14c-33.25 7.14-67.65 6.82-100.74-.83c-3.01-.75-4.07-3.82-1.75-5.42c15.32-10.87 27.73-25 36.59-37.71c.57-.8 1.47-1.29 2.44-1.3c8.68-.09 17.35-.18 26.02-.28c.96-.01 1.87.46 2.44 1.27c8.81 12.72 21.26 27.19 36.73 38.7c2.33 1.71 1.29 4.86-1.73 5.57z" fill="url(#IconifyId-174b19e828f-737707-4169)"/><path d="M76.98 57.66c7.52 10.86 20.08 26.46 37.3 39.3c-.1.07-.26.15-.49.21A228.234 228.234 0 0 1 66 102.23c-17.31 0-34.66-1.98-51.56-5.88a2.02 2.02 0 0 1-.43-.17C31.08 84 43.57 68.67 51.03 57.93l13.39-.14l12.56-.13m.07-3.05h-.03c-8.66.09-17.34.18-26.02.28c-.96.01-1.87.49-2.44 1.3C39.7 68.9 27.3 83.02 11.98 93.89c-2.32 1.6-1.26 4.67 1.75 5.42a232.34 232.34 0 0 0 52.28 5.97c16.24 0 32.49-1.71 48.46-5.14c3.02-.7 4.06-3.86 1.72-5.56c-15.48-11.52-27.93-25.98-36.73-38.7c-.57-.8-1.46-1.27-2.41-1.27z" fill="#424242" opacity=".2"/><linearGradient id="IconifyId-174b19e828f-737707-4170" x1="64.073" x2="64.073" y1="107.56" y2="10.299" gradientUnits="userSpaceOnUse"><stop stop-color="#558B2F" offset=".133"/><stop stop-color="#598E32" offset=".352"/><stop stop-color="#64983A" offset=".551"/><stop stop-color="#76A948" offset=".743"/><stop stop-color="#90C15C" offset=".928"/><stop stop-color="#9CCC65" offset="1"/></linearGradient><path d="M105.8 78.83c-27.55 5.84-56.02 5.59-83.45-.66c-3.04-.76-4.03-3.89-1.6-5.48c12.38-8.44 22.37-19.31 29.8-29.13c.58-.75 1.45-1.2 2.37-1.21c7.4-.07 14.79-.15 22.17-.22c.93-.01 1.8.43 2.37 1.18c7.38 9.83 17.4 20.96 29.9 29.89c2.46 1.69 1.5 4.91-1.56 5.63z" fill="url(#IconifyId-174b19e828f-737707-4170)"/><path d="M75.06 45.18c9.33 12.42 19.6 22.68 30.52 30.49c-.1.06-.24.14-.45.19A191.395 191.395 0 0 1 65.61 80c-14.28 0-28.59-1.61-42.54-4.78c-.16-.04-.29-.1-.39-.15c10.85-7.43 21.04-17.41 30.27-29.66l11.36-.11l10.75-.12m.07-3.05h-.03c-7.38.07-14.77.15-22.17.22c-.93.01-1.8.46-2.37 1.21c-7.42 9.82-17.42 20.69-29.8 29.13c-2.43 1.59-1.45 4.72 1.6 5.48c14.23 3.24 28.74 4.87 43.26 4.87c13.46 0 26.93-1.4 40.19-4.21c3.06-.72 4.02-3.94 1.56-5.63c-12.49-8.93-22.52-20.06-29.9-29.89c-.57-.74-1.43-1.18-2.34-1.18z" fill="#424242" opacity=".2"/><linearGradient id="IconifyId-174b19e828f-737707-4171" x1="64.034" x2="64.034" y1="113.53" y2="17.134" gradientUnits="userSpaceOnUse"><stop stop-color="#558B2F" offset=".124"/><stop stop-color="#5D9235" offset=".31"/><stop stop-color="#73A746" offset=".601"/><stop stop-color="#97C861" offset=".959"/><stop stop-color="#9CCC65" offset="1"/></linearGradient><path d="M93.91 56.98c-19.74 4.02-40.1 3.83-59.75-.5c-3.1-.78-4.1-3.89-1.62-5.49c9.39-6.41 16.73-14.49 22.35-21.89c.58-.75 1.45-1.2 2.37-1.21c4.42-.05 8.83-.1 13.24-.14c.92-.01 1.79.42 2.36 1.16c5.64 7.39 13.05 15.66 22.61 22.43c2.53 1.69 1.57 4.91-1.56 5.64z" fill="url(#IconifyId-174b19e828f-737707-4171)"/><path d="M70.48 30.78c7.37 9.64 14.97 17.17 23.24 23.03c-.1.06-.25.14-.46.19a140.723 140.723 0 0 1-58.38-.49c-.17-.04-.3-.1-.4-.15c8.21-5.64 15.69-12.98 22.83-22.43l13.17-.15m.06-3.05h-.03c-4.41.05-8.83.1-13.24.14c-.93.01-1.8.46-2.37 1.21c-5.62 7.4-12.96 15.48-22.35 21.89c-2.48 1.61-1.48 4.72 1.62 5.49c10.23 2.26 20.66 3.39 31.09 3.39c9.6 0 19.2-.96 28.66-2.89c3.13-.72 4.09-3.94 1.57-5.65c-9.56-6.77-16.97-15.05-22.61-22.43c-.58-.72-1.43-1.15-2.34-1.15z" fill="#424242" opacity=".2"/><linearGradient id="IconifyId-174b19e828f-737707-4172" x1="63.985" x2="63.985" y1="111.5" y2="18.365" gradientTransform="matrix(1.0407 -.0108 -.0108 1.0532 -2.429 -1.721)" gradientUnits="userSpaceOnUse"><stop stop-color="#689F38" offset=".005"/><stop stop-color="#9CCC65" offset=".79"/></linearGradient><path d="M66.59 6.05c4.8 6.96 10.86 14.7 19.78 21.15c2.63 1.8 1.41 5.14-2.07 5.89c-13.54 2.56-27.43 2.58-40.98-.14c-3.47-.8-4.65-4.01-1.99-5.72c9.05-6.15 15.26-13.9 20.2-21.06c1.27-1.81 3.82-1.89 5.06-.12z" fill="url(#IconifyId-174b19e828f-737707-4172)"/><path d="M64.1 8.06c4.51 6.51 10.87 14.8 20.26 21.63c-.15.1-.38.21-.71.28c-6.48 1.22-13.08 1.84-19.6 1.84c-6.75 0-13.5-.67-20.07-1.98c-.22-.05-.4-.12-.55-.19c9.7-6.66 16.14-15.02 20.67-21.58m.05-3.29c-.98 0-1.97.47-2.62 1.41c-4.94 7.15-11.15 14.91-20.2 21.06c-2.65 1.7-1.48 4.92 1.99 5.72C50.17 34.33 57.12 35 64.06 35c6.78 0 13.55-.64 20.24-1.91c3.48-.75 4.69-4.09 2.07-5.89c-8.92-6.45-14.98-14.19-19.78-21.15a2.961 2.961 0 0 0-2.44-1.28z" fill="#424242" opacity=".2"/><rect x="0" y="0" width="128" height="128" fill="rgba(0, 0, 0, 0)" /></svg>