<svg xmlns="http://www.w3.org/2000/svg" viewBox="0 0 128 128" enable-background="new 0 0 128 128"><style type="text/css">.st0{fill:#324D5B;} .st1{fill:#3F5E6D;} .st2{fill:#99A6AD;} .st3{fill:#4E6B78;}</style><path class="st0" d="M41 0h46c6.6 0 12 5.4 12 12v104c0 6.6-5.4 12-12 12h-46c-6.6 0-12-5.4-12-12v-104c0-6.6 5.4-12 12-12z"/><path class="st1" d="M37 18h54c1.1 0 2 .9 2 2v88c0 1.1-.9 2-2 2h-54c-1.1 0-2-.9-2-2v-88c0-1.1.9-2 2-2z"/><path class="st2" d="M59 116h10c1.7 0 3 1.3 3 3s-1.3 3-3 3h-10c-1.7 0-3-1.3-3-3 0-1.6 1.3-3 3-3zM58 7h12c1.1 0 2 .9 2 2s-.9 2-2 2h-12c-1.1 0-2-.9-2-2s.9-2 2-2z"/><path class="st3" d="M68.1 50.7l1.7-1.7c.2-.2.2-.6 0-.8-.2-.2-.6-.2-.8 0l-2.2 2.1c-.8-.2-1.6-.3-2.4-.3-.8 0-1.6.1-2.4.3l-2-2.1c-.2-.2-.6-.2-.8 0-.2.2-.2.6 0 .8l1.7 1.7c-2.9 1.1-4.9 3.5-4.9 6.3h17c0-2.8-2-5.2-4.9-6.3zm-6.1 4.3c-.6 0-1-.4-1-1s.4-1 1-1 1 .4 1 1-.4 1-1 1zm5 0c-.6 0-1-.4-1-1s.4-1 1-1 1 .4 1 1-.4 1-1 1zm-11 14c0 1.7 1.3 3 3 3v4.2c0 1 .9 1.8 2 1.8s2-.8 2-1.8v-4.2h3v4.2c0 1 .9 1.8 2 1.8s2-.8 2-1.8v-4.2c1.7 0 3-1.3 3-3v-11h-17v11zm-2.5-11c-.8 0-1.5.7-1.5 1.5v8c0 .8.7 1.5 1.5 1.5s1.5-.7 1.5-1.5v-8c0-.8-.7-1.5-1.5-1.5zm22 0c-.8 0-1.5.7-1.5 1.5v8c0 .8.7 1.5 1.5 1.5s1.5-.7 1.5-1.5v-8c0-.8-.7-1.5-1.5-1.5z"/></svg>