<svg xmlns="http://www.w3.org/2000/svg" viewBox="0 0 128 128" enable-background="new 0 0 128 128"><style type="text/css">.st0{fill:#D07C3F;} .st1{fill:#EEC65D;} .st2{fill:#DCA34F;} .st3{fill:#CBA94F;} .st4{fill:#FFFFFF;}</style><path class="st0" d="M6 0h116v99.9h-115.9l-.1-99.9z"/><path class="st1" d="M0 24v96.7c0 4.7 3.8 7.3 8.5 7.3h111c4.7 0 8.5-2.6 8.5-7.3v-96.7c0 .1-127.9 0-128 0zm18-15.9l-12-8.1v20h12v-11.9zm104-8.1l-12 8v12h12v-20z"/><path class="st2" d="M18 24v-16l-18.1 16h18.1zm92-16v16h18.2l-18.2-16z"/><path class="st0" d="M28.4 47c-3 0-5.5 2.5-5.5 5.5s2.4 5.5 5.5 5.5c3 0 5.5-2.5 5.5-5.5.1-3-2.4-5.5-5.5-5.5zm67 0c-3 0-5.5 2.5-5.5 5.5s2.4 5.5 5.5 5.5c3 0 5.5-2.5 5.5-5.5.1-3-2.4-5.5-5.5-5.5z"/><path class="st3" d="M62 93c-19.9 0-36-17.6-36-39.3 0-1.5 1.1-2.7 2.5-2.7s2.5 1.2 2.5 2.7c0 18.7 13.9 33.8 31 33.8s31-15.2 31-33.8c0-1.5 1.1-2.7 2.5-2.7s2.5 1.2 2.5 2.7c0 21.7-16.2 39.3-36 39.3z"/><path class="st4" d="M62 89.9c-19.9 0-36-16.3-36-36.4 0-1.4 1.1-2.5 2.5-2.5s2.5 1.1 2.5 2.5c0 17.3 13.9 31.4 31 31.4s31-14.1 31-31.4c0-1.4 1.1-2.5 2.5-2.5s2.5 1.1 2.5 2.5c0 20.1-16.2 36.4-36 36.4z"/></svg>