<svg xmlns="http://www.w3.org/2000/svg" viewBox="0 0 128 128" enable-background="new 0 0 128 128"><style type="text/css">.st0{fill:#EFC75E;} .st1{fill:#D7B354;} .st2{fill:#C19D3D;} .st3{fill:#F4F0D3;} .st4{fill:#E8E4C8;} .st5{fill:#4681A0;} .st6{fill:#DCB757;}</style><path class="st0" d="M110 72h-92c-9.9 0-18 8.1-18 18v14c0 5.5 4.5 10 10 10h108c5.5 0 10-4.5 10-10v-14c0-9.9-8.1-18-18-18z"/><path class="st1" d="M.1 88h127.8c-1-9-8.6-16-17.9-16h-92c-9.3 0-16.9 7-17.9 16z"/><path class="st2" d="M.1 88h127.8c-.2-1.4-.5-2.7-.9-4h-126c-.4 1.3-.7 2.6-.9 4z"/><path class="st3" d="M116 48c0-19.9-16.1-36-36-36h-32c-19.9 0-36 16.1-36 36v71c0 5 4 9 9 9h86c5 0 9-4 9-9v-71z"/><path class="st4" d="M48 12c-19.9 0-36 16.1-36 36v71c0 5 4 9 9 9h43v-116h-16z"/><path class="st0" d="M74.3 12c-2-3.6-5.9-6-10.3-6s-8.3 2.4-10.3 6h-6.7c2.5-7 9.1-12 17-12s14.5 5 17 12h-6.7zM31 64h66c2.8 0 5 2.2 5 5v40c0 2.8-2.2 5-5 5h-66c-2.8 0-5-2.2-5-5v-40c0-2.8 2.2-5 5-5z"/><path class="st5" d="M76.7 36.8l-9.5-9.5c-1.7-1.7-4.6-1.7-6.3 0l-9.5 9.5c-1.7 1.7-1.7 4.6 0 6.3l9.5 9.5c1.7 1.7 4.6 1.7 6.3 0l9.5-9.5c1.7-1.7 1.7-4.5 0-6.3zm-14.7 6.2c0 .6-.4 1-1 1h-2c-.6 0-1-.4-1-1v-6c0-.6.4-1 1-1h2c.6 0 1 .4 1 1v6zm8 0c0 .6-.4 1-1 1h-2c-.6 0-1-.4-1-1v-6c0-.6.4-1 1-1h2c.6 0 1 .4 1 1v6z"/><path class="st2" d="M37 74h54c.6 0 1 .4 1 1v2c0 .6-.4 1-1 1h-54c-.6 0-1-.4-1-1v-2c0-.5.4-1 1-1z"/><path class="st6" d="M30 109v-40c0-2.8 2.2-5 5-5h-4c-2.8 0-5 2.2-5 5v40c0 2.8 2.2 5 5 5h4c-2.8 0-5-2.2-5-5z"/></svg>