<svg xmlns="http://www.w3.org/2000/svg" viewBox="0 0 128 128" enable-background="new 0 0 128 128"><style type="text/css">.st0{fill:#D4B25A;} .st1{fill:#E8C15B;} .st2{fill:#EFC75E;} .st3{fill:#E1BB58;}</style><path class="st0" d="M63 104c6.6 0 12 5.4 12 12s-5.4 12-12 12-12-5.4-12-12 5.4-12 12-12z"/><path class="st1" d="M63 0c-4.4 0-8 3.6-8 8s3.6 8 8 8 8-3.6 8-8-3.6-8-8-8zm0 12c-2.2 0-4-1.8-4-4s1.8-4 4-4 4 1.8 4 4-1.8 4-4 4z"/><path class="st2" d="M107 88v-34.4c0-24.1-19.7-43.6-44-43.6s-44 19.5-44 43.6v34.4c-7.7 0-14 6.3-14 14s6.3 14 14 14h88c7.7 0 14-6.3 14-14s-6.3-14-14-14z"/><path class="st3" d="M63 88v-78c-24.3 0-44 19.5-44 43.6v34.4h44z"/><path class="st1" d="M19 88c-7.7 0-14 6.3-14 14s6.3 14 14 14h88c7.7 0 14-6.3 14-14s-6.3-14-14-14h-88z"/></svg>