<svg xmlns="http://www.w3.org/2000/svg" viewBox="0 0 128 128" enable-background="new 0 0 128 128"><style type="text/css">.st0{fill:#324D5B;} .st1{fill:#E2574C;} .st2{fill:#BF392B;} .st3{fill:#2B414D;} .st4{fill:#FFFFFF;} .st5{fill:#EFC75E;} .st6{fill:#A78B42;}</style><path class="st0" d="M57.3 102.6c-.9-.9-2.3-.9-3.1 0-.9.9-.9 2.3 0 3.1l15.7 15.6c.9.9 2.3.9 3.1 0 .9-.9.9-2.3 0-3.1l-15.7-15.6zm30.5 15.6l-15.7-15.6c-.9-.9-2.3-.9-3.1 0-.9.9-.9 2.3 0 3.1l15.7 15.6c.9.9 2.3.9 3.1 0 .9-.8.9-2.2 0-3.1z"/><path class="st1" d="M96.7 42.3c1.4-2.8 1.8-6 1.8-9.3 0-18.3-14.9-33-33.2-33h-.6c.1.8 0 1.8 0 2.6 0 8.3-2.7 16-7.7 21.8-21.3 2.6-38.5 20.1-38.5 42 0 12.2 4.8 22.8 13 30.5v31.1l20.4-20.2c2.9.6 6.5 1.3 9.6 1.3 23.7 0 43-18.8 43-42.4 0-8.8-3.2-17.6-7.8-24.4z"/><path class="st2" d="M96.9 41.8c.9-3 2.5-5.5 2.5-8.7 0-3.5-1.5-6.8-2.5-10h-.3c-3.9 0-7.6.3-10.7 2.2 1 1.3 1.6 3 1.6 4.8 0 4.4-3.6 8-8 8-1.1 0-2.1-.2-3-.6v5.6c0 11 9 20 20 20 2.8 0 5.5-.2 7.9-1.2.1-6.7-3-14.6-7.5-20.1zM17.5 66.1c0 9.1 3 19 8 25.9 21.4-3.9 38-21.8 38-43.5 0-9.1-1.6-17.6-6.6-24.5-23.5 2.6-39.4 20.4-39.4 42.1zM38.9 102.7l-7.4 25.3 21.2-20c-5-1.1-9.7-2.7-13.8-5.3z"/><path class="st3" d="M74.5 30.5c0 3 2.5 5.5 5.5 5.5s5.5-2.5 5.5-5.5-2.5-5.5-5.5-5.5-5.5 2.5-5.5 5.5z"/><path class="st4" d="M77.5 29.5c0 .8.7 1.5 1.5 1.5s1.5-.7 1.5-1.5-.7-1.5-1.5-1.5-1.5.7-1.5 1.5z"/><path class="st5" d="M109.5 40c-.9-4.3-3-8-10.7-8-7.4 0-10.2 4.2-10.2 9.4 0 .7-.2 1.9 0 2.6 1.9-.1 3.7 0 5.5 0 5.5 0 11.3-1.2 15.4-4z"/><path class="st6" d="M88.6 44c1.8-.1 3.6 0 5.4 0 5.5 0 11.2-1.2 15.3-3.9-1.6-1.3-4.2-2.1-6.5-2.1-5.4 0-10.1 2.7-14.2 6z"/></svg>