<svg xmlns="http://www.w3.org/2000/svg" viewBox="0 0 128 128" enable-background="new 0 0 128 128"><style type="text/css">.st0{fill:#324D5B;} .st1{fill:#2D4552;} .st2{fill:#2F4856;} .st3{fill:#2B414D;} .st4{fill:#EDEDED;} .st5{fill:#DCDCDC;} .st6{fill:#E2574C;} .st7{fill:#D25147;}</style><path class="st0" d="M60 33c26 0 47 21.3 47 47.5s-21 47.5-47 47.5-47-21.3-47-47.5 21-47.5 47-47.5z"/><path class="st1" d="M70 118c-26 0-47-21.3-47-47.5 0-10.6 3.5-20.4 9.3-28.4-11.7 8.7-19.3 22.6-19.3 38.4 0 26.2 21 47.5 47 47.5 15.4 0 29.1-7.5 37.7-19.1-7.8 5.7-17.3 9.1-27.7 9.1z"/><path class="st2" d="M107 80.5c0-5.2-.8-10.1-2.3-14.8-1.2-3.1-2.7-6.3-4.5-9.6-.3-.6-.6-1.2-.9-1.7-4.6-7-11-12.7-18.5-16.5-.2 6.3-1.8 12.5-5 18.1-5.8 10.6-8.9 22.6-8.9 34.7 0 12.1 3.1 24 8.8 34.6 18.2-6.5 31.3-24.1 31.3-44.8z"/><path class="st3" d="M55 49.5c0-2.5-2-4.5-4.5-4.5s-4.5 2-4.5 4.5 2 4.5 4.5 4.5 4.5-2 4.5-4.5zm12.5-2.5c-2.5 0-4.5 2-4.5 4.5s2 4.5 4.5 4.5 4.5-2 4.5-4.5-2-4.5-4.5-4.5zm-10 12c-2.5 0-4.5 2-4.5 4.5s2 4.5 4.5 4.5 4.5-2 4.5-4.5-2-4.5-4.5-4.5z"/><path class="st4" d="M115 90.7c0-13.4-2.8-22.9-9-34.6-4.6-8.5-6.1-17.9-4.3-27.2l3-15.6c.4-2.3.1 0 .1-2.1 0-6.2-4.9-11.2-10.9-11.2s-10.9 5-10.9 11.2c0 2.1-.3-.1.2 2.1l3 15.5c1.6 9.3.3 18.8-4.3 27.2-5.8 10.6-8.9 22.6-8.9 34.7 0 12.1 3.1 24.1 8.9 34.7h.1c1.1 1.4 6.1 2.5 12 2.5 6.5 0 11.7-1.3 12.2-2.9 6.1-11.5 8.8-21 8.8-34.3z"/><path class="st5" d="M88.9 125.5c-5.9-10.6-9-22.6-9-34.7 0-12.1 3.1-24.1 8.9-34.7 4.6-8.3 5.9-17.9 4.3-27.2l-3-15.5c-.5-2.3-.2 0-.2-2.1 0-4.9 3.1-9.1 7.4-10.6-1-.5-2.2-.7-3.4-.7-6 0-10.9 5-10.9 11.2 0 2.1-.3-.1.2 2.1l3 15.5c1.6 9.3.3 18.8-4.3 27.2-5.8 10.6-8.9 22.6-8.9 34.7 0 12.1 3.1 24.1 8.9 34.7h.1c1.1 1.4 6.1 2.5 12 2.5 1.2 0 2.4 0 3.5-.1-4.3-.3-7.7-1.2-8.6-2.3z"/><path class="st6" d="M102.4 47c-.7-2.6-1.1-5.3-1.3-8h-14.4c-.2 2.7-.6 5.4-1.3 8h17zM101.7 29l.4-2h-16.3l.4 1.8c.4 2.1.6 4.1.6 6.2h14.2c.1-2 .3-4 .7-6z"/><path class="st7" d="M86.2 28.8c.4 2.1.6 4.1.6 6.2h7c-.1-2.1-.3-4.1-.6-6.2l-.4-1.8h-7l.4 1.8zM86.7 39c-.2 2.7-.6 5.4-1.3 8h7c.7-2.6 1.1-5.3 1.3-8h-7z"/></svg>