<svg xmlns="http://www.w3.org/2000/svg" viewBox="0 0 128 128" enable-background="new 0 0 128 128"><style type="text/css">.st0{fill:#EFC75E;} .st1{fill:#E7BF55;} .st2{fill:#DBB551;} .st3{fill:#F7E3AF;} .st4{fill:#F1D999;} .st5{fill:#F2F2F2;}</style><path class="st0" d="M0 31.8l64-31.8 64 31.8v4.2l-64 31.8-64-31.7v-4.3z"/><path class="st1" d="M0 31.8l64 31.8 64-31.8v63.7l-64.2 31.8-63.8-31.8v-63.7z"/><path class="st2" d="M64 127.2v-63.6l-63.6-31.6h-.4v63.5l63.8 31.8z"/><path class="st3" d="M26.1 18.9l63.9 31.8 13-6.4-64.1-31.8z"/><path class="st4" d="M90 50.7l13-6.4v20l-3.5-.6-3.7 4.5-5.8-.4v-17.1z"/><path class="st5" d="M50.8 89l-21.6-10.8c-1.2-.6-2.2.1-2.2 1.6v14.5c0 1.5 1 3.2 2.2 3.8l21.7 10.8c1.2.6 2.2-.1 2.2-1.6v-14.6c-.1-1.5-1.1-3.1-2.3-3.7zm-4.9 11.9l-13.8-6.9c-.6-.3-1.1-1.2-1.1-2s.5-1.2 1.1-.9l13.8 6.9c.6.3 1.1 1.2 1.1 2s-.5 1.2-1.1.9zm2-5l-15.8-8c-.6-.3-1.1-1.2-1.1-2s.5-1.2 1.1-.9l15.8 8c.6.3 1.1 1.2 1.1 2 0 .9-.5 1.2-1.1.9z"/></svg>