<svg xmlns="http://www.w3.org/2000/svg" viewBox="0 0 128 128" enable-background="new 0 0 128 128"><style type="text/css">.st0{fill:#324D5B;} .st1{fill:#2D4552;} .st2{fill:#3B5665;} .st3{fill:#4F6775;} .st4{fill:#D07C40;} .st5{fill:#622A02;} .st6{fill:#E4E7E7;} .st7{fill:#D58953;}</style><path class="st0" d="M12.7 52h102.6c4.8 0 8.7 4 8.7 8.9v48.2c0 4.9-3.9 8.9-8.7 8.9h-102.6c-4.8 0-8.7-4-8.7-8.9v-48.2c0-4.9 3.9-8.9 8.7-8.9z"/><path class="st1" d="M4 64h120v4h-120v-4z"/><path class="st2" d="M126.6 31c-2.7-2.7-4.5-4.3-7.1-7-.9-.9-2.5-2-3.4-2h-104.1c-1.1 0-2.5 1.1-3.4 2-2.3 2.3-4.4 4.3-7.1 7-.9.8-1.5 2.8-1.5 4.1v24.9c0 2.2 1.8 4 4 4h120c2.2 0 4-1.8 4-4v-24.9c0-1.1-.6-3.2-1.4-4.1z"/><path class="st3" d="M124 60h-120c-2.2 0-4-1.8-4-4v4c0 2.2 1.8 4 4 4h120c2.2 0 4-1.8 4-4v-3.9c0 2.1-1.8 3.9-4 3.9zM127.6 33c-.2-.8-.6-1.6-1.1-2-2.7-2.7-4.5-4.3-7.1-7-.9-.9-2.5-2-3.4-2h-104c-1.1 0-2.5 1.1-3.4 2-2.3 2.3-4.4 4.3-7.1 7-.5.4-.9 1.2-1.1 2h127.2z"/><path class="st4" d="M21 33v56.6c0 2.9 2.2 7.3 4.9 7.3s5.1-4.4 5.1-7.3v-56.6l6-11h-9.8l-6.2 11zm79.8-11h-9.8l6 11v56.6c0 2.9 2.4 7.3 5.1 7.3 2.7 0 4.9-4.4 4.9-7.3v-56.6l-6.2-11z"/><path class="st5" d="M26 47c-1.1 0-2 .9-2 2s.9 2 2 2 2-.9 2-2-.9-2-2-2zm0 10c-1.1 0-2 .9-2 2s.9 2 2 2 2-.9 2-2-.9-2-2-2zm0 10c-1.1 0-2 .9-2 2s.9 2 2 2 2-.9 2-2-.9-2-2-2zm76-16c1.1 0 2-.9 2-2s-.9-2-2-2-2 .9-2 2 .9 2 2 2zm0 6c-1.1 0-2 .9-2 2s.9 2 2 2 2-.9 2-2-.9-2-2-2zm0 10c-1.1 0-2 .9-2 2s.9 2 2 2 2-.9 2-2-.9-2-2-2z"/><path class="st6" d="M32 78h-12c-1.1 0-2 .9-2 2v4c0 1.1.9 2 2 2h12c1.1 0 2-.9 2-2v-4c0-1.1-.9-2-2-2zm76 0h-12c-1.1 0-2 .9-2 2v4c0 1.1.9 2 2 2h12c1.1 0 2-.9 2-2v-4c0-1.1-.9-2-2-2z"/><path class="st1" d="M48.5 24c-3 0-5.5 1.3-5.5 3s2.5 3 5.5 3 5.5-1.3 5.5-3c0-1.6-2.5-3-5.5-3zm31 0c-3 0-5.5 1.3-5.5 3s2.5 3 5.5 3 5.5-1.3 5.5-3c0-1.6-2.5-3-5.5-3z"/><path class="st6" d="M79.5 10h-31c-1.9 0-3.5 1.6-3.5 3.5v12.5c0 1.1 1.6 2 3.5 2s3.5-.9 3.5-2v-9h24v9c0 1.1 1.6 2 3.5 2s3.5-.9 3.5-2v-12.5c0-1.9-1.6-3.5-3.5-3.5z"/><path class="st7" d="M21 33h10l6-11h-9.8zM100.8 22h-9.8l6 11h10z"/></svg>