<svg xmlns="http://www.w3.org/2000/svg" viewBox="0 0 128 128" enable-background="new 0 0 128 128"><style type="text/css">.st0{fill:#415661;} .st1{fill:#3A4D57;} .st2{fill:#F4F0D3;} .st3{fill:#D3D5D6;} .st4{fill:#C8CACB;} .st5{fill:#BDBFC0;} .st6{fill-rule:evenodd;clip-rule:evenodd;fill:#E8E4C8;} .st7{fill:#E2574C;} .st8{fill-rule:evenodd;clip-rule:evenodd;fill:#B4B5B6;} .st9{fill:#D65348;}</style><path class="st0" d="M73.6 101.2c-.8.8-2.5 1-3.6-.1-10.1-10.3-24.8-8.7-31.9-1.5-4.7 4.8-7.3 12.5-10.7 17.2-1.8 2.6-4.1 5.2-6.6 7.7 0 0-3 3.4-8.5 3.4-6.8 0-12.3-5.5-12.3-12.3 0-5.3 3.4-8.5 3.4-8.5l.1-.1.1-.1c2.4-2.4 4.9-4.6 7.4-6.4 4.7-3.4 12.3-6 17-10.8 7.1-7.2 8.7-22-1.4-32.2-.5-.5-.8-1.3-.7-1.9 0-.7.4-1.4.8-1.8l12.9-13 46.8 47.3-12.8 13.1z"/><path class="st1" d="M26.8 53.8c-.4.4-.7 1.1-.8 1.8 0 .7.2 1.4.7 1.9 10.1 10.2 8.6 25 1.4 32.2-4.7 4.8-12.4 7.4-17 10.8-2.5 1.8-5 4-7.4 6.4l-.1.1-.1.1c1.2-1.2-3.4 2.6-3.4 8.5 0 3.4 1.4 6.4 3.6 8.7l58.4-58.3-19.4-22.2-3-3-12.9 13z"/><path class="st2" d="M83.9 1.4l42.8 42.7c1.4 1.4 1.4 3.6 0 5l-27.7 27.7c-1.4 1.4-3.6 1.4-5 0l-42.9-42.7c-1.4-1.4-1.4-3.6 0-5l27.8-27.7c1.3-1.4 3.6-1.4 5 0z"/><path class="st3" d="M50.9 29.4l50.1 45.3-18.3 17.3-49-45.2 17.2-17.4z"/><path class="st4" d="M50.9 29.4l25.3 22.8-17.7 17.5-24.8-22.8 17.2-17.5z"/><path class="st5" d="M70.6 66c-1.6 1.6-1.6 4.1 0 5.7 1.6 1.6 4.1 1.6 5.7 0 1.6-1.6 1.6-4.1 0-5.7-1.5-1.5-4.1-1.5-5.7 0zm14.8 9c-1.6-1.6-4.1-1.6-5.7 0-1.6 1.6-1.6 4.1 0 5.7 1.6 1.6 4.1 1.6 5.7 0 1.5-1.6 1.5-4.1 0-5.7z"/><path class="st6" d="M123.1 40.5c-.7-.7-1.8-.7-2.5 0l-21.6 21.5c-.7.7-.7 1.8 0 2.5s1.8.7 2.5 0l21.6-21.5c.7-.7.7-1.8 0-2.5zm-6-6c-.7-.7-1.8-.7-2.5 0l-21.6 21.5c-.7.7-.7 1.8 0 2.5s1.8.7 2.5 0l21.6-21.5c.7-.7.7-1.8 0-2.5zm-12.1-12c-.7-.7-1.8-.7-2.5 0l-21.6 21.4c-.7.7-.7 1.8 0 2.5s1.8.7 2.5 0l21.6-21.4c.7-.7.7-1.8 0-2.5zm-6-6c-.7-.7-1.8-.7-2.5 0l-21.6 21.4c-.7.7-.7 1.8 0 2.5s1.8.7 2.5 0l21.6-21.4c.7-.7.7-1.8 0-2.5zm-6.1-6.1c-.7-.7-1.8-.7-2.5 0l-21.5 21.5c-.7.7-.7 1.8 0 2.5s1.8.7 2.5 0l21.5-21.4c.7-.7.7-1.9 0-2.6zm-6-6c-.7-.7-1.8-.7-2.5 0l-21.6 21.5c-.7.7-.7 1.8 0 2.5s1.8.7 2.5 0l21.6-21.5c.7-.7.7-1.8 0-2.5z"/><path class="st7" d="M126.8 44l-42.9-42.7c-1.4-1.4-3.6-1.4-5 0l-3.1 3.1 19 18.8c1.5 2.8 1.1 6.3-1.6 8.7l-2.4 2.8c-1.6 1.4-1.6 3.8 0 5.2 1.6 1.4 4.3 1.3 5.6-.2l-7.4 7.2c-1.5 1.4-1.5 3.7 0 5.1 1.5 1.4 3.8 1.4 5.3 0l3.4-3.4c-1.4 1.4-1.4 3.7 0 5.1 1.4 1.4 3.6 1.4 5 0l6.2-6.5c2.8-2.9 7.4-2.9 10.3 0l4.7 4.6 2.9-2.9c1.4-1.2 1.4-3.5 0-4.9z"/><path class="st8" d="M52.2 42c1.6 1.6 1.6 4.1 0 5.7-1.6 1.6-4.1 1.6-5.7 0-1.6-1.6-1.6-4.1 0-5.7 1.6-1.6 4.1-1.6 5.7 0zM61.2 51c1.6 1.6 1.6 4.1 0 5.7-1.6 1.6-4.1 1.6-5.7 0-1.6-1.6-1.6-4.1 0-5.7 1.6-1.6 4.2-1.6 5.7 0z"/><path class="st9" d="M93.3 31.8l-2.4 2.8c-1.6 1.4-1.6 3.7 0 5.2 1.5 1.3 3.9 1.3 5.3.1l2.3-2.2c-1.4 1.4-4 1.6-5.6.2-1.6-1.4-1.6-3.7 0-5.2l2.4-2.8c2.6-2.3 3-5.9 1.6-8.6l-19-18.7-2 2 19 18.7c1.4 2.7 1 6.2-1.6 8.5zM91.1 50c-1.4-1.3-1.4-3.5-.2-4.9l-1.8 1.7c-1.5 1.4-1.5 3.7 0 5.1 1.5 1.4 3.8 1.4 5.3 0l2-2c-1.5 1.5-3.8 1.5-5.3.1zM99.7 51.8c-1.4-1.4-1.4-3.7 0-5.1l-2 2c-1.4 1.4-1.4 3.7 0 5.1 1.4 1.4 3.6 1.4 5 0l1.6-1.6c-1.4 1-3.3.8-4.6-.4zM125.8 49.9l-4.7-4.5c-2.8-2.9-7.4-2.9-10.2 0l-1.4 1.4c2.8-2.3 7-2.1 9.6.5l4.7 4.5 2.9-2.9-.9 1z"/></svg>