<svg xmlns="http://www.w3.org/2000/svg" viewBox="0 0 128 128" enable-background="new 0 0 128 128"><style type="text/css">.st0{fill:#EFEFEF;} .st1{fill:#324D5B;} .st2{fill:#AEB5BA;} .st3{fill:#E2574C;} .st4{fill:#FFFFFF;} .st5{fill:#26A6D1;} .st6{fill:#DCDCDC;} .st7{fill:#2E4754;}</style><path class="st0" d="M6 .5h116c3.3 0 6 2.7 6 6v115c0 3.3-2.7 6-6 6h-116c-3.3 0-6-2.7-6-6v-115c0-3.3 2.7-6 6-6z"/><path class="st1" d="M14 14.5h100v26h-100v-26z"/><path class="st2" d="M83.9 26.9c.6-.3 1.1-.6 1.4-1.1.3-.5.5-1.1.5-1.7 0-1-.4-1.9-1.1-2.5-.7-.7-1.8-1-3.1-1-1.4 0-2.4.3-3.2 1-.7.7-1.1 1.5-1.1 2.5 0 .6.2 1.1.5 1.6s.8.9 1.5 1.2c-.8.3-1.4.8-1.8 1.4-.4.6-.6 1.3-.6 2 0 1.3.5 2.4 1.5 3.2.9.7 1.9 1 3.2 1 1.4 0 2.5-.4 3.3-1.2.8-.8 1.3-1.8 1.3-3.1 0-.8-.2-1.4-.6-2-.3-.6-.9-1-1.7-1.3zm-3.5-3.9c.3-.3.7-.4 1.3-.4.5 0 .9.1 1.2.4.3.3.5.7.5 1.2s-.2.9-.5 1.2c-.3.3-.7.4-1.2.4s-.9-.1-1.2-.4c-.3-.3-.5-.7-.5-1.2s.1-.9.4-1.2zm2.7 8.8c-.4.4-.8.6-1.4.6-.6 0-1.1-.2-1.4-.6-.4-.4-.6-1-.6-1.7 0-.5.2-1 .5-1.4.3-.4.8-.7 1.5-.7.6 0 1.1.2 1.4.6.4.4.6.9.6 1.5 0 .8-.2 1.3-.6 1.7zm11.7-4.9c.6-.3 1.1-.6 1.4-1.1.3-.5.5-1.1.5-1.7 0-1-.4-1.9-1.1-2.5-.7-.7-1.8-1-3.1-1-1.4 0-2.4.3-3.2 1-.7.7-1.1 1.5-1.1 2.5 0 .6.2 1.1.5 1.6s.8.9 1.5 1.2c-.8.3-1.4.8-1.8 1.4-.4.6-.6 1.3-.6 2 0 1.3.5 2.4 1.5 3.2.9.7 1.9 1 3.2 1 1.4 0 2.5-.4 3.3-1.2.8-.8 1.3-1.8 1.3-3.1 0-.8-.2-1.4-.6-2-.3-.6-.9-1-1.7-1.3zm-3.6-3.9c.3-.3.7-.4 1.3-.4.5 0 .9.1 1.2.4.3.3.5.7.5 1.2s-.2.9-.5 1.2c-.3.3-.7.4-1.2.4s-.9-.1-1.2-.4c-.3-.3-.5-.7-.5-1.2s.1-.9.4-1.2zm2.7 8.8c-.4.4-.8.6-1.4.6-.6 0-1.1-.2-1.4-.6-.4-.4-.6-1-.6-1.7 0-.5.2-1 .5-1.4.3-.4.8-.7 1.5-.7.6 0 1.1.2 1.4.6.4.4.6.9.6 1.5 0 .8-.2 1.3-.6 1.7zm12.7-9.7c-.9-1.1-2.1-1.6-3.5-1.6-1.3 0-2.4.4-3.3 1.3-.9.9-1.3 2-1.3 3.4 0 1.3.4 2.4 1.2 3.2.8.8 1.8 1.2 2.9 1.2 1 0 1.9-.4 2.6-1.1-.1 1.6-.4 2.6-.8 3.1s-.9.7-1.4.7c-.4 0-.8-.1-1.1-.4-.3-.2-.4-.6-.5-1.1l-2.6.3c.2 1.1.6 2 1.3 2.6.7.6 1.6.9 2.7.9 1.5 0 2.8-.6 3.8-1.7s1.4-2.9 1.4-5.4c0-2.5-.5-4.3-1.4-5.4zm-2.2 5c-.4.4-.8.6-1.3.6s-1-.2-1.4-.6c-.4-.4-.5-1.1-.5-1.9 0-.9.2-1.5.5-1.9.3-.4.8-.6 1.3-.6s1 .2 1.4.7c.4.5.6 1.1.6 2-.1.7-.2 1.3-.6 1.7z"/><path class="st3" d="M38 50.5h-20c-2.2 0-4 1.8-4 4v20c0 2.2 1.8 4 4 4h20c2.2 0 4-1.8 4-4v-20c0-2.2-1.8-4-4-4zm34 0h-20c-2.2 0-4 1.8-4 4v20c0 2.2 1.8 4 4 4h20c2.2 0 4-1.8 4-4v-20c0-2.2-1.8-4-4-4zm0 34h-20c-2.2 0-4 1.8-4 4v20c0 2.2 1.8 4 4 4h20c2.2 0 4-1.8 4-4v-20c0-2.2-1.8-4-4-4zm-34 0h-20c-2.2 0-4 1.8-4 4v20c0 2.2 1.8 4 4 4h20c2.2 0 4-1.8 4-4v-20c0-2.2-1.8-4-4-4z"/><path class="st4" d="M22 99.5h12v-4h-12v4zm38-7c0 1.1.9 2 2 2s2-.9 2-2-.9-2-2-2-2 .9-2 2zm-4 4v4h12v-4h-12zm6 6c-1.1 0-2 .9-2 2s.9 2 2 2 2-.9 2-2-.9-2-2-2zm-32-44h-4v4h-4v4h4v4h4v-4h4v-4h-4v-4zm29.2 11.7l2.8-2.8 2.8 2.8 2.8-2.8-2.8-2.8 2.8-2.8-2.8-2.8-2.8 2.7-2.8-2.8-2.8 2.8 2.8 2.8-2.8 2.8 2.8 2.9z"/><path class="st5" d="M86 50.5h24c2.2 0 4 1.8 4 4v54c0 2.2-1.8 4-4 4h-24c-2.2 0-4-1.8-4-4v-54c0-2.2 1.8-4 4-4z"/><path class="st4" d="M92 76.5v4h12v-4h-12zm0 11h12v-4h-12v4z"/><path class="st6" d="M122 124.5h-116c-3.3 0-6-2.7-6-6v3c0 3.3 2.7 6 6 6h116c3.3 0 6-2.7 6-6v-3c0 3.3-2.7 6-6 6z"/><path class="st7" d="M14 14.5h100v4h-100z"/></svg>