<svg xmlns="http://www.w3.org/2000/svg" viewBox="0 0 128 128" enable-background="new 0 0 128 128"><style type="text/css">.st0{fill:#E2574C;} .st1{fill:#FFFFFF;} .st2{fill:#F5F5F5;} .st3{fill:#E2E0E0;} .st4{fill:#40545E;} .st5{fill:#2B414D;} .st6{fill:#E5E5E5;} .st7{fill:#3DB39E;} .st8{fill:#394B54;}</style><path class="st0" d="M8 0h112c4.4 0 8 3.6 8 8v112c0 4.4-3.6 8-8 8h-112c-4.4 0-8-3.6-8-8v-112c0-4.4 3.6-8 8-8z"/><path class="st1" d="M16 12h96c2.2 0 4 1.8 4 4v92c0 2.2-1.8 4-4 4h-96c-2.2 0-4-1.8-4-4v-92c0-2.2 1.8-4 4-4z"/><path class="st2" d="M12 108c0 2.2 1.8 4 4 4h96c2.2 0 4-1.8 4-4v-44h-104v44z"/><path class="st3" d="M112 108h-96c-2.2 0-4-1.8-4-4v4c0 2.2 1.8 4 4 4h96c2.2 0 4-1.8 4-4v-4c0 2.2-1.8 4-4 4z"/><path class="st4" d="M57.8 76.1h-9.8c4.6-5.6 12.9-12.8 12.9-20.1 0-6.7-5.3-10.9-11.9-10.9-6.6 0-12.6 5.3-12.6 11.9 0 2 1.3 3.8 3.9 3.8 5.1 0 2.2-8.5 8.4-8.5 2.2 0 3.9 1.9 3.9 4 0 1.9-.9 3.5-1.9 4.9-4.1 5.8-8.9 10.5-13.3 15.7-.5.6-1.2 1.6-1.2 2.7 0 2.4 1.8 3.5 4.2 3.5h17.9c2 0 3.9-1 3.9-3.5-.2-2.5-2.1-3.5-4.4-3.5zm28-13.7c2.8-1.8 4.2-4.6 4.2-7.9 0-4-3.5-9.4-10.9-9.4-5.7 0-11.2 4.3-11.2 8.4 0 1.9 1.2 3.8 3.3 3.8 3.5 0 2.8-5.1 7.7-5.1 2.3 0 3.7 1.5 3.7 3.5 0 5.7-7.3 2.1-7.3 7.5 0 6.1 8.7.8 8.7 8 0 2.7-2.2 4.8-4.8 4.8-5.8 0-5-6-8.5-6-1.8 0-3.9 1.4-3.9 3.5 0 4.1 4.7 9.7 12.3 9.7 7.3-.2 12.9-5.4 12.9-11.6 0-4.1-2.5-7.5-6.2-9.2z"/><path class="st5" d="M12 58c-1.1 0-2 .9-2 2v6c0 1.1.9 2 2 2s2-.9 2-2v-6c0-1.1-.9-2-2-2zm104 0c-1.1 0-2 .9-2 2v6c0 1.1.9 2 2 2s2-.9 2-2v-6c0-1.1-.9-2-2-2z"/><path class="st6" d="M14 62h100v2h-100v-2z"/><path class="st7" d="M59 19h10c1.7 0 3 1.3 3 3s-1.3 3-3 3h-10c-1.7 0-3-1.3-3-3 0-1.6 1.3-3 3-3z"/><path class="st8" d="M50 62l-1.5 2h9.5l1.2-2h-9.2zM86.2 62h-10.8c-.1.3-.1.7-.1 1.1 0 .4 0 .7.1.9h13c-.8-.7-1.7-1.2-2.6-1.7l.4-.3z"/></svg>