<svg xmlns="http://www.w3.org/2000/svg" viewBox="0 0 128 128" enable-background="new 0 0 128 128"><style type="text/css">.st0{fill:#2D4552;} .st1{fill:#324D5B;} .st2{fill:#3F5E6D;} .st3{fill:#3DB39E;} .st4{fill:#EFC75E;} .st5{fill:#E4E7E7;} .st6{fill:#B6B9B9;} .st7{fill:#263A45;}</style><path class="st0" d="M56 86v30c0 2.2 1.8 4 4 4h18c2.2 0 4-1.8 4-4v-30h-26zm0 0h-8c4.4 0 8 3.6 8 8v-8z"/><path class="st1" d="M96 76v6c0 2.2-1.8 4-4 4h-62c-2.2 0-4-1.8-4-4v-6h70z"/><path class="st0" d="M4 20h12c2.2 0 4 1.8 4 4v10c0 2.2-1.8 4-4 4h-12c-2.2 0-4-1.8-4-4v-10c0-2.2 1.8-4 4-4z"/><path class="st2" d="M14 8h82c3.3 0 6 2.7 6 6v62h-88c-3.3 0-6-2.7-6-6v-56c0-3.3 2.7-6 6-6z"/><path class="st3" d="M87 56c2.8 0 5 2.2 5 5s-2.2 5-5 5-5-2.2-5-5 2.2-5 5-5z"/><path class="st0" d="M85 19c3.9 0 7 3.1 7 7s-3.1 7-7 7-7-3.1-7-7 3.1-7 7-7z"/><path class="st4" d="M71 56c2.8 0 5 2.2 5 5s-2.2 5-5 5-5-2.2-5-5 2.2-5 5-5z"/><path class="st5" d="M85 18c3.9 0 7 3.1 7 7s-3.1 7-7 7-7-3.1-7-7 3.1-7 7-7z"/><path class="st0" d="M102 30h8v28h-8v-28z"/><path class="st2" d="M120 24h2c3.3 0 6 2.7 6 6v28c0 3.3-2.7 6-6 6h-2c-3.3 0-10-6-10-6v-28s6.7-6 10-6z"/><path class="st6" d="M85 18c-.3 0-.7 0-1 .1v4.9c0 .6.4 1 1 1s1-.4 1-1v-4.9c-.3-.1-.7-.1-1-.1z"/><path class="st7" d="M56 102h26v4h-26zM56 110h26v4h-26zM56 86h26v4h-26zM54.9 90h1.1v-4h-8c3 0 5.5 1.6 6.9 4zM56 94h26v4h-26z"/><path class="st0" d="M26 76h70v4h-70z"/><path class="st5" d="M8 64h45c1.7 0 3-1.3 3-3s-1.3-3-3-3h-45v6z"/></svg>