<svg xmlns="http://www.w3.org/2000/svg" viewBox="0 0 128 128" enable-background="new 0 0 128 128"><style type="text/css">.st0{fill:#1E2E37;} .st1{fill:#324D5B;} .st2{fill:#BF392B;} .st3{fill:#85C6DC;} .st4{fill:#85281E;} .st5{fill:#E4E7E7;} .st6{fill:#E2574C;} .st7{fill:#E87970;} .st8{fill:#E0E3E4;} .st9{fill:#C0C8CB;} .st10{fill:#F4B459;} .st11{fill:#92D2E8;} .st12{fill:#CCD0D2;}</style><path class="st0" d="M96 96v7c0 2.8 2.2 5 4.9 5h8.1v-12h-13zm-77 12h8.1c2.7 0 4.9-2.2 4.9-5v-7h-13v12z"/><path class="st1" d="M105 96v16.3c0 3.7 3 6.7 6.6 6.7h3.7c3.7 0 6.6-3 6.6-6.7v-18.3l-16.9 2zm-99 16.3c0 3.7 3 6.7 6.6 6.7h3.7c3.7 0 6.6-3 6.6-6.7v-16.3l-16.9-2v18.3z"/><path class="st2" d="M63.6 9h.3c33.9 0 42.1 14.5 42.1 42h-84c0-27.5 8.3-42 41.6-42z"/><path class="st3" d="M63.7 14h.3c29.8 0 37 12.8 37 37h-74c0-24.2 7.3-37 36.7-37z"/><path class="st4" d="M64 85c20.4 0 37 3.8 37 8.5s-16.6 8.5-37 8.5-37-3.8-37-8.5 16.6-8.5 37-8.5z"/><path class="st2" d="M22.4 54l41.7-6 41.5 6c12.4 0 22.4 10.1 22.4 22.7v4.9c0 3.6-1.6 6.5-6.4 6.5h-115.2c-4.7-.1-6.4-3-6.4-6.6v-4.9c0-12.5 10-22.6 22.4-22.6z"/><path class="st5" d="M5.1 87h117.7c1.7 0 3.1 1.3 3.1 3 0 3.3-2.8 6-6.3 6h-111.3c-3.5 0-6.3-2.7-6.3-6 0-1.7 1.4-3 3.1-3z"/><path class="st6" d="M107.3 50.9s-11.6 4.6-17.7 24.9c0 0-3.4 11.2-11.2 11.2h-28.8c-7.8 0-11.2-11.2-11.2-11.2-6.1-20.3-17.6-24.7-17.6-24.7-4-1.6 0-4 0-4 16.2-9.2 43.2-8.1 43.2-8.1s26.9-1.2 43.3 8.1c0 0 3.7 2.1 0 3.8z"/><path class="st2" d="M42.8 74.4c.5 1.6 3.1 7.6 6.4 7.6h8.8v-38c-15.2 0-25.1 2.8-31 5.4 4.6 3.5 11.5 10.8 15.8 25zm27.2-30.4v38h7.9c3.4 0 5.9-6 6.4-7.6 4.2-14 11-21.4 15.6-25-5.7-2.6-15.3-5.3-29.9-5.4z"/><path class="st7" d="M62 39h4v48h-4v-48z"/><path class="st8" d="M18 63c-5 0-9 4-9 9s4 9 9 9 9-4 9-9-4-9-9-9zm92 0c-5 0-9 4-9 9s4 9 9 9 9-4 9-9-4-9-9-9z"/><path class="st9" d="M18 69c-1.7 0-3 1.3-3 3s1.3 3 3 3 3-1.3 3-3-1.4-3-3-3zm92 0c-1.7 0-3 1.3-3 3s1.3 3 3 3 3-1.3 3-3-1.3-3-3-3z"/><path class="st10" d="M108.3 49h-1.8c-2 0-3.6 1.5-3.6 3.5v1.7c0 1 2 1.7 4.4 1.7 2.5 0 4.4-.8 4.4-1.7v-1.7c.2-1.9-1.4-3.5-3.4-3.5zM21.3 49h-1.8c-2 0-3.6 1.5-3.6 3.5v1.7c0 1 2 1.7 4.4 1.7s4.4-.8 4.4-1.7v-1.7c.2-1.9-1.4-3.5-3.4-3.5z"/><path class="st11" d="M29.8 31.1c5-2.5 19.5-8.9 34-8.9 14.6 0 29.3 6.4 34.3 8.9-4.2-11.3-14-17.1-34.1-17.1h-.3c-19.8 0-29.6 5.8-33.9 17.1z"/><path class="st12" d="M110 65c3.9 0 7 3.1 7 7s-3.1 7-7 7-7-3.1-7-7 3.1-7 7-7m-92 0c3.9 0 7 3.1 7 7s-3.1 7-7 7-7-3.1-7-7 3.1-7 7-7m92-2c-5 0-9 4-9 9s4 9 9 9 9-4 9-9-4-9-9-9zm-92 0c-5 0-9 4-9 9s4 9 9 9 9-4 9-9-4-9-9-9z"/></svg>