<svg xmlns="http://www.w3.org/2000/svg" viewBox="0 0 128 128" enable-background="new 0 0 128 128"><style type="text/css">.st0{fill:#EFEFEF;} .st1{fill:#CCD0D2;} .st2{fill:#E2574C;} .st3{fill:#F4B459;}</style><path class="st0" d="M6 25h116c3.3 0 6 2.7 6 6v66c0 3.3-2.7 6-6 6h-116c-3.3 0-6-2.7-6-6v-66c0-3.3 2.7-6 6-6z"/><path class="st1" d="M112 43h-40c-2.2 0-4 1.8-4 4v6c0 2.2 1.8 4 4 4h40c2.2 0 4-1.8 4-4v-6c0-2.2-1.8-4-4-4zm-56 0h-40c-2.2 0-4 1.8-4 4v6c0 2.2 1.8 4 4 4h40c2.2 0 4-1.8 4-4v-6c0-2.2-1.8-4-4-4z"/><path class="st2" d="M93 69c5 0 9 4 9 9s-4 9-9 9-9-4-9-9 4-9 9-9z"/><path class="st3" d="M107 69c5 0 9 4 9 9s-4 9-9 9-9-4-9-9 4-9 9-9z"/><path class="st1" d="M57 70h-42c-1.7 0-3 1.3-3 3s1.3 3 3 3h42c1.7 0 3-1.3 3-3 0-1.6-1.3-3-3-3zm-18 10h-24c-1.7 0-3 1.3-3 3s1.3 3 3 3h24c1.7 0 3-1.3 3-3 0-1.6-1.3-3-3-3z"/></svg>