<svg xmlns="http://www.w3.org/2000/svg" viewBox="0 0 128 128" enable-background="new 0 0 128 128"><style type="text/css">.st0{fill:#2B414D;} .st1{fill:#475F6C;} .st2{fill:#EFC75E;} .st3{fill:#D7B354;}</style><path class="st0" d="M78.3 40.9l-38.6 17.5 31.2 68.8 16.8-14.2 21.7-3.2-31.1-68.9z"/><path class="st1" d="M49.7 41.6l38.6 17.5-31.2 68.9-16.8-14.3-21.8-3.2 31.2-68.9z"/><path class="st2" d="M114 50c0 3.7-5.3 6.8-6.1 10.3-.8 3.6 2.7 8.7 1.2 12-1.6 3.3-7.7 3.7-9.9 6.5s-1.2 9-4 11.3c-2.8 2.3-8.4-.1-11.6 1.5-3.2 1.6-4.9 7.6-8.4 8.4-3.4.8-7.5-3.8-11.1-3.8-3.6 0-7.7 4.6-11.1 3.8-3.5-.8-5.2-6.8-8.4-8.4-3.2-1.6-8.9.8-11.6-1.5-2.8-2.3-1.8-8.5-4-11.3-2.2-2.8-8.3-3.2-9.9-6.5-1.5-3.2 2-8.4 1.2-12-1-3.5-6.3-6.6-6.3-10.3 0-3.7 5.3-6.8 6.1-10.3.8-3.6-2.7-8.7-1.2-12 1.6-3.3 7.7-3.7 9.9-6.5s1.2-9 4-11.3c2.8-2.3 8.4.1 11.6-1.5 3.2-1.6 4.9-7.6 8.4-8.4 3.4-.8 7.5 3.8 11.1 3.8 3.6 0 7.7-4.6 11.1-3.8 3.5.8 5.2 6.8 8.4 8.4 3.2 1.6 8.9-.8 11.6 1.5 2.8 2.3 1.8 8.5 4 11.3 2.2 2.8 8.3 3.2 9.9 6.5 1.5 3.2-2 8.4-1.2 12 1 3.5 6.3 6.6 6.3 10.3z"/><path class="st3" d="M64 30c-11.1 0-20 9-20 20s9 20 20 20c11.1 0 20-9 20-20s-8.9-20-20-20zm0 29c-5 0-9-4-9-9s4-9 9-9 9 4 9 9-4 9-9 9zM64 14c-19.9 0-36 16.1-36 36s16.1 36 36 36 36-16.1 36-36-16.1-36-36-36zm0 66c-16.6 0-30-13.4-30-30s13.4-30 30-30 30 13.4 30 30-13.4 30-30 30z"/></svg>