<svg xmlns="http://www.w3.org/2000/svg" viewBox="0 0 128 128" enable-background="new 0 0 128 128"><style type="text/css">.st0{fill:#2B414D;} .st1{fill:#465765;} .st2{fill:#324D5B;} .st3{fill:#74868F;} .st4{fill:#516873;} .st5{fill:#67757D;}</style><path class="st0" d="M101 112c-3.3 0-6 2.7-6 6v4c0 3.3 2.7 6 6 6s6-2.7 6-6v-4c0-3.3-2.7-6-6-6zm-74 0c-3.3 0-6 2.7-6 6v4c0 3.3 2.7 6 6 6s6-2.7 6-6v-4c0-3.3-2.7-6-6-6z"/><path class="st1" d="M64 0c28.7 0 52 23.3 52 52v12c0 28.7-23.3 52-52 52s-52-23.3-52-52v-12c0-28.7 23.3-52 52-52z"/><path class="st2" d="M63.5 68.4c28 0 41.6 7.1 41.6 10.5v19.3c0 3.9-3.2 3.5-7.1 3.5h-68c-3.9 0-7.1.4-7.1-3.5v-19.3c0-3.3 12.6-10.5 40.6-10.5zM119 76v38.1c0 3.8-3.1 6.9-7 6.9h-96c-3.9 0-7-3.1-7-6.9v-38.1h110z"/><path class="st3" d="M63.5 72c28 0 41.5 7 41.5 10.4v19.1c0 3.8-3.2 3.5-7 3.5h-68c-3.9 0-7 .4-7-3.5v-19.1c0-3.2 12.5-10.4 40.5-10.4z"/><ellipse class="st2" cx="17" cy="73" rx="17" ry="17"/><ellipse class="st2" cx="111" cy="73" rx="17" ry="17"/><path class="st2" d="M68.5 43l2.7-2.7c1-1 1-2.5 0-3.5s-2.5-1-3.5 0l-2.7 2.7-2.7-2.7c-1-1-2.5-1-3.5 0s-1 2.5 0 3.5l2.8 2.7-2.8 2.8c-1 1-1 2.5 0 3.5s2.5 1 3.5 0l2.8-2.8 2.8 2.8c1 1 2.5 1 3.5 0s1-2.5 0-3.5l-2.9-2.8zm17-9c1.9 0 3.5-1.6 3.5-3.5s-1.6-3.5-3.5-3.5-3.5 1.6-3.5 3.5 1.6 3.5 3.5 3.5zm-41 18c-1.9 0-3.5 1.6-3.5 3.5s1.6 3.5 3.5 3.5 3.5-1.6 3.5-3.5-1.6-3.5-3.5-3.5zm41 0c-1.9 0-3.5 1.6-3.5 3.5s1.6 3.5 3.5 3.5 3.5-1.6 3.5-3.5-1.6-3.5-3.5-3.5zm-41-25c-1.9 0-3.5 1.6-3.5 3.5s1.6 3.5 3.5 3.5 3.5-1.6 3.5-3.5-1.6-3.5-3.5-3.5z"/><circle class="st4" cx="17" cy="73" r="11.7"/><circle class="st4" cx="111" cy="73" r="11.7"/><path class="st5" d="M23 101.5c0 2.9 1.9 3.4 4.5 3.5h73.1c2.6-.1 4.5-.5 4.5-3.5v-10.5h-82.1v10.5z"/></svg>