<svg xmlns="http://www.w3.org/2000/svg" viewBox="0 0 128 128" enable-background="new 0 0 128 128"><style type="text/css">.st0{fill:#324D5B;} .st1{fill:#F3F3F3;} .st2{fill:#F4B459;} .st3{fill:#476574;} .st4{fill:#E2574C;} .st5{fill:#3DB39E;} .st6{fill:#D1D6D8;} .st7{fill:#EFC75E;}</style><path class="st0" d="M99.9 121.2l-31.3-31.2 3.2-3.2c1.6-1.6 1.6-4.1 0-5.6-1.3-1.3-3.3-1.5-4.8-.6v-76.6c0-2.2-1.8-4-4-4s-4 1.8-4 4v76.5c-1.5-.9-3.5-.7-4.8.6-1.6 1.6-1.6 4.1 0 5.6l3.2 3.2-31.2 31.2c-1.6 1.6-1.6 4.1 0 5.6 1.6 1.6 4.1 1.6 5.6 0l27.2-27.1v18.4c0 2.2 1.8 4 4 4s4-1.8 4-4v-18.4l27.2 27.2c1.6 1.6 4.1 1.6 5.6 0 1.6-1.5 1.6-4 .1-5.6z"/><path class="st1" d="M124 14v82h-120v-82h120z"/><path class="st2" d="M124 96h-120c-2.2 0-4 1.8-4 4s1.8 4 4 4h120c2.2 0 4-1.8 4-4s-1.8-4-4-4zm-120-82h120c2.2 0 4-1.8 4-4s-1.8-4-4-4h-120c-2.2 0-4 1.8-4 4s1.8 4 4 4z"/><path class="st3" d="M46 34c-13.3 0-24 10.7-24 24s10.7 24 24 24 24-10.7 24-24h-24v-24z"/><path class="st4" d="M50 30c13.3 0 24 10.7 24 24 0-.1-24 0-24 0s.1-24 0-24z"/><path class="st5" d="M91 64c2.8 0 5 2.2 5 5s-2.2 5-5 5-5-2.2-5-5c0-2.7 2.2-5 5-5z"/><path class="st6" d="M86 46v4h22v-4h-22zm16 6h-16v4h16v-4zm-16 30h22v-4h-22v4z"/><path class="st4" d="M91 32c2.8 0 5 2.2 5 5s-2.2 5-5 5-5-2.2-5-5c0-2.7 2.2-5 5-5z"/><path class="st7" d="M4 104h120c2.2 0 4-1.8 4-4h-128c0 2.2 1.8 4 4 4zM124 6h-120c-2.2 0-4 1.8-4 4h128c0-2.2-1.8-4-4-4z"/></svg>