<svg xmlns="http://www.w3.org/2000/svg" viewBox="0 0 128 128" enable-background="new 0 0 128 128"><style type="text/css">.st0{fill:#EFEFEF;} .st1{fill:#E5E4E4;} .st2{fill:#E2574C;} .st3{fill:#D8544A;} .st4{fill:#E87970;} .st5{fill:#DCDCDC;} .st6{fill:#F4B459;} .st7{fill:#F7CB8B;} .st8{fill:#DE756C;}</style><path class="st0" d="M98 33.5v-20h.3c2.6 0 4.7-2 4.7-4.5s-2.1-4.5-4.7-4.5h-32.6c-2.6 0-4.7 2-4.7 4.5s2.1 4.5 4.7 4.5h.3v19.7c-18.1 6.3-31 23.6-31 43.8 0 25.7 20.8 46.5 46.5 46.5s46.5-20.8 46.5-46.5c0-19.9-12.5-36.8-30-43.5z"/><path class="st1" d="M82 17.5h-16v15.6c-18.1 6.4-31 23.7-31 43.9 0 25.7 20.8 46.5 46.5 46.5h.5v-106z"/><path class="st2" d="M74.1 68c18.4 0 39.6-17 44.8.1.9 2.9 1.1 6 1.1 9.2 0 21.7-17.5 39.3-39 39.3s-39-17.6-39-39.3c0-4.6.8-9 2.2-13.2 3.6-9.4 12.9 3.9 29.9 3.9z"/><path class="st3" d="M82 67.1c-2.7.5-5.3.9-7.9.9-17 0-26.3-13.3-29.9-3.9-1.5 4.1-2.2 8.5-2.2 13.2 0 21.7 17.5 39.3 39 39.3h1v-49.5z"/><path class="st4" d="M90.5 92.5c-3.6 0-6.5 2.9-6.5 6.5s2.9 6.5 6.5 6.5 6.5-2.9 6.5-6.5-2.9-6.5-6.5-6.5zm1-9c1.9 0 3.5-1.6 3.5-3.5s-1.6-3.5-3.5-3.5-3.5 1.6-3.5 3.5 1.6 3.5 3.5 3.5zm13-1c-2.5 0-4.5 2-4.5 4.5s2 4.5 4.5 4.5 4.5-2 4.5-4.5-2-4.5-4.5-4.5zm3-14c-1.9 0-3.5 1.6-3.5 3.5s1.6 3.5 3.5 3.5 3.5-1.6 3.5-3.5-1.6-3.5-3.5-3.5z"/><path class="st5" d="M66 13.5h32v4h-32v-4z"/><path class="st0" d="M50 4.5h-46c-2.2 0-4 1.8-4 4v1c0 2.2 1.8 4 4 4v87.1c0 12.7 10.3 22.9 23 22.9s23-10.3 23-22.9v-87.1c2.2 0 4-1.8 4-4v-1c0-2.2-1.8-4-4-4z"/><path class="st5" d="M4 13.5h46v4h-46v-4z"/><path class="st6" d="M33.8 34.5c4.9 0 9.1 2.3 9.1 2.3v63.8c0 8.8-7.2 15.9-16 15.9s-16-7.1-16-15.9v-63.8s4.1 2.3 9.1 2.3 9.1-4.6 13.8-4.6z"/><path class="st7" d="M24 64.5c-3.3 0-6 2.7-6 6s2.7 6 6 6 6-2.7 6-6-2.7-6-6-6zm9.5-5c1.9 0 3.5-1.6 3.5-3.5s-1.6-3.5-3.5-3.5-3.5 1.6-3.5 3.5 1.6 3.5 3.5 3.5zm0 23c-2.5 0-4.5 2-4.5 4.5s2 4.5 4.5 4.5 4.5-2 4.5-4.5-2-4.5-4.5-4.5zm-11.5 12c-1.7 0-3 1.3-3 3s1.3 3 3 3 3-1.3 3-3c0-1.6-1.4-3-3-3z"/><ellipse class="st8" cx="69" cy="83.5" rx="8" ry="8"/></svg>