<svg xmlns="http://www.w3.org/2000/svg" viewBox="0 0 128 128" enable-background="new 0 0 128 128"><style type="text/css">.st0{fill:#E2574C;} .st1{fill:#D05046;} .st2{fill:#F0DDAB;} .st3{fill:#CCD0D2;} .st4{fill:#D8C69A;} .st5{fill:#BCC0C2;} .st6{fill:#AEB1B3;}</style><path class="st0" d="M16 8h96c4.4 0 8 3.6 8 8v104c0 4.4-3.6 8-8 8h-96c-4.4 0-8-3.6-8-8v-104c0-4.4 3.6-8 8-8z"/><path class="st1" d="M112 8h-96c-4.4 0-8 3.6-8 8v5c0-4.4 3.6-8 8-8h96c4.4 0 8 3.6 8 8v-5c0-4.4-3.6-8-8-8z"/><path class="st2" d="M26 22h76c2.2 0 4 1.8 4 4v84c0 2.2-1.8 4-4 4h-76c-2.2 0-4-1.8-4-4v-84c0-2.2 1.8-4 4-4z"/><path class="st3" d="M34 16h60c1.1 0 2 .9 2 2v8c0 3.3-2.7 6-6 6h-52c-3.3 0-6-2.7-6-6v-8c0-1.1.9-2 2-2z"/><path class="st4" d="M47 51h44c1.1 0 2-.9 2-2s-.9-2-2-2h-44c-1.1 0-2 .9-2 2s.9 2 2 2zm44 6h-44c-1.1 0-2 .9-2 2s.9 2 2 2h44c1.1 0 2-.9 2-2s-.9-2-2-2zm0 10h-44c-1.1 0-2 .9-2 2s.9 2 2 2h44c1.1 0 2-.9 2-2s-.9-2-2-2zm-52-20h-2c-1.1 0-2 .9-2 2s.9 2 2 2h2c1.1 0 2-.9 2-2s-.9-2-2-2zm0 10h-2c-1.1 0-2 .9-2 2s.9 2 2 2h2c1.1 0 2-.9 2-2s-.9-2-2-2zm0 10h-2c-1.1 0-2 .9-2 2s.9 2 2 2h2c1.1 0 2-.9 2-2s-.9-2-2-2zm52 10h-44c-1.1 0-2 .9-2 2s.9 2 2 2h44c1.1 0 2-.9 2-2s-.9-2-2-2zm0 10h-44c-1.1 0-2 .9-2 2s.9 2 2 2h44c1.1 0 2-.9 2-2s-.9-2-2-2zm-52-10h-2c-1.1 0-2 .9-2 2s.9 2 2 2h2c1.1 0 2-.9 2-2s-.9-2-2-2zm0 10h-2c-1.1 0-2 .9-2 2s.9 2 2 2h2c1.1 0 2-.9 2-2s-.9-2-2-2z"/><path class="st3" d="M51 0h26c3.3 0 6 2.7 6 6v10h-38v-10c0-3.3 2.7-6 6-6z"/><path class="st5" d="M32 18v4h64v-4c0-1.1-.9-2-2-2h-60c-1.1 0-2 .9-2 2z"/><path class="st6" d="M45 12h38v4h-38z"/></svg>