<svg xmlns="http://www.w3.org/2000/svg" viewBox="0 0 128 128" enable-background="new 0 0 128 128"><style type="text/css">.st0{fill:#324D5B;} .st1{fill:#DFE1E2;} .st2{fill:#BEBFC0;} .st3{fill:#E2574C;} .st4{fill:#C04A41;} .st5{fill:#E4E7E7;} .st6{fill:#CFD1D2;}</style><path class="st0" d="M64 0c35.3 0 64 28.7 64 64s-28.7 64-64 64-64-28.6-64-64c0-35.3 28.7-64 64-64z"/><path class="st1" d="M64 11c29.3 0 53 23.7 53 53s-23.7 53-53 53-53-23.7-53-53 23.7-53 53-53z"/><path class="st2" d="M62 58c4.4 0 8 3.6 8 8s-3.6 8-8 8-8-3.6-8-8 3.6-8 8-8z"/><path class="st3" d="M72.6 52.6l-32 32c-.8.8-.8 2.1 0 2.9.8.8 2.1.8 2.9 0l32-32c.8-.8.8-2.1 0-2.9-.8-.8-2.1-.8-2.9 0z"/><path class="st4" d="M66 59.1l-10.9 11c.7 1.2 1.7 2.2 2.9 2.9l10.9-11c-.7-1.2-1.7-2.2-2.9-2.9z"/><path class="st0" d="M64 62h32c1.1 0 2 .9 2 2s-.9 2-2 2h-32c-1.1 0-2-.9-2-2s.9-2 2-2zM50.4 45.1l16.5 16.5c1.5 1.5 1.5 3.8 0 5.3s-3.8 1.5-5.3 0l-16.5-16.5c-1.5-1.5-1.5-3.8 0-5.3 1.4-1.5 3.8-1.5 5.3 0z"/><path class="st5" d="M64 56c4.4 0 8 3.6 8 8s-3.6 8-8 8-8-3.6-8-8 3.6-8 8-8z"/><path class="st0" d="M64 60c2.2 0 4 1.8 4 4s-1.8 4-4 4-4-1.8-4-4 1.8-4 4-4z"/><path class="st6" d="M64 11c-15.7 0-29.7 6.8-39.4 17.6 9.4-8.4 21.8-13.6 35.4-13.6 29.3 0 53 23.7 53 53 0 13.6-5.1 26-13.6 35.4 10.8-9.7 17.6-23.7 17.6-39.4 0-29.3-23.7-53-53-53z"/></svg>