<svg xmlns="http://www.w3.org/2000/svg" viewBox="0 0 128 128" enable-background="new 0 0 128 128"><style type="text/css">.st0{fill:#3DB39E;} .st1{fill:#3AAA96;} .st2{fill:#EDEDED;} .st3{fill:#FFFFFF;} .st4{fill:#CCD0D2;} .st5{fill:#E1E1E1;} .st6{fill:#EFC75E;} .st7{fill:#CECDCB;} .st8{fill:#C3C3C1;}</style><path class="st0" d="M100 120c0 4.4-3.6 8-8 8h-56c-4.4 0-8-3.6-8-8v-66h72v66z"/><path class="st1" d="M28 58v62c0 4.4 3.6 8 8 8h28v-70h-36z"/><path class="st2" d="M49.7 0h28.6c3.1 0 5.7 2.6 5.7 5.7v28.6c0 3.2-2.6 5.7-5.7 5.7h-28.6c-3.2 0-5.7-2.6-5.7-5.7v-28.6c0-3.1 2.6-5.7 5.7-5.7z"/><path class="st3" d="M59.7 10h8.6c3.2 0 5.7 2.6 5.7 5.8v17.4c0 3.2-2.6 5.8-5.7 5.8h-8.6c-3.2 0-5.7-2.6-5.7-5.8v-17.4c0-3.2 2.6-5.8 5.7-5.8z"/><path class="st4" d="M64 14c1.7 0 3 1.3 3 3s-1.3 3-3 3-3-1.3-3-3c0-1.6 1.3-3 3-3z"/><path class="st2" d="M56.8 25h14.4c15.9 0 28.8 13 28.8 29h-72c0-16 12.9-29 28.8-29z"/><path class="st5" d="M64 25h-7.2c-15.9 0-28.8 13-28.8 29h36v-29z"/><path class="st6" d="M70.7 78s-1.9 2.2-3.7 4.9c2.9 4 5.7 8.6 5.7 11.7 0 1.2-.2 2.3-.5 3.4 3.3-.7 5.8-3.8 5.8-7.4 0-4.2-7.3-12.6-7.3-12.6zm-19.7 16.3c0 5.4 4.3 9.8 9.5 9.8 5.3 0 9.5-4.4 9.5-9.8s-9.5-16.3-9.5-16.3-9.5 10.9-9.5 16.3z"/><path class="st7" d="M100.1 52h-72.2c-1.6 0-2.9 1.3-2.9 3s1.3 3 2.9 3h72.2c1.6 0 2.9-1.3 2.9-3s-1.3-3-2.9-3zm-58.2-21h44.1c1.6 0 2.9-1.3 2.9-3s-1.3-3-2.9-3h-44.1c-1.6 0-2.9 1.3-2.9 3s1.3 3 2.9 3z"/><path class="st8" d="M41.9 31h22.1v-6h-22.1c-1.6 0-2.9 1.3-2.9 3s1.3 3 2.9 3zM27.8 58h36.2v-6h-36.1c-1.6 0-2.9 1.3-2.9 3 0 1.6 1.3 3 2.8 3z"/></svg>