<svg xmlns="http://www.w3.org/2000/svg" viewBox="0 0 128 128" enable-background="new 0 0 128 128"><style type="text/css">.st0{fill:#CCD0D2;} .st1{fill:#EFEFEF;} .st2{fill:#BF392B;} .st3{fill:#E2574C;} .st4{fill:#C64D41;} .st5{fill:#E5685E;} .st6{fill:#AC3327;}</style><path class="st0" d="M64 0c35.3 0 64 28.7 64 64s-28.7 64-64 64-64-28.6-64-64c0-35.3 28.7-64 64-64z"/><path class="st1" d="M64 5.9c32.1 0 58.1 26 58.1 58.1s-26 58.1-58.1 58.1-58.1-26-58.1-58.1 26-58.1 58.1-58.1z"/><path class="st0" d="M64 35c-16 0-29 13-29 29s13 29 29 29 29-13 29-29-13-29-29-29zm0 54c-13.8 0-25-11.2-25-25s11.2-25 25-25 25 11.2 25 25-11.2 25-25 25z"/><path class="st2" d="M98.9 29.1c2.2 2.2-24.4 40.9-26.7 43.1-2.2 2.2-40.9 28.9-43.2 26.7-2.2-2.2 24.5-41 26.7-43.1 2.2-2.2 40.9-29 43.2-26.7z"/><path class="st0" d="M64 16c-1.7 0-3 1.3-3 3s1.3 3 3 3 3-1.3 3-3c0-1.6-1.3-3-3-3zm0 90c-1.7 0-3 1.3-3 3s1.3 3 3 3 3-1.3 3-3-1.3-3-3-3zm45-45c-1.7 0-3 1.3-3 3s1.3 3 3 3 3-1.3 3-3c0-1.6-1.3-3-3-3zm-90 0c-1.7 0-3 1.3-3 3s1.3 3 3 3 3-1.3 3-3c0-1.6-1.3-3-3-3zm74.9 31.9c-1.2 1.2-1.2 3.1 0 4.3 1.2 1.2 3.1 1.2 4.3 0 1.2-1.2 1.2-3.1 0-4.3-1.2-1.2-3.1-1.2-4.3 0zm-64-62c-1.2 1.2-1.2 3.1 0 4.3 1.2 1.2 3.1 1.2 4.3 0 1.2-1.2 1.2-3.1 0-4.3-1.3-1.2-3.2-1.2-4.3 0z"/><path class="st3" d="M72.8 71.7c4.3-5.4 28.3-40.4 26.1-42.5-2.3-2.3-39.1 23.1-42.9 26.4l16.8 16.1z"/><path class="st4" d="M55.8 55.8c-2.1 2.1-28.4 40.1-26.7 43l69.7-69.7c-3.2-1.6-40.9 24.6-43 26.7z"/><path class="st5" d="M56 55.6l8.3 8 34.5-34.5c-3.1-1.6-39 23.3-42.8 26.5z"/><path class="st6" d="M63 60c2.8 0 5 2.2 5 5s-2.2 5-5 5-5-2.2-5-5 2.2-5 5-5z"/><path class="st2" d="M63 60c-2.8 0-5 2.2-5 5 0 1.3.5 2.6 1.4 3.5l7.1-7.1c-.9-.9-2.2-1.4-3.5-1.4z"/><path class="st1" d="M64 59c2.8 0 5 2.2 5 5s-2.2 5-5 5-5-2.2-5-5 2.2-5 5-5z"/></svg>