<svg xmlns="http://www.w3.org/2000/svg" viewBox="0 0 128 128" enable-background="new 0 0 128 128"><style type="text/css">.st0{fill:#CE5E55;} .st1{fill:#DE655B;} .st2{fill:#E66B62;} .st3{fill:#D4635A;} .st4{fill:#FFFFFF;} .st5{fill:#EBEBEB;}</style><path class="st0" d="M115.5 101h-103v11.8c0 8.4 23.1 15.2 51.5 15.2s51.5-6.8 51.5-15.2v-11.8z"/><path class="st1" d="M64 86c28.4 0 51.5 6.7 51.5 15s-23.1 15-51.5 15-51.5-6.7-51.5-15 23.1-15 51.5-15z"/><path class="st2" d="M96.8 95l-23.2-87.7c-1.1-4.3-5.1-7.3-9.5-7.3h-.2c-4.5 0-8.4 3-9.5 7.3l-23.2 87.7c-.2.5-.4.9-.4 1.4 0 5.5 14.9 10 33.2 10s33.2-4.5 33.2-10c0-.5-.1-.9-.4-1.4z"/><path class="st3" d="M36.8 96.4c0-.5.2-1 .4-1.4l23.2-87.7c.9-3.3 3.4-5.9 6.6-6.8-.9-.3-1.9-.5-2.9-.5h-.2c-4.5 0-8.4 3-9.5 7.3l-23.2 87.7c-.2.5-.4.9-.4 1.4 0 5.5 14.9 10 33.2 10h3c-16.9-.5-30.2-4.8-30.2-10z"/><path class="st4" d="M92 76.9l-6-22.7c-5.9 1.6-13.6 2.5-22 2.5s-16.2-.9-22-2.5l-6 22.7c5.9 2.8 16.2 4.6 28 4.6s22.1-1.9 28-4.6zM82.5 41l-5.4-20.4c-4 .7-8.5 1.1-13.1 1.1s-9.1-.4-13.1-1.1l-5.4 20.4c5.3 1.4 11.7 2.2 18.5 2.2s13.2-.8 18.5-2.2z"/><path class="st5" d="M45.5 41c1.8.5 3.7.9 5.7 1.2l5.5-20.8c-2-.2-3.9-.4-5.8-.7l-5.4 20.3zM47.7 55.4c-2-.3-3.9-.8-5.7-1.2l-6 22.7c1.5.7 3.4 1.4 5.5 2l6.2-23.5z"/></svg>