<svg xmlns="http://www.w3.org/2000/svg" viewBox="0 0 128 128" enable-background="new 0 0 128 128"><style type="text/css">.st0{fill:#3DB39E;} .st1{fill:#37A18E;} .st2{fill:#EBEDEE;} .st3{fill:#C6584E;} .st4{fill:#3E4E5C;} .st5{fill:#384653;} .st6{fill:#D3D5D6;}</style><path class="st0" d="M2.5 92.2l5.4-53.1c0-.4-.1-2.9-2.5-3-1 0-1.8-.9-1.7-1.9 0-1 .9-1.8 1.9-1.7 3.2.1 4.9 2.3 5.6 4.4l39.8-11.8c.9-.2 1.8.2 2.1 1 .2.5 12.3 49.3 57.1 49.3 7.9 0 14.8 7.4 15.8 13.9v.30000000000000004c.3 2.8-.5 6.6-2.3 9.1-44.3-.2-86.1.6-121.7.3l.5-6.8z"/><path class="st1" d="M124.5 97c.6-1.2 1.1-2.6 1.3-4h-123.4l-.3 4h122.4z"/><path class="st2" d="M32 43c-7.7 0-14 6.3-14 14s6.3 14 14 14 14-6.3 14-14-6.3-14-14-14z"/><path class="st3" d="M24.1 55c.1-.4.5-.7.9-.8l4.2-.6 1.8-3.9c.2-.4.6-.7 1-.7s.9.3 1 .7l1.8 3.9 4.2.6c.4.1.8.4.9.8.1.4 0 .9-.3 1.2l-3 3.1.7 4.4c.1.4-.1.9-.5 1.1-.2.2-.4.2-.6.2-.2 0-.4 0-.6-.1l-3.6-2-3.6 2c-.2.1-.4.1-.6.1-.2 0-.5-.1-.7-.2-.4-.3-.5-.7-.5-1.1l.7-4.4-3-3.1c-.3-.3-.4-.8-.2-1.2z"/><path class="st2" d="M61.4 53.3l2.8-2.8.2-.2c-.9-1.4-1.8-2.7-2.6-4.1-.4.1-.8.3-1.2.7l-2.8 2.8c-1 1-1 2.6 0 3.7 1 .9 2.6.9 3.6-.1zM66.6 53.8l-2.8 2.8c-1 1-1 2.6 0 3.7 1 1 2.6 1 3.6 0l2.8-2.8c-1.2-1.3-2.3-2.6-3.3-3.9-.1 0-.2.1-.3.2zM74.4 66.3l2.5-2.5c-1.4-1.1-2.6-2.2-3.9-3.4l-2.2 2.2c-1 1-1 2.6 0 3.7 1 1 2.6 1 3.6 0z"/><path class="st4" d="M93.8 98.6c-.5-2.4-.8-5-.8-7.6 0-6.4 1.7-12.3 4.7-17.1h.1l-3.5-.9c-3.3 4.9-5.3 11.2-5.3 18 0 2.6.3 5.2.9 7.6"/><path class="st2" d="M125.9 89.3c-.9-6.6-7.9-14-15.8-14-4.5 0-8.6-.5-12.5-1.4-2.9 4.8-4.6 10.7-4.6 17.1 0 2.6.3 5.2.8 7.6 9.8 0 19.7-.1 29.8-.1 1.8-2.5 2.7-6.3 2.3-9.1v-.1z"/><path class="st1" d="M6.3 99l6-62.4-1.2.4c-.7-2.2-2.4-4.3-5.6-4.4-1 0-1.8.7-1.9 1.7 0 1 .7 1.8 1.7 1.9 2.3.1 2.5 2.6 2.5 3l-5.3 53-.5 6.8h4.3z"/><path class="st5" d="M89.5 97h4c-.2-1.3-.4-2.6-.5-4h-4c.1 1.4.3 2.7.5 4z"/><path class="st6" d="M93.5 97h31c.6-1.2 1.1-2.6 1.3-4h-32.8c.1 1.4.3 2.7.5 4z"/><path class="st2" d="M124.7 95h-121.4c-1.8 0-3.3 1.4-3.3 3.2v1.6c0 1.8 1.5 3.2 3.3 3.2h121.4c1.8 0 3.3-1.4 3.3-3.2v-1.6c0-1.8-1.5-3.2-3.3-3.2z"/><path class="st6" d="M47 95h3.9v8h-3.9zM17 95h3.9v8h-3.9zM37 95h3.9v8h-3.9zM27 95h3.9v8h-3.9zM57 95h3.9v8h-3.9zM7 95h3.9v8h-3.9zM107 95h3.9v8h-3.9zM117 95h3.9v8h-3.9zM97 95h3.9v8h-3.9zM77 95h3.9v8h-3.9zM67 95h3.9v8h-3.9zM87 95h3.9v8h-3.9z"/></svg>