<svg xmlns="http://www.w3.org/2000/svg" viewBox="0 0 128 128" enable-background="new 0 0 128 128"><style type="text/css">.st0{fill:#EFC75E;} .st1{fill:#E4E7E7;} .st2{fill:#FDE6A9;} .st3{fill:#E3BD59;} .st4{fill:#D2D5D5;} .st5{fill:#DCB757;}</style><path class="st0" d="M118.2 14h-12v-4c0-5.5-4.5-10-10-10h-64c-5.5 0-10 4.5-10 10v4h-12c-3.3 0-6 2.7-6 6v12c0 3.9 2.4 8.4 6 12l13.3 10.3c4.2 16.3 17.8 28.9 34.7 31.3v10.4h-4c-3.3 0-6 2.7-6 6v2h-2c-3.3 0-6 2.7-6 6v2h48v-2c0-3.3-2.7-6-6-6h-2v-2c0-3.3-2.7-6-6-6h-4v-10.4c16.9-2.4 30.5-15 34.7-31.3l13.3-10.3c3.6-3.6 6-8.1 6-12v-12c0-3.3-2.7-6-6-6zm-104 25.5c-2.8-2.9-4-5.8-4-7.5v-12h12v25.7l-8-6.2zm104-7.5c0 1.7-1.2 4.6-4 7.5l-8.1 6.2v-25.7h12v12z"/><path class="st1" d="M28.2 112h72c3.3 0 6 2.7 6 6v4c0 3.3-2.7 6-6 6h-72c-3.3 0-6-2.7-6-6v-4c0-3.3 2.7-6 6-6z"/><path class="st2" d="M78.2 26.8l-6.9 7.2s-7-8-7.1-8c-.1 0-7 8-7 8l-6.9-7.1c-1-1.3-2-1.2-2-.1l2 17.1c0 1.1.9 2 2 2h24c1.1 0 2-.9 2-2l2-17c-.1-1.7-1.4-.8-2.1-.1zm-2 23.2h-24c-1.1 0-2 .9-2 2s.9 2 2 2h24c1.1 0 2-.9 2-2s-.9-2-2-2z"/><path class="st3" d="M48.5 100c-.2.6-.3 1.3-.3 2v2h32v-2c0-.7-.1-1.4-.3-2h-31.4zM40.5 108c-.2.6-.3 1.3-.3 2v2h48v-2c0-.7-.1-1.4-.3-2h-47.4z"/><path class="st4" d="M22.2 122c0 3.3 2.7 6 6 6h72c3.3 0 6-2.7 6-6v-2h-84v2z"/><path class="st5" d="M32.2 43.7v-33.7c0-5.5 4.5-10 10-10h-10c-5.5 0-10 4.5-10 10v33.7c0 23.4 18.8 42.3 42 42.3 1.7 0 3.4-.1 5-.3-20.9-2.5-37-20.3-37-42z"/></svg>