<svg xmlns="http://www.w3.org/2000/svg" viewBox="0 0 128 128" enable-background="new 0 0 128 128"><style type="text/css">.st0{fill:#BF392B;} .st1{fill:#CC6155;} .st2{fill:#D98880;} .st3{fill:#D4796E;}</style><path class="st0" d="M8 40l16-20c6.3-8 6.1-8 12-8h56c5.9 0 5.7 0 12 8l16 20c10.8 12 10.6 12 0 24l-44 44c-3.9 4-5.9 8-12 8s-8.1-4-12-8l-44-44c-10.6-12-10.8-12 0-24z"/><path class="st1" d="M96 60h-64l27.5 55c1.3.6 2.7 1 4.5 1 1.8 0 3.2-.3 4.4-.9l27.6-55.1zM127.9 52v-1.1c-.6-2.7-3.2-5.6-7.9-10.9l-16-20c-6.3-8-6.1-8-12-8h-28.1l32 48c.4-.4 32-8 32-8zM24 20l-16 20c-5.4 6-8 9-8 12 .3.1 31.6 7.6 32 8l32-48h-28c-5.9 0-5.7 0-12 8z"/><path class="st2" d="M32 60l32-48 32 48h-64z"/><path class="st3" d="M99.7 14.7c-2.4-2.7-3.6-2.7-7.7-2.7h-28l32 48 3.7-45.3zM28.3 14.8l3.7 45.2 32-48h-28c-4.1 0-5.2 0-7.7 2.8z"/></svg>