<svg xmlns="http://www.w3.org/2000/svg" viewBox="0 0 128 128" enable-background="new 0 0 128 128"><style type="text/css">.st0{fill:#E89C25;} .st1{fill:#CC8921;} .st2{fill:#D69022;} .st3{fill:#F8BEB6;} .st4{fill:#26A6D1;} .st5{fill:#53BCA9;} .st6{fill:#E2574C;} .st7{fill:#FFFFFF;} .st8{fill:#DAA7A0;}</style><path class="st0" d="M63.7-.5c-35.3 0-64 28.7-64 64s28.7 64 64 64 64-28.7 64-64c.1-35.3-28.6-64-64-64zm0 88c-13.3 0-24-10.7-24-24s10.7-24 24-24 24 10.7 24 24c.1 13.3-10.7 24-24 24z"/><path class="st1" d="M69.8 123.5c-36.4 0-65.9-29.5-65.9-65.9 0-11.3 2.8-21.9 7.8-31.1-7.5 10.4-11.9 23.2-11.9 37 0 35.3 28.7 64 64 64 13.9 0 26.7-4.4 37.1-11.9-9.3 5-19.9 7.9-31.1 7.9z"/><path class="st2" d="M63.7 34.5c-16 0-29 13-29 29s13 29 29 29 29-13 29-29-12.9-29-29-29zm0 53c-13.3 0-24-10.7-24-24s10.7-24 24-24 24 10.7 24 24c.1 13.3-10.7 24-24 24z"/><path class="st3" d="M127.3 71.4c.3-2.6.5-5.2.5-7.8 0-10.3-2.4-20-6.8-28.6-10.5-21-32.2-35.4-57.2-35.4-35.3 0-64 28.7-64 64l.1 3.9c2.7-.1 5.5-.3 8.1-.8 18-3.3 19.7-8.5 33.8-12.7 3.7-8.4 12.2-14.3 22-14.3 13.3 0 24 10.7 24 24v.6c11 6.2 35.6 7 39.5 7.1z"/><path class="st4" d="M26.3 37.6l-7.7 2.1c-1.4.4-2.2 2-1.8 3.6.4 1.6 1.9 2.6 3.3 2.2l7.7-2.1c1.4-.4 2.2-2 1.8-3.6-.4-1.6-1.9-2.6-3.3-2.2zm83.4 10.1c0-1.8-1.3-3.2-3-3.2s-3 1.4-3 3.2v7.6c0 1.8 1.3 3.2 3 3.2s3-1.4 3-3.2v-7.6z"/><path class="st5" d="M46.4 15.9c-1.3-.8-2.9-.4-3.6.9l-3.7 7.3c-.7 1.3-.2 3.1 1.1 3.9 1.3.8 2.9.4 3.6-.9l3.7-7.3c.6-1.3.2-3-1.1-3.9z"/><path class="st6" d="M90.1 30.2l7.3-4.2c1.3-.8 3.1-.3 3.9 1.1.8 1.4.3 3.1-1 3.9l-7.3 4.2c-1.3.8-3.1.3-3.9-1.1-.8-1.4-.3-3.2 1-3.9z"/><path class="st7" d="M72.8 22.2l-6.8-4.3c-1.2-.8-1.7-2.5-1-3.9s2.3-1.8 3.6-1l6.8 4.3c1.2.8 1.7 2.5 1 3.9-.7 1.3-2.3 1.7-3.6 1z"/><path class="st8" d="M92.6 66.3c.1-.9.1-1.8.1-2.8 0-16-13-29-29-29-13.4 0-24.7 9.1-28 21.5 1.8-.7 3.7-1.4 6-2.1 3.7-8.4 12.2-14.3 22-14.3 13.3 0 24 10.7 24 24v.6c1.5.7 3.1 1.5 4.9 2.1zM-.1 67.4l4.6-.3c-.5-3.1-.7-6.3-.7-9.6 0-11.3 2.8-21.9 7.8-31.1-1.8 2.6-3.5 5.3-4.9 8.1l-.1.3-.9 1.9-.2.4c-.9 1.9-1.7 3.9-2.4 5.9l-.3.9-.5 1.5c-.1.4-.2.8-.4 1.3l-.4 1.4-.4 1.6c-.1.4-.2.8-.3 1.1l-.5 2.7c-.1.3-.1.7-.1 1-.1.7-.2 1.3-.2 2l-.1 1.1c-.1.7-.1 1.4-.2 2 0 .3 0 .6-.1 1l-.1 3c0 .9 0 1.7.1 2.6.2.3.3.8.3 1.2z"/></svg>