<svg xmlns="http://www.w3.org/2000/svg" viewBox="0 0 128 128" enable-background="new 0 0 128 128"><style type="text/css">.st0{fill:#324D5B;} .st1{fill:#26A6D1;} .st2{fill:#AEC225;} .st3{fill:#2295BC;} .st4{fill:#9CAE21;}</style><path class="st0" d="M100.6 98.9c-.8-1.4-2.7-1.9-4.1-1.1-25.7 14.8-58.6 6.1-73.4-19.3-14.7-25.4-5.8-58.1 19.9-72.9 1.4-.8 1.9-2.7 1.1-4.1-.8-1.4-2.7-1.9-4.1-1.1-28.6 16.5-38.5 52.9-22.1 81.1 10.2 17.6 28.1 27.9 47.1 29.3v8.2h-11.5c-2.5 0-4.5 2-4.5 4.5s2 4.5 4.5 4.5h29c2.5 0 4.5-2 4.5-4.5s-2-4.5-4.5-4.5h-12.3.8v-8c9.7-.2 19.5-2.8 28.5-8 1.4-.9 1.9-2.7 1.1-4.1z"/><path class="st1" d="M70 4c26.5 0 48 21.5 48 48s-21.5 48-48 48-48-21.5-48-48 21.5-48 48-48z"/><path class="st2" d="M105.8 84c3.3-12.8 6.3-31.3-3.2-29.2-9.1 2-20.4 4.2-25.8 5-5.4.8-11.9-4.6-19.2-8.5-1-4.1-1.1-6.3 4.6-10.5 5.8-4.3 8.5 4.1 10.8 1.6 3.8-4.6 1.2-8.9 6.1-18.9 4.9-9.8 5.4-8.3 8.9-16-5.5-2.2-11.6-3.5-18-3.5-18.6 0-34.7 10.6-42.7 26 1.3 2.7 3.1 5.5 5.6 8.6 7.7 9.3 15.8 13.1 28.5 20.9 12.7 7.7 10.8 11.2 7.7 14.7-3.1 3.5-7.9 18.5 1.2 23.2l4.1 2.5c12.4-1.2 23.5-7.1 31.4-15.9z"/><path class="st3" d="M77 93c-26.5 0-48-21.5-48-48 0-11.5 4-22 10.7-30.3-10.8 8.9-17.7 22.3-17.7 37.3 0 26.5 21.5 48 48 48 15 0 28.5-6.9 37.3-17.7-8.3 6.7-18.8 10.7-30.3 10.7z"/><path class="st4" d="M105.9 83.3c-8 6.1-18 9.7-28.9 9.7-3.9 0-7.7-.5-11.3-1.4.7 2.4 2.2 4.4 4.6 5.7 1.6 1 2.9 1.8 4.1 2.5h.3l1.7-.2.7-.1 1.7-.3.6-.1c1.9-.4 3.8-.9 5.6-1.5l.6-.2c.5-.2 1-.3 1.4-.5l.9-.3 1.3-.6c.3-.1.6-.3 1-.4l1.2-.6 1-.5 1.1-.6 1.2-.7c.4-.2.7-.4 1.1-.7.6-.4 1.1-.8 1.7-1.1l.8-.6 1.2-.9.8-.6c.4-.3.8-.6 1.1-.9.2-.2.5-.4.7-.7l1.1-1c.2-.2.4-.4.7-.6l1.2-1.2.5-.5.1-.1c.1-.5.2-.8.2-1zM30.1 34.8c1.6-7.4 5-14.2 9.6-20l-.1.1c-.6.5-1.1.9-1.6 1.4l-.5.5c-.4.4-.9.8-1.3 1.3l-.6.6-1.2 1.2c-.2.2-.4.4-.6.7l-1.2 1.5c-.2.2-.4.5-.6.8l-.8 1-.8 1.1-.8 1.2c-.2.3-.4.6-.6 1l-.6.9-.9 1.6-.3.5c.9 1.4 1.8 2.9 2.9 4.6z"/></svg>