<svg xmlns="http://www.w3.org/2000/svg" viewBox="0 0 128 128" enable-background="new 0 0 128 128"><style type="text/css">.st0{fill:#F2F2F2;} .st1{fill:#EFC75E;} .st2{fill:#F4D88F;} .st3{fill:#DCB757;}</style><path class="st0" d="M109.9 96.3c-34.4 18.2-40 32.1-68 29.4-33.6-8-29.6-37.6-40.3-83.5-10.8-46 36.4-50.8 84.7-23 39.9 22.9 57.9 58.9 23.6 77.1z"/><path class="st1" d="M60 40c13.3 0 24 10.7 24 24s-10.7 24-24 24-24-10.7-24-24c0-13.2 10.8-24 24-24z"/><path class="st2" d="M66 52c3.3 0 6 2.7 6 6s-2.7 6-6 6-6-2.7-6-6 2.7-6 6-6z"/><path class="st3" d="M64 84c-13.3 0-24-10.7-24-24 0-5.6 1.9-10.8 5.2-14.8-5.6 4.4-9.2 11.2-9.2 18.8 0 13.3 10.7 24 24 24 7.6 0 14.5-3.6 18.8-9.2-4 3.3-9.2 5.2-14.8 5.2z"/></svg>