<svg xmlns="http://www.w3.org/2000/svg" viewBox="0 0 128 128" enable-background="new 0 0 128 128"><style type="text/css">.st0{fill:#E2574C;} .st1{fill:#B5463D;} .st2{fill:#208DB2;} .st3{fill:#DCBBB8;}</style><path class="st0" d="M45.2 126.2l-43.4-43.4c-2.4-2.4-2.4-6.3 0-8.7l72.3-72.3c2.4-2.4 6.3-2.4 8.7 0l43.4 43.4c2.4 2.4 2.4 6.3 0 8.7l-72.3 72.3c-2.4 2.4-6.3 2.4-8.7 0z"/><path class="st1" d="M53.9 126.2l11.7-11.7c-.3-.7-51.3-51.8-52.1-52.1l-11.7 11.7c-2.4 2.4-2.4 6.3 0 8.7l43.4 43.4c2.4 2.4 6.3 2.4 8.7 0z"/><path class="st2" d="M82.8 1.8c-2.4-2.4-6.3-2.4-8.7 0l-31.8 31.8 52.1 52.1 31.8-31.8c2.4-2.4 2.4-6.3 0-8.7l-43.4-43.4z"/><path class="st3" d="M58.943 121.124l-2.828 2.828-52.043-52.043 2.828-2.828z"/></svg>