<svg xmlns="http://www.w3.org/2000/svg" viewBox="0 0 128 128" enable-background="new 0 0 128 128"><style type="text/css">.st0{fill:#F1CD6E;} .st1{fill:#E8E4C8;} .st2{fill:#EFEFEF;} .st3{fill:#EFC75E;} .st4{fill:#D7B354;}</style><path class="st0" d="M106.2 14.5h-59c-1.5 0-3-1.4-3-1.4l-3.9-3s-2.3-1.6-3.3-1.6h-15.2c-3.7 0-6.8 3-6.8 6.8v28.5c0 3.7 3 6.8 6.8 6.8h84.5c3.7 0 6.8-3 6.8-6.8v-22.6c-.1-3.7-3.1-6.7-6.9-6.7z"/><path class="st1" d="M10.8 23.3h106.4v23.6h-106.4v-23.6z"/><path class="st2" d="M6.8 28.5h114.1v24l-114.1-.1v-23.9z"/><path class="st3" d="M6 33.5h116c3.3 0 6 2.7 6 6v74c0 3.3-2.7 6-6 6h-116c-3.3 0-6-2.7-6-6v-74c0-3.3 2.7-6 6-6z"/><path class="st4" d="M64 48.5c-14.9 0-27 12.1-27 27s12.1 27 27 27 27-12.1 27-27-12.1-27-27-27zm0 49c-12.1 0-22-9.8-22-22 0-12.1 9.8-22 22-22 12.1 0 22 9.8 22 22s-9.9 22-22 22zm1.6-32c-.9-1.4-2.2-1.4-3.1 0l-9.1 9.5c-.9 1.4-.2 2.5 1.6 2.5h4v7.4c0 .9.7 1.6 1.6 1.6h6.9c.9 0 1.6-.7 1.6-1.6v-7.4h4.1c1.7 0 2.4-1.1 1.6-2.5l-9.2-9.5z"/></svg>