<svg xmlns="http://www.w3.org/2000/svg" viewBox="0 0 128 128" enable-background="new 0 0 128 128"><style type="text/css">.st0{fill:#324D5B;} .st1{fill:#1D323D;} .st2{fill:#597583;} .st3{fill:#B8C4CB;} .st4{fill:#4F6B79;} .st5{fill:#2D4552;} .st6{fill:#3F5966;}</style><path class="st0" d="M127.6 83.4c-3-23.2-15.5-48.5-16-49.6-.2-.4-.6-.8-1-1l-1.9-.8-.6-2.2c0-.2-.1-.3-.2-.5s-1.4-2.7-5-4.1c-3.3-1.3-11.6-4.2-16.6-4.2-1.7 0-3.1.3-4 1-.7.3-3.7 3-6.6 3h-24c-2.8 0-5.9-2.6-6.6-3-1-.7-2.3-1-4-1-5 0-13.3 2.9-16.6 4.2-3.6 1.4-4.9 3.9-5 4.1-.1.1-.1.3-.2.5l-.6 2.3-1.4.8c-.4.2-.7.5-.9.9-.5 1.1-13 26.4-16 49.6-1.1 8.7.1 15.1 3.7 19.2 3.5 3.9 8.1 4.5 10 4.5h1.5c2.6 0 6.3-2 18.5-15.1 1.2-1.3 2.1-2 2.7-2.6 1.8-1.8 5.5-2.4 8.2-2.4h38.2c2.7 0 6.5.6 8.2 2.4.6.6 1.5 1.3 2.7 2.6 12.2 13.1 15.9 15.1 18.5 15.1h1.5c1.8 0 6.5-.5 10-4.5 3.4-4.1 4.6-10.6 3.5-19.2z"/><path class="st1" d="M111.6 33.8c-.2-.4-.6-.8-1-1l-1.9-.8-.6-2.2c0-.2-.1-.3-.2-.5s-1.4-2.7-5-4.1c-3.3-1.3-11.6-4.2-16.6-4.2-1.7 0-3.1.3-4 1-.7.3-3.7 3-6.6 3h-24c-2.8 0-5.9-2.6-6.6-3-1-.7-2.3-1-4-1-5 0-13.3 2.9-16.6 4.2-3.6 1.4-4.9 3.9-5 4.1-.1.1-.1.3-.2.5l-.6 2.3-1.4.8c-.4.2-.7.5-.9.9-.1.3-1.2 2.3-2.6 5.6l9.3-4.7c13.2-6.3 17.9-2.7 18.3-2.4.3.4 2.1 2.8 6.4 7 4.1 4.1 6 4.7 6.8 4.7h17.6c.9 0 2.8-.7 6.7-4.7 4.2-4.2 6-6.5 6.3-7 .5-.4 5.4-4.1 19.3 2.9-.2-.2 5.9 2.9 10 5-1.6-3.7-2.7-6.1-2.9-6.4z"/><path class="st2" d="M94.5 55c-1.9 0-3.5 1.6-3.5 3.5s1.6 3.5 3.5 3.5 3.5-1.6 3.5-3.5-1.6-3.5-3.5-3.5zm8-8c-1.9 0-3.5 1.6-3.5 3.5s1.6 3.5 3.5 3.5 3.5-1.6 3.5-3.5-1.6-3.5-3.5-3.5zm-16 0c-1.9 0-3.5 1.6-3.5 3.5s1.6 3.5 3.5 3.5 3.5-1.6 3.5-3.5-1.6-3.5-3.5-3.5zm8-8c-1.9 0-3.5 1.6-3.5 3.5s1.6 3.5 3.5 3.5 3.5-1.6 3.5-3.5-1.6-3.5-3.5-3.5z"/><path class="st3" d="M64 31c2.2 0 4 1.8 4 4s-1.8 4-4 4-4-1.8-4-4 1.8-4 4-4z"/><path class="st4" d="M56.6 71h-3.6v3.7c0 .8-.6 1.4-1.4 1.4h-3.2c-.8 0-1.4-.6-1.4-1.4v-3.7h-3.6c-.8 0-1.4-.6-1.4-1.4v-3.2c0-.8.6-1.4 1.4-1.4h3.6v-3.6c0-.8.6-1.4 1.4-1.4h3.2c.8 0 1.4.6 1.4 1.4v3.6h3.6c.8 0 1.4.6 1.4 1.4v3.2c0 .8-.6 1.4-1.4 1.4z"/><path class="st5" d="M76 58c5.5 0 10 4.5 10 10s-4.5 10-10 10-10-4.5-10-10 4.5-10 10-10z"/><path class="st4" d="M76 61c3.9 0 7 3.1 7 7s-3.1 7-7 7-7-3.1-7-7c0-3.8 3.1-7 7-7z"/><path class="st5" d="M32 40c5.5 0 10 4.5 10 10s-4.5 10-10 10-10-4.5-10-10 4.5-10 10-10z"/><path class="st4" d="M32 43c3.9 0 7 3.1 7 7s-3.1 7-7 7-7-3.1-7-7c0-3.8 3.1-7 7-7z"/><path class="st6" d="M76 64c2.2 0 4 1.8 4 4s-1.8 4-4 4-4-1.8-4-4 1.8-4 4-4zM32 46c2.2 0 4 1.8 4 4s-1.8 4-4 4-4-1.8-4-4 1.8-4 4-4z"/></svg>