<svg xmlns="http://www.w3.org/2000/svg" viewBox="0 0 128 128" enable-background="new 0 0 128 128"><style type="text/css">.st0{fill:#DB5449;} .st1{fill:#C54B42;} .st2{fill:#D05045;} .st3{fill:#BB483E;} .st4{fill:#EB6258;} .st5{fill:#EFEFEF;} .st6{fill:#E2574C;} .st7{fill:#DCDCDC;} .st8{fill:#D1D1D1;}</style><path class="st0" d="M4 34l60 30 60-30v64l-60 30-60-30v-64z"/><path class="st1" d="M4 40v18.7l59.8 29.3 60.2-29.4v-18.6l-60 29.4z"/><path class="st2" d="M64 128v-64l-56-28h-4v62l60 30z"/><path class="st3" d="M4 40v18.7l59.8 29.3.2-.1v-18.6.1z"/><path class="st4" d="M0 31.9l64-31.9 64 31.9v4.2l-64 31.9-64-31.8v-4.3z"/><path class="st5" d="M100.7 10.1c-2.1-3.8-6.6-6.1-11.9-6.1-12.1 0-20.6 11.3-24.8 18.5-4.2-7.2-12.8-18.4-24.8-18.4-7.7 0-13.2 4.7-13.2 11.1 0 11.4 12.5 18.8 37.6 18.8s38.4-9.5 38.4-18.7c0-1.8-.4-3.6-1.3-5.2zm-58.9 12.3c-2.8-1.9-3.8-4-3.8-5.4 0-1.7 1.6-3 3.9-3 5.4 0 9.7 7.1 12.1 12-6.3-.5-10-2.2-12.2-3.6zm44.4 0c-2.2 1.4-5.9 3.1-12.2 3.6 2.3-4.9 6.6-12 12.1-12 2.3 0 3.9 1.3 3.9 3 0 1.4-1 3.5-3.8 5.4z"/><path class="st6" d="M0 32l64 31.3 64-31.3v20.7l-64.2 31.3-63.8-31.3v-20.7z"/><path class="st5" d="M88 54.3v-2.3l-24-13-24 13v2.3l-16-7v-3.2l39.2-20.7.8.4.8-.4 39.2 20.6v3.2l-16 7.1z"/><path class="st7" d="M88 52v63.9l16-8v-63.9l-16 8z"/><path class="st8" d="M24 108l16 8v-63.9l-16-8.1z"/></svg>