<svg xmlns="http://www.w3.org/2000/svg" viewBox="0 0 128 128" enable-background="new 0 0 128 128"><style type="text/css">.st0{fill:#EFC75E;} .st1{fill:#DCB757;} .st2{fill:#C45B4B;} .st3{fill:#D07C40;} .st4{fill:#EFC2B3;} .st5{fill:#D7AEA1;} .st6{fill:#324D5B;} .st7{fill:#F4B459;}</style><path class="st0" d="M110 122c0 3.3-2.7 6-6 6h-88c-3.3 0-6-2.7-6-6v-16.7c0-16.7 13.6-30.3 30.3-30.3h39.4c16.7 0 30.3 13.6 30.3 30.3v16.7z"/><path class="st1" d="M17.9 105.4c0-17.3 13.8-31.3 31-31.3v-3.1h-7.8c-17.1 0-31.1 14-31.1 31.3v25.7h8v-22.6z"/><path class="st2" d="M87.4 107.5c1.5-.3 2.6-1.6 2.6-3.1 0-1.8-1.4-3.2-3.2-3.2-.9 0-1.8.4-2.4 1.1.1-.3.2-.7.2-1 0-1.8-1.4-3.2-3.2-3.2-1.7 0-3.2 1.4-3.2 3.2 0 .4.1.7.2 1-.6-.7-.7-1.3-1.5-1.3-1.6 0-4 1.6-4 3.4 0 1.6 1.1 2.9 2.6 3.1-1.5.3-2.6 1.6-2.6 3.1 0 1.8 1.4 3.2 3.2 3.2.9 0 1.8-.4 2.4-1.1-.1.3-.2.7-.2 1 0 1.8 1.4 3.2 3.2 3.2 1.7 0 3.2-1.4 3.2-3.2 0-.4-.1-.7-.2-1 .6.7 1.4 1.1 2.4 1.1 1.7 0 3.2-1.4 3.2-3.2-.1-1.5-1.2-2.8-2.7-3.1zm-5.9 2.5c-1.4 0-2.5-1.1-2.5-2.5s1.1-2.5 2.5-2.5 2.5 1.1 2.5 2.5-1.1 2.5-2.5 2.5z"/><path class="st3" d="M60 54c14.9 0 27 8.7 27 19.5s-12.1 19.5-27 19.5-27-8.7-27-19.5 12.1-19.5 27-19.5z"/><path class="st4" d="M60 12c16.6 0 30 13.4 30 30v12c0 16.6-13.4 30-30 30s-30-13.4-30-30v-12c0-16.6 13.4-30 30-30z"/><path class="st5" d="M60 84v-18c-1.7 0-3-1.3-3-3s1.3-3 3-3v-34h-25.4c-2.9 4.6-4.6 10.1-4.6 16v12c0 16.6 13.4 30 30 30z"/><path class="st6" d="M74.6 7.8c1.4-2.5 4.1-6.3 8.2-7.3 7.2-1.9 15.2 1.8 19.1 7.8 3.9 6 8.5 18.2 15.2 20.5 5.2 1.8-12.9 4.2-21.4-.9-5.7-3.4-8.6-10.3-12.8-10.9-1.5-.2-3.3.1-5 .6.1 1.1-3.5.6-4.3-.1-3.3-3.1-.8-5.7 1-9.7z"/><path class="st7" d="M74.5 12c3 0 5.5 2.5 5.5 5.5s-2.5 5.5-5.5 5.5-5.5-2.5-5.5-5.5 2.5-5.5 5.5-5.5z"/><path class="st6" d="M30 38c1.7 0 9.1-.4 16.3-7.7 3 3 4.6 7.6 13.7 7.6 1.9 0 13.7-4.6 16.6-4.6 6.9 0 11.9 3.2 13.4 4.3-2.3-14.5-14.9-25.6-30-25.6-15.2 0-27.8 11.3-30 26zM74.5 48c-1.9 0-3.5 1.6-3.5 3.5s1.6 3.5 3.5 3.5 3.5-1.6 3.5-3.5-1.6-3.5-3.5-3.5zm-29 0c-1.9 0-3.5 1.6-3.5 3.5s1.6 3.5 3.5 3.5 3.5-1.6 3.5-3.5-1.6-3.5-3.5-3.5zM74.5 48c-1.9 0-3.5 1.6-3.5 3.5s1.6 3.5 3.5 3.5 3.5-1.6 3.5-3.5-1.6-3.5-3.5-3.5zm-29 0c-1.9 0-3.5 1.6-3.5 3.5s1.6 3.5 3.5 3.5 3.5-1.6 3.5-3.5-1.6-3.5-3.5-3.5z"/></svg>