<svg xmlns="http://www.w3.org/2000/svg" viewBox="0 0 128 128" enable-background="new 0 0 128 128"><style type="text/css">.st0{fill:#CC9357;} .st1{fill:#D49D5E;} .st2{fill:#F6C37A;} .st3{fill:#E3B470;} .st4{fill:#93D3E8;} .st5{fill:#84BDD0;} .st6{fill:#DFF2F8;} .st7{fill:#C8D9DF;} .st8{fill:#3DB39E;} .st9{fill:#37A18E;} .st10{fill:#FFFFFF;}</style><path class="st0" d="M64 89.9h34.8s6.1 19 6.1 18.9c0 10.6-18.3 19.2-41 19.2-22.6 0-41-8.6-41-19.2l6.1-18.9h35z"/><path class="st1" d="M83.2 115.6c-6.7-7.3-16.4-13.4-21.1-10.5-2 1.2-3.7 4.6-.3 13.5 1 2.8 2.4 6 3.9 9.4.6 0 1.2 0 1.8-.1-1.4-3-2.8-6.3-4.1-9.9-2.3-6.1-2.4-10.2-.4-11.5 3.3-2.1 12.1 2.6 19.1 10.2 2.1 2.3 4 5 5.6 7.8.5-.2 1-.4 1.5-.5-1.8-3.2-3.8-6-6-8.4zM93 111.7c-5.6-6.5-13.3-9.7-19.4-12.3-2.5-1-4.6-1.9-6.2-2.9-4-2.4-6.4-4.6-7.3-6.6h-1.7c.8 2.7 3.5 5.3 8.2 8.1 1.7 1 3.9 1.9 6.4 3 8 3.3 18.8 7.8 23.5 19.6.5-.3 1-.6 1.4-.9-1.2-3-2.8-5.6-4.9-8zM79.1 92.5c3.9 3.5 8.9 4.6 12.3 2.8 2-1 3.3-3 3.7-5.5h-1.6c-.4 1.9-1.4 3.2-2.8 4-2.9 1.5-7.1.4-10.5-2.6-.5-.5-.9-.9-1.3-1.4h-2.1c.6.9 1.3 1.7 2.3 2.7zM70.5 112.6c-1.4-.1-2.1.6-2.4 1.2-1.5 2.6-.7 8.5 1.5 14l1.7-.1c-2.2-5.4-3-11-1.8-13.1.1-.1.2-.4.9-.4 2.8.1 9.1 5 13.7 11.3.6-.1 1.1-.3 1.7-.5-4.9-6.7-11.8-12.2-15.3-12.4zM100 109.3c-.1-.4-.5-.7-1-.6-.4.1-.7.5-.6 1l1.8 8.2c.5-.4 1-.9 1.4-1.3-.9-4.2-1.6-7.3-1.6-7.3zM96.5 101.5c-6.7 2.7-23.5-6.2-28.3-11.6h-2.1c.1.1.1.2.2.2 3.7 5.1 18.3 13.5 27.3 13.5 1.3 0 2.5-.2 3.6-.6 2.4-1 3.3-4.1 3.3-8.3-.9-2.8-1.6-4.8-1.6-4.8h-.4c.7 6.1.4 10.7-2 11.6zM77.2 125.7c-.4-.2-.9-.1-1.1.3-.2.4-.1.9.3 1.1.8-.1 1.6-.2 2.3-.4-.6-.4-1.1-.8-1.5-1zM78.7 122.4c-1.6-1.4-3.9-2.8-5.4-2.3-1.7.7-2.2 2.9-1.2 6.1.1.4.3.9.5 1.3l1.7-.2c-.3-.5-.5-1.1-.7-1.7-.7-2.1-.6-3.8.2-4.1.3-.1 1.6.1 3.8 2 1 .8 1.9 1.8 2.8 2.8l1.8-.4c-1.1-1.3-2.3-2.6-3.5-3.5zM51.7 96.5c-1-2.5-1.8-4.8-2.6-6.7h-1.8c.8 2 1.8 4.5 2.8 7.2 4.1 10.6 8.4 21.5 12.8 30.9h1.8c-5.1-10.9-9.8-23.1-13-31.4zM104.7 108.2c-.4-1.3-1.3-4-2.2-7 .2 2.3.4 4.7.6 7.1.1 1.9.3 3.7.5 5.5.7-1.2 1.1-2.5 1.3-3.8l-.2-1.8zM59.1 124.2c-3.1-5.9-6.3-12-7.7-15.7-.4-1-.7-2.1-1.1-3.2-1.5-4.6-3.5-10.1-6.8-15.3h-2c3.6 5.3 5.6 11.1 7.2 15.9.4 1.2.8 2.2 1.1 3.3 1.4 3.8 4.6 10 7.7 15.9.5.9 1 1.9 1.5 2.9.6 0 1.2.1 1.9.1-.4-1.3-1.1-2.6-1.8-3.9zM29.5 111.4c-1.5-2.7-3.1-5.2-4.9-7.6l-.6 1.9c1.4 2.1 2.8 4.2 4.1 6.5 2 3.6 4.1 6.8 6.2 9.8.9.5 1.9.9 3 1.3-2.7-3.5-5.3-7.4-7.8-11.9zM39.1 117.1l-1.7-2c-4.3-5-6.9-9.9-9.3-14.6l-1.4-2.7-.7 2.2c.2.4.4.8.7 1.3 2.5 4.8 5.1 9.8 9.6 14.9l1.7 2c2.2 2.5 4.4 5 6.5 7.4l2.7.6c-2.7-2.9-5.5-6-8.1-9.1zM41.7 109.9c.2.4.7.5 1.1.2.4-.2.5-.7.2-1.1l-9.5-14.8c-.6-1-1.7-2.6-2.6-4.3h-1.8c.9 1.4 1.9 3.1 3.2 5.1l9.4 14.9zM29.6 98.2c2.9 5.5 6 11.3 11.4 17.3 7.8 8.7 9.5 8.8 10.5 8.1 1-.6 1.5-2.1-3-11.4-2.3-4.7-3.9-8.9-5.4-12.7-1.5-3.8-2.7-7-4.3-9.7h-1.9c1.7 2.6 3 6 4.7 10.3 1.4 3.7 3.1 8 5.4 12.8 3.2 6.6 3.5 8.6 3.5 9.2-.6-.2-2.6-1.4-8.3-7.7-5.3-5.9-8.3-11.5-11.2-16.9-.9-1.7-1.8-3.4-2.7-5l-.7 2.1c.7 1.2 1.4 2.4 2 3.6zM23.1 108.7l-.1.2c0 3.7 2.3 7.2 6.2 10.2-1.8-3.6-3.8-7-6.1-10.4z"/><path class="st2" d="M52.6 111s5.7 1.3 11.4 1.3c5.8 0 11.5-1.3 11.5-1.3 1.4 0 2.5 1.2 2.5 2.6v2.6c0 1.4-1.1 2.6-2.5 2.6 0 0-5.8 1.3-11.5 1.3s-11.4-1.3-11.4-1.3c-1.4 0-2.5-1.2-2.5-2.6v-2.6c-.1-1.5 1.1-2.6 2.5-2.6z"/><path class="st3" d="M54 114c-.6 0-1 .4-1 1s.4 1 1 1 1-.4 1-1-.4-1-1-1zm20 0c-.6 0-1 .4-1 1s.4 1 1 1 1-.4 1-1-.4-1-1-1z"/><path class="st4" d="M64 0c28.7 0 52 23.3 52 52s-23.3 52-52 52-52-23.3-52-52 23.3-52 52-52z"/><path class="st5" d="M64 94c-27 0-49.2-20.6-51.8-47-.2 1.6-.2 3.3-.2 5 0 28.7 23.3 52 52 52s52-23.3 52-52c0-1.7-.1-3.4-.2-5-2.6 26.4-24.8 47-51.8 47z"/><path class="st6" d="M64 76c-19.9 0-36 5.9-36 13.2v.4c9.3 9 22 14.5 36 14.5s26.6-5.5 36-14.5v-.4c0-7.3-16.1-13.2-36-13.2z"/><path class="st7" d="M100 89.5v-.4c0-2.2-1.5-4.3-4.1-6.1-8.8 6.9-19.9 11-31.9 11s-23.1-4.1-31.9-10.9c-2.6 1.8-4.1 3.9-4.1 6.1v.4c9.3 9 22 14.5 36 14.5 14-.1 26.6-5.6 36-14.6z"/><path class="st8" d="M86 82.3c0 3.6-9.8 8.7-22 8.7s-22-5.1-22-8.7l22-30.3 22 30.3z"/><path class="st9" d="M77.7 70.9l-13.7-18.9-13.7 18.9c3 1.8 8 3.4 13.7 3.4 5.7 0 10.7-1.6 13.7-3.4z"/><path class="st8" d="M81 64.1c0 2.9-7.6 6.9-17 6.9s-17-4-17-6.9l17-24.1 17 24.1z"/><path class="st9" d="M73.8 54l-9.8-14-9.8 14c2.4 1.2 5.9 2.1 9.8 2.1s7.4-1 9.8-2.1z"/><path class="st8" d="M77 47.7c0 2.2-5.8 5.3-13 5.3s-13-3.1-13-5.3l13-18.7 13 18.7z"/><path class="st10" d="M45 26c-1.7 0-3 1.3-3 3s1.3 3 3 3 3-1.3 3-3c0-1.6-1.3-3-3-3zm11 9c-1.7 0-3 1.3-3 3s1.3 3 3 3 3-1.3 3-3c0-1.6-1.3-3-3-3zm17-20c1.7 0 3-1.3 3-3s-1.3-3-3-3-3 1.3-3 3 1.3 3 3 3zm14 37c-1.7 0-3 1.3-3 3s1.3 3 3 3 3-1.3 3-3c0-1.6-1.3-3-3-3zm-8.9 17.1c-1.4 0-2.5 1.1-2.5 2.6 0 1.4 1.1 2.6 2.5 2.6s2.5-1.1 2.5-2.6c0-1.4-1.1-2.6-2.5-2.6zm-38.1-13.1c-1.7 0-3 1.3-3 3s1.3 3 3 3 3-1.3 3-3c0-1.6-1.3-3-3-3zm-4-10c1.7 0 3-1.3 3-3s-1.3-3-3-3-3 1.3-3 3 1.3 3 3 3zm30 11c-1.7 0-3 1.3-3 3s1.3 3 3 3 3-1.3 3-3c0-1.6-1.3-3-3-3zm9-31c0-1.7-1.3-3-3-3s-3 1.3-3 3 1.3 3 3 3 3-1.3 3-3zm4 19c0-1.7-1.3-3-3-3s-3 1.3-3 3 1.3 3 3 3 3-1.3 3-3zm14 23c-1.7 0-3 1.3-3 3s1.3 3 3 3 3-1.3 3-3c0-1.6-1.3-3-3-3zm9-12c-1.7 0-3 1.3-3 3s1.3 3 3 3 3-1.3 3-3c0-1.6-1.3-3-3-3zm-36 24c-1.7 0-3 1.3-3 3s1.3 3 3 3 3-1.3 3-3c0-1.6-1.3-3-3-3zm-12-4c-1.7 0-3 1.3-3 3s1.3 3 3 3 3-1.3 3-3c0-1.6-1.3-3-3-3zm3-66c-1.7 0-3 1.3-3 3s1.3 3 3 3 3-1.3 3-3c0-1.6-1.3-3-3-3zm-31 43c-1.7 0-3 1.3-3 3s1.3 3 3 3 3-1.3 3-3c0-1.6-1.3-3-3-3zm62-19c0-1.7-1.3-3-3-3s-3 1.3-3 3 1.3 3 3 3 3-1.3 3-3zm-49-13c1.7 0 3-1.3 3-3s-1.3-3-3-3-3 1.3-3 3 1.3 3 3 3zm-5 46c-1.7 0-3 1.3-3 3s1.3 3 3 3 3-1.3 3-3c0-1.6-1.3-3-3-3zm-7-36c-1.7 0-3 1.3-3 3s1.3 3 3 3 3-1.3 3-3c0-1.6-1.3-3-3-3zm72 16c0 1.7 1.3 3 3 3s3-1.3 3-3-1.3-3-3-3-3 1.4-3 3zm2-13c0-1.7-1.3-3-3-3s-3 1.3-3 3 1.3 3 3 3 3-1.3 3-3zm-9-10c1.7 0 3-1.3 3-3s-1.3-3-3-3-3 1.3-3 3 1.3 3 3 3zM45 26c-1.7 0-3 1.3-3 3s1.3 3 3 3 3-1.3 3-3c0-1.6-1.3-3-3-3zm11 9c-1.7 0-3 1.3-3 3s1.3 3 3 3 3-1.3 3-3c0-1.6-1.3-3-3-3zm17-20c1.7 0 3-1.3 3-3s-1.3-3-3-3-3 1.3-3 3 1.3 3 3 3zm14 37c-1.7 0-3 1.3-3 3s1.3 3 3 3 3-1.3 3-3c0-1.6-1.3-3-3-3zm-8.9 17.1c-1.4 0-2.5 1.1-2.5 2.6 0 1.4 1.1 2.6 2.5 2.6s2.5-1.1 2.5-2.6c0-1.4-1.1-2.6-2.5-2.6zm-38.1-13.1c-1.7 0-3 1.3-3 3s1.3 3 3 3 3-1.3 3-3c0-1.6-1.3-3-3-3zm-4-10c1.7 0 3-1.3 3-3s-1.3-3-3-3-3 1.3-3 3 1.3 3 3 3zm30 11c-1.7 0-3 1.3-3 3s1.3 3 3 3 3-1.3 3-3c0-1.6-1.3-3-3-3zm9-31c0-1.7-1.3-3-3-3s-3 1.3-3 3 1.3 3 3 3 3-1.3 3-3zm4 19c0-1.7-1.3-3-3-3s-3 1.3-3 3 1.3 3 3 3 3-1.3 3-3zm14 23c-1.7 0-3 1.3-3 3s1.3 3 3 3 3-1.3 3-3c0-1.6-1.3-3-3-3zm9-12c-1.7 0-3 1.3-3 3s1.3 3 3 3 3-1.3 3-3c0-1.6-1.3-3-3-3zm-36 24c-1.7 0-3 1.3-3 3s1.3 3 3 3 3-1.3 3-3c0-1.6-1.3-3-3-3zm-12-4c-1.7 0-3 1.3-3 3s1.3 3 3 3 3-1.3 3-3c0-1.6-1.3-3-3-3zm3-66c-1.7 0-3 1.3-3 3s1.3 3 3 3 3-1.3 3-3c0-1.6-1.3-3-3-3zm-31 43c-1.7 0-3 1.3-3 3s1.3 3 3 3 3-1.3 3-3c0-1.6-1.3-3-3-3zm62-19c0-1.7-1.3-3-3-3s-3 1.3-3 3 1.3 3 3 3 3-1.3 3-3zm-49-13c1.7 0 3-1.3 3-3s-1.3-3-3-3-3 1.3-3 3 1.3 3 3 3zm-5 46c-1.7 0-3 1.3-3 3s1.3 3 3 3 3-1.3 3-3c0-1.6-1.3-3-3-3zm-7-36c-1.7 0-3 1.3-3 3s1.3 3 3 3 3-1.3 3-3c0-1.6-1.3-3-3-3zm72 16c0 1.7 1.3 3 3 3s3-1.3 3-3-1.3-3-3-3-3 1.4-3 3zm2-13c0-1.7-1.3-3-3-3s-3 1.3-3 3 1.3 3 3 3 3-1.3 3-3zm-9-10c1.7 0 3-1.3 3-3s-1.3-3-3-3-3 1.3-3 3 1.3 3 3 3z"/></svg>