<svg xmlns="http://www.w3.org/2000/svg" viewBox="0 0 128 128" enable-background="new 0 0 128 128"><style type="text/css">.st0{fill:#324D5B;} .st1{fill:#26A6D1;} .st2{fill:#208DB2;} .st3{fill:#E4E7E7;} .st4{fill:#EBEDED;}</style><path class="st0" d="M64 4c-30.9 0-56 25.1-56 56v20h6v-19.3c0-28 22.4-50.7 50-50.7s50 22.7 50 50.7v19.3h6v-20c0-30.9-25.1-56-56-56z"/><path class="st1" d="M20.4 74c-11.3 0-20.4 9-20.4 20s9.1 20 20.4 20c6.8 0 5.6-20 5.6-20s1.2-20-5.6-20zm86.5 0c-6.9 0-5.8 20-5.8 20s-1.4 20 5.8 20c11.7 0 21.1-9 21.1-20s-9.5-20-21.1-20z"/><path class="st2" d="M107 114c3.2 0 6.3-.7 9-2v-36c-2.7-1.2-5.8-2-9-2v40zM12 112.2c2.6 1.1 5.4 1.8 8.4 1.8.2 0 .4 0 .6-.1v-39.8l-.6-.1c-3 0-5.8.6-8.4 1.8v36.4z"/><path class="st3" d="M32 64c-6.6 0-12 5.4-12 12v36c0 6.6 5.4 12 12 12s12-5.4 12-12v-36c0-6.6-5.4-12-12-12zm64 0c-6.6 0-12 5.4-12 12v36c0 6.6 5.4 12 12 12s12-5.4 12-12v-36c0-6.6-5.4-12-12-12z"/><path class="st4" d="M44 112v-36c0-6.6-5.4-12-12-12v60c6.6 0 12-5.4 12-12zM84 76v36c0 6.6 5.4 12 12 12v-60c-6.6 0-12 5.4-12 12z"/></svg>