<svg xmlns="http://www.w3.org/2000/svg" viewBox="0 0 128 128" enable-background="new 0 0 128 128"><style type="text/css">.st0{fill:#E2574C;} .st1{fill:#D65348;} .st2{fill:#EFC75E;} .st3{fill:#E67067;}</style><path class="st0" d="M11.2 23.3c19-19.3 37.7-10.8 52.8 2.9 15-13.7 33.7-22.3 52.8-2.9 14.9 15.1 15 39.4 0 54.5-25.1 23-38.2 34.9-45.1 41.2-4.3 3.9-10.8 3.9-15.1 0-6.9-6.2-20.1-18.2-45.4-41.2-15-15-14.9-39.3 0-54.5z"/><path class="st1" d="M64 26.2v95.8c2.7 0 5.5-1 7.7-2.9 6.9-6.3 20-18.2 45.1-41.2 15-15.1 14.9-39.4 0-54.5-19.1-19.5-37.8-10.9-52.8 2.8z"/><path class="st2" d="M98 21c9-1 14-6 15-15 1 9 6 14 15 15-9 1-14 6-15 15-1-9-6-14-15-15z"/><path class="st3" d="M14 49.4c0-12.9 10.5-23.4 23.4-23.4 1.5 0 2.6 1.2 2.6 2.6 0 1.5-1.2 2.6-2.6 2.6-10 0-18.1 8.1-18.1 18.1 0 1.5-1.2 2.6-2.6 2.6-1.5.1-2.7-1.1-2.7-2.5z"/></svg>