<svg xmlns="http://www.w3.org/2000/svg" viewBox="0 0 128 128" enable-background="new 0 0 128 128"><style type="text/css">.st0{fill:#E4E7E7;} .st1{fill:#E2574C;} .st2{fill:#D95449;} .st3{fill:#E5685E;} .st4{fill:#EFEFEF;} .st5{fill:#E6E6E6;} .st6{fill:#F1F1F1;}</style><path class="st0" d="M112 62.1l-.3-4.1 2.6-2.6c11.5-11.5 11.5-30.3 0-41.7-11.5-11.5-30.2-11.5-41.7 0l-2.6 2.6c-1.3-.2-2.7-.3-4.1-.3l4.5-4.5c12.7-12.7 33.4-12.8 46.1 0 12.7 12.7 12.7 33.4 0 46.1l-4.5 4.5zm-53.9-45.7l-2.6-2.6c-11.5-11.5-30.3-11.5-41.7 0-11.6 11.4-11.6 30.2 0 41.7l2.6 2.6c-.2 1.3-.3 2.7-.3 4.1l-4.5-4.5c-12.7-12.7-12.8-33.4 0-46.1 12.7-12.7 33.4-12.7 46.1 0l4.5 4.5c-1.4 0-2.8.1-4.1.3zm-42.1 49.5l.3 4.1-2.6 2.6c-11.5 11.5-11.5 30.3-.1 41.7 11.5 11.5 30.2 11.5 41.7 0l2.6-2.6c1.3.2 2.7.3 4.1.3l-4.5 4.5c-12.7 12.7-33.4 12.8-46.1.1-12.7-12.7-12.7-33.4.1-46.1l4.5-4.6zm53.9 45.7l2.6 2.6c11.5 11.5 30.3 11.5 41.7 0 11.5-11.5 11.5-30.2-.1-41.7l-2.6-2.6c.2-1.3.3-2.7.3-4.1l4.5 4.5c12.7 12.7 12.8 33.4.1 46.1-12.7 12.7-33.4 12.7-46.1-.1l-4.5-4.5c1.4.1 2.8 0 4.1-.2z"/><path class="st1" d="M64 0c-35.3 0-64 28.7-64 64s28.6 64 64 64c35.3 0 64-28.7 64-64s-28.7-64-64-64zm0 96c-17.7 0-32-14.3-32-32s14.3-32 32-32 32 14.3 32 32-14.3 32-32 32z"/><path class="st2" d="M64 24.3c-21.9 0-39.7 17.8-39.7 39.7 0 21.9 17.8 39.7 39.7 39.7 21.9 0 39.7-17.8 39.7-39.7 0-21.9-17.8-39.7-39.7-39.7zm0 71.7c-17.7 0-32-14.3-32-32s14.3-32 32-32 32 14.3 32 32-14.3 32-32 32z"/><path class="st3" d="M64 9c-30.4 0-55 24.6-55 55s24.6 55 55 55 55-24.6 55-55-24.6-55-55-55zm0 106c-28.2 0-51-22.8-51-51s22.8-51 51-51 51 22.8 51 51-22.8 51-51 51z"/><path class="st4" d="M49.1 92.3c-5.8-3-10.5-7.8-13.5-13.5l-23.1 23.2c3.8 5.1 8.3 9.7 13.5 13.5l23.1-23.2zM78.8 35.6c5.8 3 10.5 7.7 13.5 13.5l23.2-23.1c-3.8-5.1-8.4-9.7-13.5-13.5l-23.2 23.1zM12.5 26l23.1 23.1c3-5.8 7.7-10.5 13.5-13.5l-23.1-23.1c-5.1 3.8-9.7 8.4-13.5 13.5zM115.5 102l-23.1-23.1c-3 5.8-7.7 10.5-13.5 13.5l23.1 23.1c5.1-3.8 9.7-8.4 13.5-13.5z"/><path class="st5" d="M84.5 30l-5.6 5.6c5.8 3 10.5 7.7 13.5 13.5l5.6-5.6c-3.4-5.5-8-10.2-13.5-13.5zM35.6 78.8l-5.6 5.7c3.3 5.5 8 10.1 13.5 13.5l5.6-5.6c-5.7-3.1-10.4-7.8-13.5-13.6zM78.9 92.4l5.6 5.6c5.5-3.3 10.1-8 13.5-13.5l-5.6-5.6c-3.1 5.7-7.8 10.4-13.5 13.5zM49.2 35.7l-5.7-5.7c-5.5 3.4-10.1 8-13.5 13.5l5.6 5.6c3.1-5.7 7.8-10.4 13.6-13.4z"/><path class="st6" d="M21.8 92.7l-2.9 2.9c3.7 5.2 8.2 9.8 13.5 13.5l2.9-2.9c-5.3-3.7-9.9-8.2-13.5-13.5zM106.2 92.7c-3.6 5.3-8.2 9.9-13.5 13.5l2.9 2.9c5.2-3.7 9.8-8.3 13.5-13.5l-2.9-2.9zM21.8 35.3c3.6-5.3 8.2-9.9 13.5-13.5l-2.8-2.8c-5.2 3.7-9.8 8.3-13.5 13.5l2.8 2.8zM106.2 35.3l2.9-2.9c-3.7-5.2-8.3-9.8-13.5-13.5l-2.9 2.9c5.3 3.6 9.8 8.2 13.5 13.5z"/></svg>