<svg xmlns="http://www.w3.org/2000/svg" viewBox="0 0 128 128" enable-background="new 0 0 128 128"><style type="text/css">.st0{fill:#D07C40;} .st1{fill:#F4B459;} .st2{fill:#FBE1BD;}</style><path class="st0" d="M119.4 0h-8.5v17.1h8.5c4.7 0 8.6-3.8 8.6-8.5s-3.8-8.6-8.6-8.6z"/><path class="st1" d="M23.2 0c-4.5 0-8.2 3.6-8.2 8.1v119.9h87.89999999999999-.2c4.5 0 8.2-3.6 8.2-8.1v-111.7c0-4.5 3.7-8.2 8.3-8.2h-96z"/><path class="st0" d="M94.8 120c0-4.4 3.7-8 8.2-8h-94.8c-4.5 0-8.2 3.6-8.2 8s3.7 8 8.2 8h94.8c-4.5 0-8.2-3.6-8.2-8z"/><path class="st2" d="M79.4 43.5c-1.2 0-3 1.2-3 3.2v23.6c0 2.1 1.8 3.2 3 3.2s3-1.2 3-3.2v-23.6c.1-2-1.8-3.2-3-3.2zm-19.8 3.4c-.7-2-2.2-3.4-4.3-3.4-2.1 0-3.6 1.5-4.3 3.4l-8.1 22.4c-.1.2-.3.7-.3 1.4 0 1.6 1.4 2.9 3 2.9 1.7 0 2.5-.9 2.9-2.2l1.2-3.8h11.2l1.2 3.9c.4 1.2 1.3 2.1 3 2.1 1.5 0 2.8-1.1 2.8-2.7 0-.3-.1-.9-.3-1.5l-8-22.5zm-8.2 15l3.8-11.9h.1l3.8 11.9h-7.7z"/></svg>