<svg xmlns="http://www.w3.org/2000/svg" viewBox="0 0 128 128" enable-background="new 0 0 128 128"><style type="text/css">.st0{fill:#E4E7E7;} .st1{fill:#3F5E6D;} .st2{fill:#4E6B78;} .st3{fill:#BFC3C5;}</style><path class="st0" d="M25 0h78c3.3 0 6 2.7 6 6v116c0 3.3-2.7 6-6 6h-78c-3.3 0-6-2.7-6-6v-116c0-3.3 2.7-6 6-6z"/><path class="st1" d="M27 18h74c1.1 0 2 .9 2 2v88c0 1.1-.9 2-2 2h-74c-1.1 0-2-.9-2-2v-88c0-1.1.9-2 2-2z"/><path class="st2" d="M73.3 58.4c-1.2-1.5-2.9-2.4-4.5-2.4-2.1 0-3 1-4.4 1-1.5 0-2.6-1-4.5-1-1.8 0-3.7 1.1-4.9 3-1.7 2.6-1.4 7.6 1.3 11.8 1 1.5 2.3 3.2 4 3.2 1.5 0 2-1 4-1 2.1 0 2.5 1 4 1 1.7 0 3.1-1.9 4.1-3.4.7-1.1 1-1.6 1.5-2.9-3.9-1.5-4.5-7.1-.6-9.3zm-5.5-4.3c.8-1 1.4-2.5 1.2-4-1.3.1-2.8.9-3.7 2-.8 1-1.5 2.5-1.2 3.9 1.4 0 2.9-.8 3.7-1.9z"/><path class="st3" d="M64 114c2.8 0 5 2.2 5 5s-2.2 5-5 5-5-2.2-5-5 2.2-5 5-5zM64 7c1.1 0 2 .9 2 2s-.9 2-2 2-2-.9-2-2 .9-2 2-2z"/></svg>