<svg xmlns="http://www.w3.org/2000/svg" viewBox="0 0 128 128" enable-background="new 0 0 128 128"><style type="text/css">.st0{fill:#324D5B;} .st1{fill:#2B424D;} .st2{fill:#253842;} .st3{fill:#313D43;} .st4{fill:#4BBFAA;} .st5{fill:#E4E7E7;} .st6{fill:#7F8C8D;} .st7{fill:#BDC3C7;} .st8{fill:#6C7778;} .st9{fill:#C2C5C5;}</style><path class="st0" d="M5.1 9h117.7c2.8 0 5.1 2.3 5.1 5.1v99.8c0 2.8-2.3 5.1-5.1 5.1h-117.7c-2.8 0-5.1-2.3-5.1-5.1v-99.8c0-2.8 2.3-5.1 5.1-5.1z"/><path class="st1" d="M0 55h128v12h-128z"/><path class="st2" d="M11 59h106v4h-106v-4z"/><path class="st3" d="M51.2 19h60.6c2.9 0 5.2 2.3 5.2 5.2v15.6c0 2.9-2.3 5.2-5.2 5.2h-60.6c-2.9 0-5.2-2.3-5.2-5.2v-15.6c0-2.8 2.3-5.2 5.2-5.2z"/><path class="st4" d="M98.2 39.7c-2.9 0-4-3.6-5.2-7.4-.8-2.5-1.9-6-3.2-6-1.3 0-2.4 3.4-3.1 6-1.2 3.8-2.3 7.4-5.2 7.4-2.9 0-4-3.6-5.2-7.4-.8-2.5-1.9-6-3.1-6-1.3 0-2.4 3.4-3.1 6-1.2 3.8-2.3 7.4-5.2 7.4-2.9 0-4-3.6-5.2-7.4-.8-2.5-1.9-6-3.1-6-.6 0-1.1-.4-1.1-1s.5-1 1.1-1c2.9 0 4 3.6 5.2 7.4.8 2.5 1.9 6 3.1 6 1.3 0 2.4-3.4 3.1-6 1.2-3.8 2.3-7.4 5.2-7.4 2.9 0 4 3.6 5.2 7.4.8 2.5 1.9 6 3.1 6 1.3 0 2.4-3.4 3.1-6 1.2-3.8 2.3-7.4 5.2-7.4 2.9 0 4 3.6 5.2 7.4.8 2.5 1.9 6 3.2 6 1.3 0 2.4-3.4 3.2-6 1.2-3.8 2.3-7.4 5.2-7.4.6 0 1.1.4 1.1 1s-.5 1-1.1 1c-1.3 0-2.4 3.4-3.2 6-1.2 3.8-2.3 7.4-5.2 7.4z"/><path class="st5" d="M66 91v-32h-8v49h13.1v-17h-5.1zm-19-32v32h-4v17h12v-49h-8zm-27 32v-32h-9s-.1 49 0 49h13v-17h-4zm62 0v-32h-5v32h-3v17h12v-17h-4zm-46 0v-32h-5v32h-4v17h13v-17h-4zm62 0v-32h-5v32h-4v17h13v-17h-4zm19-32h-8v32h-4v17h12v-49z"/><path class="st6" d="M23 88h5v-29h-5v29zm16 0h5v-29h-5v29zm30 0h5v-29h-5v29zm16 0h5v-29h-5v29zm16-29v29h5v-29h-5z"/><path class="st3" d="M23 21c7.2 0 13 5.8 13 13s-5.8 13-13 13-13-5.8-13-13 5.8-13 13-13z"/><path class="st5" d="M25 19c7.2 0 13 5.8 13 13s-5.8 13-13 13-13-5.8-13-13 5.8-13 13-13z"/><path class="st7" d="M23.1 19.2v9c0 .7.6 1.3 1.3 1.3.7 0 1.3-.6 1.3-1.3v-9.2h-.6c-.8 0-1.4.1-2 .2z"/><path class="st8" d="M101 59h5v4h-5zM23 59h5v4h-5zM85 59h5v4h-5zM39 59h5v4h-5zM69 59h5v4h-5z"/><path class="st9" d="M20 59h-9v4h9v-4zM55 59h-8v4h8v-4zM66 59h-8v4h8v-4zM36 59h-5v4h5v-4zM77 59v4h5v-4h-5zM117 59h-8v4h7.9v-4zM98 59h-5v4h5v-4z"/></svg>