<svg xmlns="http://www.w3.org/2000/svg" viewBox="0 0 128 128" enable-background="new 0 0 128 128"><style type="text/css">.st0{fill:#D07C40;} .st1{fill:#EFEFEF;} .st2{fill:#26A6D1;} .st3{fill:#EFC75E;} .st4{fill:#E8C15B;} .st5{fill:#D6D9DB;} .st6{fill:#E2574C;}</style><path class="st0" d="M0 51l64-38 64 38v56h-128v-56z"/><path class="st1" d="M14 3h100c2.2 0 4 1.8 4 4v70c0 2.2-1.8 4-4 4h-100c-2.2 0-4-1.8-4-4v-70c0-2.2 1.8-4 4-4z"/><path class="st2" d="M105.6 11l6.4-8h2c2.2 0 4 1.8 4 4v4h-12.4zm-52 0l6.4-8h14l-6.4 8h-14zm-43.6 0v-4c0-2.2 1.8-4 4-4h10l-6.4 8h-7.6z"/><path class="st3" d="M128 119c0 3.3-2.7 6-6 6h-116c-3.3 0-6-2.7-6-6v-68l64 28 64-28v68z"/><path class="st4" d="M128 119c0 3.3-2.7 6-6 6h-116c-3.3 0-6-2.7-6-6v-12l128-56v68z"/><path class="st5" d="M40.7 38.5l.8 4.2-6.4-10-9 14c-.1 1.3 5.7 2.3 12.9 2.3s13-1 13-2.3l-7.9-11.7-3.4 3.5zm.8-5.5c1.4 0 2.5-1.1 2.5-2.5s-1.1-2.5-2.5-2.5-2.5 1.1-2.5 2.5 1.1 2.5 2.5 2.5zm20.5-1h40c1.1 0 2-.9 2-2s-.9-2-2-2h-40c-1.1 0-2 .9-2 2s.9 2 2 2zm40 4h-40c-1.1 0-2 .9-2 2s.9 2 2 2h40c1.1 0 2-.9 2-2s-.9-2-2-2zm-10 8h-30c-1.1 0-2 .9-2 2s.9 2 2 2h30c1.1 0 2-.9 2-2s-.9-2-2-2z"/><path class="st6" d="M79.6 11l6.4-8h14l-6.4 8h-14zm-52 0l6.4-8h14l-6.4 8h-14z"/></svg>