<svg xmlns="http://www.w3.org/2000/svg" viewBox="0 0 128 128" enable-background="new 0 0 128 128"><style type="text/css">.st0{fill:#ECC45C;} .st1{fill:#F8D578;} .st2{fill:#D4B053;} .st3{fill:#E4E7E7;} .st4{fill:#324D5B;} .st5{fill:#CDCFCF;}</style><path class="st0" d="M17 50h94c4.4 0 8 3.6 8 8v62c0 4.4-3.6 8-8 8h-94c-4.4 0-8-3.6-8-8v-62c0-4.4 3.6-8 8-8z"/><path class="st1" d="M17 46h94c4.4 0 8 3.6 8 8v4c0 4.4-3.6 8-8 8h-94c-4.4 0-8-3.6-8-8v-4c0-4.4 3.6-8 8-8z"/><path class="st2" d="M29 52c-5 0-9 1.8-9 4s4 4 9 4 9-1.8 9-4-4-4-9-4zm70 0c-5 0-9 1.8-9 4s4 4 9 4 9-1.8 9-4-4-4-9-4zM64 82c8.3 0 15 6.7 15 15s-6.7 15-15 15-15-6.7-15-15 6.7-15 15-15z"/><path class="st3" d="M64 86c6.1 0 11 4.9 11 11s-4.9 11-11 11-11-4.9-11-11 4.9-11 11-11z"/><path class="st4" d="M64 92c1.1 0 2 .9 2 2v6c0 1.1-.9 2-2 2s-2-.9-2-2v-6c0-1.1.9-2 2-2z"/><path class="st3" d="M64 0c-23.2 0-42 18.8-42 42v12c0 2.2 3.1 4 7 4s7-1.8 7-4v-12c0-15.5 12.5-28 28-28s28 12.5 28 28v12c0 2.2 3.1 4 7 4s7-1.8 7-4v-12c0-23.2-18.8-42-42-42z"/><path class="st5" d="M64 8c-18.8 0-34 15.2-34 34v16c3.4-.3 6-1.9 6-4v-12c0-15.5 12.5-28 28-28s28 12.5 28 28v12c0 2 2.6 3.7 6 4v-16c0-18.8-15.2-34-34-34z"/></svg>