<svg xmlns="http://www.w3.org/2000/svg" viewBox="0 0 128 128" enable-background="new 0 0 128 128"><style type="text/css">.st0{fill:#E4E7E7;} .st1{fill:#C8CBCB;} .st2{fill:#36434F;} .st3{fill:#465765;} .st4{fill:#7E8A94;} .st5{fill:#EFC75E;}</style><path class="st0" d="M128 97v2c0 3.3-2.7 6-6 6h-116c-3.3 0-6-2.7-6-6v-2h128z"/><path class="st1" d="M55 95h18c1.7 0 3 1.3 3 3s-1.3 3-3 3h-18c-1.7 0-3-1.3-3-3 0-1.6 1.3-3 3-3z"/><path class="st2" d="M16 23h96c2.2 0 4 1.8 4 4v70h-104v-70c0-2.2 1.8-4 4-4z"/><path class="st3" d="M18 29h92v62h-92v-62z"/><path class="st4" d="M40 83h48c3.3 0 6 2.7 6 6v2h-60v-2c0-3.3 2.7-6 6-6z"/><path class="st0" d="M46 79c2.2 0 4 1.8 4 4s-1.8 4-4 4-4-1.8-4-4 1.8-4 4-4z"/><path class="st5" d="M58 79c2.2 0 4 1.8 4 4s-1.8 4-4 4-4-1.8-4-4 1.8-4 4-4z"/><path class="st0" d="M70 79c2.2 0 4 1.8 4 4s-1.8 4-4 4-4-1.8-4-4 1.8-4 4-4zM82 79c2.2 0 4 1.8 4 4s-1.8 4-4 4-4-1.8-4-4 1.8-4 4-4z"/></svg>