<svg xmlns="http://www.w3.org/2000/svg" viewBox="0 0 128 128" enable-background="new 0 0 128 128"><style type="text/css">.st0{fill:#324D5B;} .st1{fill:#2D4552;} .st2{fill:#3B5562;} .st3{fill:#354C58;} .st4{fill:#465765;} .st5{fill:#2B414D;} .st6{fill:#EFEFEF;} .st7{fill:#D07C40;}</style><path class="st0" d="M20 26.5v72.2c1.1 9.3 20.4 16.8 44 16.8s42.9-7.4 44-16.8h.1v-72.2h-88.1z"/><path class="st1" d="M20 64.4c11.5 4.4 27 7.2 44 7.2 17.1 0 32.5-2.7 44-7.2v-37.9h-88v37.9z"/><path class="st2" d="M57.3 115.3l-.3-54.5h-19.9v51c5.7 1.8 12.6 3 20.2 3.5z"/><path class="st3" d="M57.1 71.4l-.1-10.6h-19.9v8.4c6.2 1.2 12.9 1.9 20 2.2z"/><path class="st4" d="M64 14.5c35.3 0 64 11.6 64 26s-28.7 26-64 26-64-11.6-64-26 28.7-26 64-26z"/><path class="st5" d="M64 24.5c24.3 0 44 6.7 44 15s-19.7 15-44 15-44-6.7-44-15 19.7-15 44-15z"/><path class="st6" d="M94.8 13.1c1.4 1 1.6 2.9.6 4.3l-36.9 44.9c-1 1.3-3 1.6-4.3.6-1.4-1-1.6-2.9-.6-4.3l36.8-44.9c1.1-1.3 3-1.6 4.4-.6z"/><path class="st7" d="M58.4 52.7l5.2 3.4 27.2-33.1-5.2-3.3z"/></svg>