<svg xmlns="http://www.w3.org/2000/svg" viewBox="0 0 128 128" enable-background="new 0 0 128 128"><style type="text/css">.st0{fill:#F4F0D3;} .st1{fill:#E8E4C8;} .st2{fill:#EFC75E;} .st3{fill:#E3BD59;} .st4{fill:#E2574C;} .st5{fill:#FFFFFF;}</style><path class="st0" d="M100 114.4c5.5 2.4 20.7 9.3 26.1 11.5.6.3 2 .2 1.8-1.1-1.2-13-8.5-87.5-9.8-100.7-.2-1.9-.8-2.2-2.2-2.7-4.3-1.6-14.7-5.3-19-6.8-1.5-.6-2.4-.6-4 0-6.7 1.9-27.9 8.4-27.9 8.4s-22.1-6.7-29-8.6c-1.5-.5-2.3-.6-4 .1-4.4 1.4-14.6 5.2-19 6.8-1.8.7-2 1.5-2.2 2.7-1.4 12.9-9.4 87.7-10.8 100.8-.1 1.5 1.2 1.4 2.4 1 6-2.4 21.2-9 26.6-11.2 1.1-.5 2.2-.8 4 0 6.1 2.5 24 10.6 29.9 13 1.3.6 2.5.7 4 0 5.9-2.5 23.2-10.5 29-13.1 1.1-.6 2.8-.7 4.1-.1z"/><path class="st1" d="M34.7 14.1c-.8-.1-1.6 0-2.7.4-4.4 1.4-14.6 5.2-19 6.8-1.8.7-2 1.5-2.2 2.7-1.4 12.9-9.4 87.7-10.8 100.8-.1 1.5 1.2 1.4 2.4 1 6-2.4 21.2-9 26.6-11.2.8-.3 1.5-.6 2.6-.4l3.1-100.1zM94.4 14.1c-.4.1-.8.2-1.3.4-6.7 2-27.1 8.2-28 8.5v105c.6 0 1.3-.2 2-.5 5.9-2.5 23.2-10.5 29-13.1.4-.2.9-.3 1.4-.4l-3.1-99.9z"/><path class="st2" d="M46.7 120.5l17.5-17.5 17.8 17.8c3.7-1.7 7.3-3.4 10.2-4.7l-63.9-63.8 31-31c-3.2-1-7.4-2.2-11.4-3.4l-27 27-11.1-11.1c-.4 3.8-.9 8.4-1.4 13.5l48.4 48.4-20.3 20.3c2.8 1.2 6.5 2.8 10.2 4.5z"/><path class="st3" d="M33.7 46.9l.5-15.3-13.3 13.2-11.1-11c-.4 3.8-.9 8.4-1.4 13.5l24.6 24.6.4-14.5-5-5 5.3-5.5zM65 103.9l16.9 16.9c3.7-1.7 7.3-3.4 10.2-4.7l-27.1-27.1v14.9z"/><path class="st4" d="M80 0c16 0 29 13 29 29.1 0 .3-.1 7.8-2.6 13.1-5.9 13.7-20.1 28.2-24.8 32.9-1.2 1.1-1.7 1.3-3.2-.1-4.8-4.7-18.8-19-24.7-32.6-2.1-4-2.7-12.6-2.7-13.3 0-16.1 13-29.1 29-29.1z"/><path class="st5" d="M80 14c-8.3 0-15 6.7-15 15s6.7 15 15 15 15-6.7 15-15-6.7-15-15-15zm0 24c-5 0-9-4-9-9s4-9 9-9 9 4 9 9-4 9-9 9z"/></svg>