<svg xmlns="http://www.w3.org/2000/svg" viewBox="0 0 128 128" enable-background="new 0 0 128 128"><style type="text/css">.st0{fill:#487190;} .st1{fill:#4E80A6;} .st2{fill:#FAD29A;} .st3{fill:#D0A15D;} .st4{fill:#F6C37A;} .st5{fill:#E0B270;}</style><path class="st0" d="M15 0l26.6 82.7 33.3-9.3-23.6-73.4h-36.3z"/><path class="st1" d="M76.8 0l-23.7 73.3 33.2 9.3 26.7-82.6h-36.2z"/><path class="st2" d="M64 52c19.9 0 36 16.1 36 36s-16.1 36-36 36-36-16.1-36-36 16.1-36 36-36z"/><path class="st3" d="M64 124c-19.2 0-34.9-15-35.9-34l-.1 2c0 19.9 16.1 36 36 36s36-16.1 36-36c0-.7 0-1.3-.1-2-1 19-16.7 34-35.9 34z"/><path class="st4" d="M64 55.7c17.9 0 32.3 14.5 32.3 32.3 0 17.9-14.5 32.3-32.3 32.3s-32.3-14.4-32.3-32.3c0-17.8 14.4-32.3 32.3-32.3z"/><path class="st5" d="M74 80v-10h-20v10h5v16h-5v10h20v-10h-5v-16z"/></svg>