<svg xmlns="http://www.w3.org/2000/svg" viewBox="0 0 128 128" enable-background="new 0 0 128 128"><style type="text/css">.st0{fill:#F2F2F2;} .st1{fill:#415F6F;} .st2{fill:#E2574C;} .st3{fill:#638090;}</style><path class="st0" d="M118 47.8c0-26.4-21.5-47.8-48-47.8-22.6 0-41.6 15.6-46.6 36.6v.2c-.3 1.4-.6 2.7-.8 4.1-.4 2-1 4.2-1.7 5.3-3.7 6.4-10.2 17.6-10.2 17.6-1.2 2-.5 4.6 1.5 5.8l10 6v21.2c0 2.2 1.8 4 4 4h18.8v23c0 2.2 1.8 4.1 4 4.1l43-14.7c2.1-.7 4-1.8 4-4.1v-21.4c13-8.5 22-23.2 22-39.9z"/><path class="st1" d="M74.9 28.3c.1-.8.1-1.6 0-2.3l-2.3-.6-.6-2.6 1.7-1.7c-.3-.7-.7-1.4-1.2-2l-2.3.6-1.8-1.9.6-2.3c-.6-.4-1.3-.8-2-1.2l-1.6 1.7-2.5-.7-.6-2.3h-.2c-.7-.1-1.4-.1-2.2 0l-.6 2.3-2.5.7-1.7-1.7c-.7.3-1.4.7-2 1.2l.6 2.3-1.9 1.8-2.3-.6c-.4.6-.8 1.3-1.2 2l1.7 1.7-.7 2.5-2.3.5c-.1.8-.1 1.6 0 2.3l2.3.6.7 2.5-1.7 1.7c.3.7.7 1.4 1.2 2l2.3-.6 1.8 1.9-.6 2.3c.6.4 1.3.8 2 1.2l1.7-1.7 2.5.7.6 2.3h.2c.7.1 1.4.1 2.2 0l.6-2.3 2.5-.7 1.7 1.7c.7-.3 1.4-.7 2-1.1l-.6-2.3 1.9-1.8 2.3.6c.4-.6.8-1.3 1.2-2l-1.8-1.6.7-2.5 2.2-.6zm-12.1 5.5c-3.7 1-7.6-1.2-8.6-5-1-3.7 1.2-7.6 5-8.6 3.7-1 7.6 1.2 8.6 5 1 3.7-1.2 7.6-5 8.6z"/><path class="st2" d="M104.1 50.4l2.9-1c0-1 0-2-.2-3l-3-.6-1.1-3.2 2-2.3c-.5-.9-1-1.7-1.7-2.5l-2.9 1-2.5-2.2.6-3c-.9-.5-1.8-1-2.7-1.3l-2 2.3-3.3-.7-1-2.9c-1 0-2 0-3 .2l-.6 3-3.2 1.1-2.3-2c-.9.5-1.7 1-2.5 1.7l1 2.9-2.2 2.5-3-.6c-.5.9-1 1.8-1.3 2.7l2.3 2-.7 3.3-2.9 1c0 1 0 2 .2 3l3 .6 1.1 3.2-2 2.3c.5.9 1 1.7 1.7 2.5l2.9-1 2.5 2.2-.6 3c.9.5 1.8 1 2.7 1.3l2-2.3 3.3.7 1 2.9c1 0 2 0 3-.2l.6-3 3.2-1.1 2.3 2c.9-.5 1.7-1 2.5-1.7l-1-2.9 2.2-2.5 3 .6c.5-.9 1-1.8 1.3-2.7l-2.3-2 .7-3.3zm-15.1 7.6c-5 0-9-4-9-9s4-9 9-9 9 4 9 9-4 9-9 9z"/><path class="st3" d="M68.7 60.7c.2-.8.3-1.6.3-2.4l-2.3-1-.3-2.7 2-1.5c-.2-.8-.5-1.5-.9-2.2l-2.5.4-1.6-2.2 1-2.3-.1-.1c-.6-.5-1.2-1-1.8-1.4l-2 1.5-2.5-1-.3-2.4c-.8-.2-1.6-.3-2.4-.3l-.9 2.2-2.7.3-1.5-2c-.8.2-1.5.5-2.2.9l.3 2.4-2.2 1.6-2.3-1c-.6.6-1 1.2-1.5 1.9l1.5 2-1 2.6-2.4.3c-.2.8-.3 1.6-.3 2.4l2.3 1 .3 2.7-2 1.5c.2.8.5 1.5.9 2.2l2.4-.3 1.6 2.2-1 2.3.1.1c.6.5 1.2 1 1.8 1.4l2-1.5 2.5 1.1.3 2.4c.8.2 1.6.3 2.4.3l.9-2.2 2.7-.3 1.5 2c.8-.2 1.5-.5 2.2-.9l-.2-2.7 2.2-1.6 2.3 1c.6-.6 1-1.2 1.5-1.9l-1.5-2 1.1-2.5 2.3-.3zm-7-1.2c-1.1 4-5.2 6.4-9.2 5.3-4-1.1-6.4-5.2-5.3-9.2 1.1-4 5.2-6.4 9.2-5.3 4 1 6.4 5.2 5.3 9.2z"/></svg>