<svg xmlns="http://www.w3.org/2000/svg" viewBox="0 0 128 128" enable-background="new 0 0 128 128"><style type="text/css">.st0{fill:#2B8272;} .st1{fill:#4B9587;} .st2{fill:#359685;} .st3{fill:#53A697;} .st4{fill:#3DB39E;} .st5{fill:#81CEC0;}</style><path class="st0" d="M22.2 28.3l50.6-10c1.5-.3 2.9.7 3.2 2.1l19.8 94.4c.3 1.5-.7 2.9-2.1 3.2l-50.7 10c-1.5.3-2.9-.7-3.2-2.1l-19.7-94.4c-.3-1.5.6-2.9 2.1-3.2z"/><path class="st1" d="M75.5 47.2l-4.6-22.5c-.1-.7-.9-1.2-1.6-1.1l-42.8 8.5c-.7.1-1.2.9-1.1 1.6l4.6 22.5c.1.7.9 1.2 1.6 1.1.7-.1 1.2-.9 1.1-1.6l-4.3-21.2 40.1-8 4.3 21.2c.1.7.9 1.2 1.6 1.1.7-.2 1.2-.9 1.1-1.6z"/><path class="st2" d="M35.1 12.6l51.4-5c1.5-.1 2.8.9 3 2.4l12.3 100.8c.1 1.5-.9 2.8-2.4 2.9l-51.4 5c-1.5.1-2.8-.9-3-2.4l-12.3-100.8c-.1-1.4 1-2.8 2.4-2.9z"/><path class="st3" d="M84 13.8c-.1-.7-.7-1.3-1.5-1.2l-43.4 4.2c-.7.1-1.3.7-1.2 1.5l2.3 22.9c.1.7.7 1.3 1.5 1.2.7-.1 1.3-.7 1.2-1.5l-2.1-21.5 40.7-3.9 2.1 21.5c.1.7.7 1.3 1.5 1.2.7-.1 1.3-.7 1.2-1.5l-2.3-22.9z"/><path class="st4" d="M52.8 0h52.5c1.5 0 2.8 1.2 2.8 2.8v104.5c0 1.5-1.2 2.8-2.8 2.8h-52.5c-1.5 0-2.8-1.2-2.8-2.8v-104.5c0-1.6 1.2-2.8 2.8-2.8z"/><path class="st5" d="M59 55c0 11.1 9 20 20 20s20-9 20-20-9-20-20-20-20 9-20 20zm9.3-.5h1.5c.3-2.5 1.7-4.4 3.2-5.2.2-.1.5-.2.7-.2.8 0 1.4.6 1.4 1.3 0 .6-.3.9-.6 1.1-1.1 1.1-2 2.4-2 4.2 0 2.3.8 3.4 2.4 3.4 3.9 0 2.1-9.3 8.5-9.3 2.4 0 4.4 1.4 4.8 4.7h1.5c.7 0 1.3.5 1.3 1.2s-.6 1.2-1.3 1.2h-1.5c-.3 2-1.1 3.7-2.4 4.6-.2.2-.5.3-.9.3-.8 0-1.4-.6-1.4-1.4 0-.4.2-.7.6-1.1.8-.8 1.4-2.1 1.4-3.6 0-2.1-1-2.9-2.1-2.9-3.5 0-1.9 9.3-8.5 9.3-2.9 0-4.8-1.8-5.2-5.2h-1.5c-.7 0-1.3-.5-1.3-1.2.1-.7.7-1.2 1.4-1.2zm33.2 30.5c-.8 0-1.5.7-1.5 1.5v15.5h-42v-15.5c0-.8-.7-1.5-1.5-1.5s-1.5.7-1.5 1.5v17c0 .8.7 1.5 1.5 1.5h45c.8 0 1.5-.7 1.5-1.5v-17c0-.8-.7-1.5-1.5-1.5zm0-80h-45c-.8 0-1.5.7-1.5 1.5v17c0 .8.7 1.5 1.5 1.5s1.5-.7 1.5-1.5v-15.5h42v15.5c0 .8.7 1.5 1.5 1.5s1.5-.7 1.5-1.5v-17c0-.8-.7-1.5-1.5-1.5zm-25.5 84c0 1.7 1.3 3 3 3s3-1.3 3-3-1.3-3-3-3-3 1.4-3 3zm6-68c0-1.7-1.3-3-3-3s-3 1.3-3 3 1.3 3 3 3 3-1.3 3-3z"/></svg>