<svg xmlns="http://www.w3.org/2000/svg" viewBox="0 0 128 128" enable-background="new 0 0 128 128"><style type="text/css">.st0{fill:#E4E7E7;} .st1{fill:#2B414D;} .st2{fill:#324D5B;} .st3{fill:#E2574C;} .st4{fill:#F3B5B0;} .st5{fill:#CCD0D2;} .st6{fill:#26A6D1;}</style><path class="st0" d="M20 0h88c11 0 20 9 20 20v88c0 11-9 20-20 20h-88c-11 0-20-9-20-20v-88c0-11 9-20 20-20z"/><path class="st1" d="M20 8h88c6.6 0 12 5.4 12 12v66c0 6.6-5.4 12-12 12h-88c-6.6 0-12-5.4-12-12v-66c0-6.6 5.4-12 12-12z"/><path class="st2" d="M22 14h84c4.4 0 8 3.6 8 8v62c0 4.4-3.6 8-8 8h-84c-4.4 0-8-3.6-8-8v-62c0-4.4 3.6-8 8-8z"/><path class="st3" d="M29 106c3.9 0 7 3.1 7 7s-3.1 7-7 7-7-3.1-7-7 3.1-7 7-7z"/><path class="st4" d="M29 110c1.7 0 3 1.3 3 3s-1.3 3-3 3-3-1.3-3-3c0-1.6 1.3-3 3-3z"/><path class="st5" d="M51 108c-2.8 0-5 2.2-5 5s2.2 5 5 5 5-2.2 5-5-2.2-5-5-5zm16 0c-2.8 0-5 2.2-5 5s2.2 5 5 5 5-2.2 5-5-2.2-5-5-5zm16 0c-2.8 0-5 2.2-5 5s2.2 5 5 5 5-2.2 5-5-2.2-5-5-5zm16 0c-2.8 0-5 2.2-5 5s2.2 5 5 5 5-2.2 5-5-2.2-5-5-5z"/><path class="st6" d="M114 49h-12c-.9 0-1.7.5-2 1.4l-4.1 12-8.1-26c-.3-.8-1-1.4-1.9-1.4-.9-.1-1.7.5-2 1.3l-7.6 19.5-3.2-5.7c-.3-.7-1.1-1.1-1.8-1.1h-14c-.9 0-1.7.6-2 1.4l-4.1 12-8.2-26c-.3-.8-1-1.4-1.9-1.4-.9 0-1.7.5-2 1.3l-7.6 19.5-3.2-5.8c-.3-.7-1.1-.9-1.8-.9h-12.5v4h11.2l4.7 8.6c.4.7 1.1 1.1 1.9 1.1.8 0 1.5-.5 1.8-1.3l7.2-18.3 8.2 26.4c.3.8 1.1 1.4 1.9 1.4.8 0 1.7-.5 2-1.4l5.7-16.7h11.4l4.7 8.7c.4.7 1.1 1.1 1.9 1.1.8 0 1.5-.5 1.8-1.3l7.2-18.3 8.2 26.4c.3.8 1 1.4 1.9 1.4.9 0 1.7-.5 2-1.4l5.7-16.6h10.6v-3.9z"/></svg>