<svg xmlns="http://www.w3.org/2000/svg" viewBox="0 0 128 128" enable-background="new 0 0 128 128"><style type="text/css">.st0{fill:#349886;} .st1{fill:#EBEDEE;} .st2{fill:#3DB39E;} .st3{fill:#EFC75E;} .st4{fill:#324D5B;} .st5{fill:#D7B354;} .st6{fill:#2B424D;} .st7{fill:#E4E7E7;} .st8{fill:#CCD0D2;}</style><path class="st0" d="M27 4h84c7.7 0 14 6.3 14 14v92c0 7.7-6.3 14-14 14h-84c-7.7 0-14-6.3-14-14v-92c0-7.7 6.3-14 14-14z"/><path class="st1" d="M23 4h84c7.7 0 14 6.3 14 14v92c0 7.7-6.3 14-14 14h-84c-7.7 0-14-6.3-14-14v-92c0-7.7 6.3-14 14-14z"/><path class="st2" d="M17 2h84c7.7 0 14 6.3 14 14v96c0 7.7-6.3 14-14 14h-84c-7.7 0-14-6.3-14-14v-96c0-7.7 6.3-14 14-14z"/><path class="st3" d="M43 38h52v30h-52v-30z"/><path class="st4" d="M17 126h6v-124h-6c-7.7 0-14 6.3-14 14v96c0 7.7 6.3 14 14 14z"/><path class="st5" d="M51 46v4h32v-4h-32zm0 14h32v-4h-32v4z"/><path class="st6" d="M19 2h4v124h-4v-124z"/><path class="st7" d="M81 0h12c1.1 0 2 .9 2 2v124c0 1.1-.9 2-2 2h-12c-1.1 0-2-.9-2-2v-124c0-1.1.9-2 2-2z"/><path class="st8" d="M83 128h2v-128h-2v128zm6-128v128h2v-128h-2z"/></svg>