<svg xmlns="http://www.w3.org/2000/svg" viewBox="0 0 128 128" enable-background="new 0 0 128 128"><style type="text/css">.st0{fill:#324D5B;} .st1{fill:#3DB39E;} .st2{fill:#369D8B;} .st3{fill:#F2F1EF;} .st4{fill:#FFFFFF;}</style><path class="st0" d="M32 32h64c17.7 0 32 14.3 32 32s-14.3 32-32 32h-64c-17.7 0-32-14.3-32-32s14.3-32 32-32z"/><path class="st1" d="M32 40c13.3 0 24 10.7 24 24s-10.7 24-24 24-24-10.7-24-24c0-13.2 10.7-24 24-24z"/><path class="st2" d="M25 61c-2.2 0-4 1.8-4 4s1.8 4 4 4 4-1.8 4-4-1.8-4-4-4zm12 0c-2.2 0-4 1.8-4 4s1.8 4 4 4 4-1.8 4-4-1.8-4-4-4z"/><path class="st3" d="M81.2 56c-4.2 0-7.2 3.5-7.2 8s2.9 8 7.2 8c4.3 0 7.2-3.5 7.2-8-.1-4.4-3.1-8-7.2-8zm0 13c-2.6 0-3.9-2.3-3.9-5 0-2.6 1.3-5 3.9-5 2.6 0 3.9 2.4 3.9 5 0 2.7-1.3 5-3.9 5zm21.2-13c-.9 0-1.6.6-1.6 1.7v8.4l-6.8-9.3c-.4-.5-1-.8-1.4-.8-.9 0-1.6.6-1.6 1.7v12.5c0 1.1.7 1.7 1.6 1.7.9 0 1.6-.6 1.6-1.7v-8.2l6.8 9.2c.3.4.9.7 1.4.7.9 0 1.6-.6 1.6-1.7v-12.5c0-1.1-.7-1.7-1.6-1.7z"/><path class="st2" d="M36 84c-13.3 0-24-10.7-24-24 0-5.6 1.9-10.8 5.2-14.8-5.6 4.4-9.2 11.2-9.2 18.8 0 13.3 10.7 24 24 24 7.6 0 14.5-3.6 18.8-9.2-4 3.3-9.2 5.2-14.8 5.2z"/><path class="st4" d="M26 60c-2.2 0-4 1.8-4 4s1.8 4 4 4 4-1.8 4-4-1.8-4-4-4zm12 0c-2.2 0-4 1.8-4 4s1.8 4 4 4 4-1.8 4-4-1.8-4-4-4z"/></svg>