<svg xmlns="http://www.w3.org/2000/svg" viewBox="0 0 128 128" enable-background="new 0 0 128 128"><style type="text/css">.st0{fill:#C2C2C2;} .st1{fill:#DADADA;} .st2{fill:#EFEFEF;} .st3{fill:#D6D9DB;}</style><path class="st0" d="M24 37v-6h-18s-6 2.7-6 6v74.3c.2 6.5 5.5 11.6 12 11.6h12v-85.9z"/><path class="st1" d="M24 17h-6c-3.3 0-6 2.7-6 6v88c0 4.4-2.4 8.3-6 10.4 1.8 1 3.8 1.6 6 1.6h12v-106z"/><path class="st2" d="M122 5h-92c-2.9 0-6 3.3-6 6v100c0 6.6-5.4 12-12 12h104c6.6 0 12-5.4 12-12v-100c0-2.9-3.3-6-6-6z"/><path class="st3" d="M40 71h20c2.2 0 4-1.8 4-4v-22c0-2.2-1.8-4-4-4h-20c-2.2 0-4 1.8-4 4v22c0 2.2 1.8 4 4 4zm0-24c0-1.1.9-2 2-2h16c1.1 0 2 .9 2 2v18c0 1.1-.9 2-2 2h-16c-1.1 0-2-.9-2-2v-18zm74 47h-76c-1.1 0-2 .9-2 2s.9 2 2 2h76c1.1 0 2-.9 2-2s-.9-2-2-2zm0-16h-76c-1.1 0-2 .9-2 2s.9 2 2 2h76c1.1 0 2-.9 2-2s-.9-2-2-2zm0 8h-76c-1.1 0-2 .9-2 2s.9 2 2 2h76c1.1 0 2-.9 2-2s-.9-2-2-2zm0-29h-40c-1.1 0-2 .9-2 2s.9 2 2 2h40c1.1 0 2-.9 2-2s-.9-2-2-2zm0-16h-40c-1.1 0-2 .9-2 2s.9 2 2 2h40c1.1 0 2-.9 2-2s-.9-2-2-2zm0 24h-40c-1.1 0-2 .9-2 2s.9 2 2 2h40c1.1 0 2-.9 2-2s-.9-2-2-2zm0-48h-76c-1.1 0-2 .9-2 2v10c0 1.1.9 2 2 2h76c1.1 0 2-.9 2-2v-10c0-1.1-.9-2-2-2zm0 32h-40c-1.1 0-2 .9-2 2s.9 2 2 2h40c1.1 0 2-.9 2-2s-.9-2-2-2zm-10 53h-66c-1.1 0-2 .9-2 2s.9 2 2 2h66c1.1 0 2-.9 2-2s-.9-2-2-2z"/></svg>