<svg xmlns="http://www.w3.org/2000/svg" viewBox="0 0 128 128" enable-background="new 0 0 128 128"><style type="text/css">.st0{fill:#2B414D;} .st1{fill:#EBEDEE;} .st2{fill:#324D5B;} .st3{fill:#99A6AD;} .st4{fill:#2D4552;}</style><path class="st0" d="M28 2h80c7.7 0 14 6.3 14 14v96c0 7.7-6.3 14-14 14h-80c-7.7 0-14-6.3-14-14v-96c0-7.7 6.3-14 14-14z"/><path class="st1" d="M24 2h80c7.7 0 14 6.3 14 14v96c0 7.7-6.3 14-14 14h-80c-7.7 0-14-6.3-14-14v-96c0-7.7 6.3-14 14-14z"/><path class="st2" d="M20 0h78c7.7 0 14 6.3 14 14v100c0 7.7-6.3 14-14 14h-78c-7.7 0-14-6.3-14-14v-100c0-7.7 6.3-14 14-14z"/><path class="st3" d="M69.5 67.5h7c-2.7-3.6-6.9-6.5-11.7-7.6 1.9 2.1 3.5 4.7 4.7 7.6m2.5 11.4h8.8c-.2-3.3-1.1-6.4-2.7-9.2h-7.7c.9 2.9 1.4 6 1.6 9.2m-1.7 11.4h7.7c1.6-2.7 2.5-5.8 2.7-9.2h-8.7c-.2 3.3-.7 6.3-1.7 9.2m-.8 2.3c-1.2 2.8-2.8 5.5-4.7 7.6 4.8-1.1 9-4 11.7-7.6h-7zm-2.4 0h-5.9v8.2c2.3-2.2 4.4-5 5.9-8.2m2.6-11.5h-8.6v9.2h6.9c1-2.9 1.6-5.9 1.7-9.2m-1.7-11.4h-6.8v9.2h8.6c-.2-3.2-.8-6.3-1.8-9.2m-.9-2.2c-1.5-3.2-3.5-6-5.9-8.2v8.2h5.9zm-14.2 0h5.9v-8.2c-2.3 2.1-4.4 4.9-5.9 8.2m-2.6 11.4h8.6v-9.2h-6.9c-1 2.9-1.6 6-1.7 9.2m1.7 11.4h6.8v-9.2h-8.6c.2 3.3.8 6.3 1.8 9.2m.9 2.3c1.5 3.2 3.5 6 5.9 8.2v-8.2h-5.9zm-2.4 0h-7c2.7 3.6 6.9 6.5 11.7 7.6-1.9-2.2-3.5-4.8-4.7-7.6m-2.4-11.5h-8.8c.2 3.3 1.1 6.4 2.7 9.2h7.7c-1-2.9-1.5-5.9-1.6-9.2m1.6-11.4h-7.7c-1.6 2.7-2.5 5.8-2.7 9.2h8.8c.1-3.2.6-6.3 1.6-9.2m-6.2-2.2h7c1.2-2.8 2.8-5.5 4.7-7.6-4.8 1-9 3.9-11.7 7.6m-6.5 12.5c0-12.7 10.3-23 23-23s23 10.3 23 23-10.3 23-23 23-23-10.3-23-23"/><path class="st3" d="M95 25h-70c-.6 0-1 .4-1 1v4c0 .6.4 1 1 1h70c.6 0 1-.4 1-1v-4c0-.5-.4-1-1-1zm-10 12h-50c-.6 0-1 .4-1 1v4c0 .6.4 1 1 1h50c.6 0 1-.4 1-1v-4c0-.5-.4-1-1-1z"/><path class="st4" d="M20 0c-7.2 0-13.2 5.5-13.9 12.6-.1.4-.1.9-.1 1.4v100c0 4.8 2.4 8.9 6 11.5v-111.5c0-7.7 6.3-14 14-14h-6z"/></svg>