<svg xmlns="http://www.w3.org/2000/svg" viewBox="0 0 128 128" enable-background="new 0 0 128 128"><style type="text/css">.st0{fill:#E3BD59;} .st1{fill:#DAB555;} .st2{fill:#EFC75E;} .st3{fill:#F2D27E;} .st4{fill:#CAA648;}</style><path class="st0" d="M23.9 4.1l-19.8 19.8c-5.5 5.5-5.5 14.3 0 19.8l80.3 80.3c5.5 5.5 14.3 5.5 19.8 0l19.8-19.8c5.5-5.5 5.5-14.3 0-19.8l-80.4-80.3c-5.4-5.4-14.3-5.4-19.7 0z"/><path class="st1" d="M102.735 63.182l3.253 3.253-39.527 39.527-3.253-3.253zM25.276 64.758l-3.253-3.253 39.527-39.527 3.253 3.253z"/><path class="st2" d="M104.1 4.1l19.8 19.8c5.5 5.5 5.5 14.3 0 19.8l-80.3 80.3c-5.5 5.5-14.3 5.5-19.8 0l-19.7-19.8c-5.5-5.5-5.5-14.3 0-19.8l80.3-80.3c5.4-5.4 14.3-5.4 19.7 0z"/><path class="st3" d="M71.4 36.1l20.5 20.5c2.8 2.8 2.8 7.4 0 10.2l-25.1 25.1c-2.8 2.8-7.4 2.8-10.2 0l-20.5-20.5c-2.8-2.8-2.8-7.4 0-10.2l25.1-25.1c2.8-2.8 7.4-2.8 10.2 0z"/><path class="st4" d="M61.7 48.8c-1 1-1 2.6 0 3.5 1 1 2.6 1 3.5 0 1-1 1-2.6 0-3.5-.9-1-2.5-1-3.5 0zm-7 7c-1 1-1 2.6 0 3.5 1 1 2.6 1 3.5 0 1-1 1-2.6 0-3.5-.9-1-2.5-1-3.5 0zm-7 7c-1 1-1 2.6 0 3.5 1 1 2.6 1 3.5 0 1-1 1-2.6 0-3.5-.9-1-2.5-1-3.5 0zm21-7c-1 1-1 2.6 0 3.5 1 1 2.6 1 3.5 0 1-1 1-2.6 0-3.5-.9-1-2.5-1-3.5 0zm-7 7c-1 1-1 2.6 0 3.5 1 1 2.6 1 3.5 0 1-1 1-2.6 0-3.5-.9-1-2.5-1-3.5 0zm-7 7c-1 1-1 2.6 0 3.5 1 1 2.6 1 3.5 0 1-1 1-2.6 0-3.5-.9-1-2.5-1-3.5 0zm21-7c-1 1-1 2.6 0 3.5 1 1 2.6 1 3.5 0 1-1 1-2.6 0-3.5-.9-1-2.5-1-3.5 0zm-7 7c-1 1-1 2.6 0 3.5 1 1 2.6 1 3.5 0 1-1 1-2.6 0-3.5-.9-1-2.5-1-3.5 0zm-7 7c-1 1-1 2.6 0 3.5 1 1 2.6 1 3.5 0 1-1 1-2.6 0-3.5-.9-1-2.5-1-3.5 0zm33-61c-1 1-1 2.6 0 3.5 1 1 2.6 1 3.5 0 1-1 1-2.6 0-3.5-.9-1-2.5-1-3.5 0zm-7 7c-1 1-1 2.6 0 3.5 1 1 2.6 1 3.5 0 1-1 1-2.6 0-3.5-.9-1-2.5-1-3.5 0zm-7 7c-1 1-1 2.6 0 3.5 1 1 2.6 1 3.5 0 1-1 1-2.6 0-3.5-.9-1-2.5-1-3.5 0zm14 0c-1 1-1 2.6 0 3.5 1 1 2.6 1 3.5 0 1-1 1-2.6 0-3.5-.9-1-2.5-1-3.5 0zm17.6 0c-1-1-2.6-1-3.5 0-1 1-1 2.6 0 3.5 1 1 2.6 1 3.5 0 1-1 1-2.6 0-3.5zm-7 7c-1-1-2.6-1-3.5 0-1 1-1 2.6 0 3.5 1 1 2.6 1 3.5 0 1-1 1-2.6 0-3.5zm-10.6 7c-1 1-1 2.6 0 3.5 1 1 2.6 1 3.5 0 1-1 1-2.6 0-3.5-.9-1-2.5-1-3.5 0zm-65 37c-1 1-1 2.6 0 3.5 1 1 2.6 1 3.5 0 1-1 1-2.6 0-3.5-.9-1-2.5-1-3.5 0zm-7 7c-1 1-1 2.6 0 3.5 1 1 2.6 1 3.5 0 1-1 1-2.6 0-3.5-.9-1-2.5-1-3.5 0zm-7 7c-1 1-1 2.6 0 3.5 1 1 2.6 1 3.5 0 1-1 1-2.6 0-3.5-.9-1-2.5-1-3.5 0zm14 0c-1 1-1 2.6 0 3.5 1 1 2.6 1 3.5 0 1-1 1-2.6 0-3.5-.9-1-2.5-1-3.5 0zm14 0c-1 1-1 2.6 0 3.5 1 1 2.6 1 3.5 0 1-1 1-2.6 0-3.5-.9-1-2.5-1-3.5 0zm-7 7c-1 1-1 2.6 0 3.5 1 1 2.6 1 3.5 0 1-1 1-2.6 0-3.5-.9-1-2.5-1-3.5 0zm-7 7c-1 1-1 2.6 0 3.5 1 1 2.6 1 3.5 0 1-1 1-2.6 0-3.5-.9-1-2.5-1-3.5 0zm77-16c-1 1-1 2.6 0 3.5 1 1 2.6 1 3.5 0 1-1 1-2.6 0-3.5-.9-1-2.5-1-3.5 0zm-7-7c-1 1-1 2.6 0 3.5 1 1 2.6 1 3.5 0 1-1 1-2.6 0-3.5-.9-1-2.5-1-3.5 0zm-6.9 7c-1 1-1 2.6 0 3.5 1 1 2.6 1 3.5 0 1-1 1-2.6 0-3.5-1-1-2.6-1-3.5 0zm0 13.9c-1 1-1 2.6 0 3.5 1 1 2.6 1 3.5 0 1-1 1-2.6 0-3.5-1-.9-2.6-.9-3.5 0zm-7-7c-1 1-1 2.6 0 3.5 1 1 2.6 1 3.5 0 1-1 1-2.6 0-3.5-1-.9-2.6-.9-3.5 0zm-64.5-67.9c-1-1-2.6-1-3.5 0-1 1-1 2.6 0 3.5 1 1 2.6 1 3.5 0 1-1 1-2.6 0-3.5zm7 7c-1-1-2.6-1-3.5 0-1 1-1 2.6 0 3.5 1 1 2.6 1 3.5 0 1-1 1-2.6 0-3.5zm7-7c-1-1-2.6-1-3.5 0-1 1-1 2.6 0 3.5 1 1 2.6 1 3.5 0 1-1 1-2.6 0-3.5zm0-10.5c1-1 1-2.6 0-3.5-1-1-2.6-1-3.5 0-1 1-1 2.6 0 3.5.9 1 2.5 1 3.5 0zm7 3.5c-1-1-2.6-1-3.5 0-1 1-1 2.6 0 3.5 1 1 2.6 1 3.5 0 .9-1 .9-2.5 0-3.5z"/></svg>