<svg xmlns="http://www.w3.org/2000/svg" viewBox="0 0 128 128" enable-background="new 0 0 128 128"><style type="text/css">.st0{fill:#2394BC;} .st1{fill:#44A4C6;} .st2{fill:#1F85A9;} .st3{fill:#FFCABA;} .st4{fill:#FFDCD2;} .st5{fill:#E5B5A7;}</style><path class="st0" d="M125 37l-81.3 80.2s-41.6 12.4-43.5 10.5c-1.9-1.9 9.5-44.5 9.5-44.5l81.3-80.2c3.9-4 10.2-4 14.1 0l19.9 20c3.9 3.8 3.9 10.1 0 14z"/><path class="st1" d="M16.8 93.2l89.3-89.3-1-1c-3.9-3.9-10.2-3.9-14.1.1l-81.2 80.3s-.2.8-.6 2.2l7.6 7.7z"/><path class="st2" d="M127.3 33.7c1.4-3.6.7-7.9-2.2-10.8l-2-2-89.3 89.3 7.8 7.7c1.1-.3 1.8-.5 2.1-.6l83.6-83.6z"/><path class="st3" d="M.1 127.4l.6.6c4.7.7 40.8-10 43-10.7l.1-.1s-2.3-10.8-4.3-12.7c-2-2-10.7-2.3-12.7-4.2-2-2-2.2-10.7-4.3-12.7-2-2-12.2-4.1-12.7-4.2 0-.1-10.5 39-9.7 44z"/><path class="st4" d="M0 126.9c.7-1.2 4.2-7.4 22.4-39.3-2-2-12.2-4.1-12.7-4.2.1-.1-9.8 36.9-9.7 43.5z"/><path class="st5" d="M0 127v.3l.6.6c4.7.7 40.8-10 43-10.7l.1-.1s-2.2-10.7-4.2-12.7c-33.1 19-38.6 22.1-39.5 22.6z"/><path class="st0" d="M6.9 120.1c-1.3-1.3-3.4-2.3-5.5-2.5-1.1 5.6-1.8 9.7-1.2 10.3.5.5 4.3-.1 9.3-1.2 0-2.5-1.1-5.1-2.6-6.6z"/></svg>