<svg xmlns="http://www.w3.org/2000/svg" viewBox="0 0 128 128" enable-background="new 0 0 128 128"><style type="text/css">.st0{fill:#E4E7E7;} .st1{fill:#208DB2;} .st2{fill:#F3F3F3;} .st3{fill:#A3E0F5;} .st4{fill:#EFC75E;} .st5{fill:#3DB39E;} .st6{fill:#4BC2AD;}</style><path class="st0" d="M4.2 34.5l96.5-25.8c3-.8 6.2 1 7 4l19.1 70.9c.8 3-1 6.1-4.1 6.9l-96.5 25.8c-3 .8-6.2-1-7-4l-19-70.9c-.8-3 1-6.1 4-6.9z"/><path class="st1" d="M12.3 40.2l84.4-22.5c2.3-.6 4.7.8 5.4 3.1l15.8 58.7c.6 2.3-.8 4.7-3.1 5.3l-84.4 22.5c-2.3.6-4.7-.8-5.4-3.1l-15.8-58.7c-.7-2.3.7-4.7 3.1-5.3z"/><path class="st2" d="M21.7 33.5h100.5c3.2 0 5.7 2.6 5.7 5.7v74.5c0 3.2-2.6 5.7-5.7 5.7h-100.5c-3.2 0-5.7-2.6-5.7-5.7v-74.5c0-3.1 2.6-5.7 5.7-5.7z"/><path class="st3" d="M28.4 41.5h87.3c2.4 0 4.4 2 4.4 4.4v61.2c0 2.4-2 4.4-4.4 4.4h-87.3c-2.4 0-4.4-2-4.4-4.4v-61.2c0-2.4 1.9-4.4 4.4-4.4z"/><path class="st4" d="M24 45.9v21.4c1 .1 2 .2 3 .2 12.7 0 23-10.3 23-23 0-1-.1-2-.2-3h-21.4c-2.5 0-4.4 2-4.4 4.4z"/><path class="st5" d="M31.3 90.5c-2.5 0-5 .2-7.3.5v16.1c0 2.4 2 4.4 4.4 4.4h33.3c.2-.9.3-1.7.3-2.6 0-10.2-13.7-18.4-30.7-18.4z"/><path class="st6" d="M101 81.5c-27.4 0-49.7 13.4-50 30h64.6c2.4 0 4.4-2 4.4-4.4v-23.3c-5.9-1.4-12.3-2.3-19-2.3z"/></svg>