<svg xmlns="http://www.w3.org/2000/svg" viewBox="0 0 128 128" enable-background="new 0 0 128 128"><style type="text/css">.st0{fill:#D7AEA1;} .st1{fill:#EFC2B3;} .st2{fill:#CBA598;} .st3{fill:#A7877D;} .st4{fill:#F5DAD1;} .st5{fill:#324D5B;} .st6{fill:#95A3AA;} .st7{fill:#EFC75E;} .st8{fill:#D7B355;} .st9{fill:#E1B7A9;} .st10{fill:#BF9B8F;}</style><path class="st0" d="M76 107v11.2c0 2.1 1.7 3.7 3.7 3.7h5.6c2 0 3.7-1.7 3.7-3.7v-11.2h-13zm-37 11.3c0 2.1 1.7 3.7 3.7 3.7h5.6c2 0 3.7-1.7 3.7-3.7v-11.3h-13v11.3z"/><path class="st1" d="M82 80v41.2c0 3.8 3 6.9 6.8 6.9h3.4c3.8 0 6.8-3.1 6.8-6.9v-41.2h-17zm-53 41.2c0 3.8 3 6.9 6.8 6.9h3.4c3.8 0 6.8-3.1 6.8-6.9v-41.2h-17v41.2z"/><path class="st0" d="M29 106.9l17 6.7v-21.7l-17-8.4zM82 113.2l17-6.7v-23.5l-17 8.4z"/><path class="st1" d="M100 58.1l-8.2-31.5c-.4-1.6-2.5-2.1-3.5-.8l-13.8 16.1c-.3.3-.2.8.2 1.1l24.3 15.9c.5.3 1.1-.2 1-.8zm-60.3-32.4c-1.1-1.3-3.1-.8-3.5.8l-8.2 31.6c-.2.6.5 1.1 1.1.8l24.3-15.9c.4-.2.4-.8.2-1.1l-13.9-16.2z"/><path class="st2" d="M88.9 33.9c-.2-1-1.2-1.2-1.8-.5l-7 9.5c-.1.2-.1.5.1.6l12.3 9.5c.3.2.6-.1.5-.5l-4.1-18.6zm-48-.5c-.5-.7-1.6-.5-1.8.5l-4.1 18.6c-.1.4.3.7.5.5l12.3-9.4c.2-.1.2-.4.1-.6l-7-9.6z"/><path class="st1" d="M64 35c22.6 0 41 18.4 41 41s-18.4 41-41 41-41-18.4-41-41 18.4-41 41-41z"/><path class="st3" d="M65 99.2c-3.9 0-7 .4-7 2s3.1 4.9 7 4.9 7-3.3 7-4.9c0-1.7-3.1-2-7-2z"/><path class="st4" d="M64 70c-8.3 0-15 3.5-15 9.9 0 6.3 6.7 13.1 15 13.1s15-6.8 15-13.1c0-6.4-6.7-9.9-15-9.9z"/><path class="st2" d="M69 78c-1.7 0-3 1.3-3 3s1.3 3 3 3 3-1.3 3-3-1.3-3-3-3zm-10 0c-1.7 0-3 1.3-3 3s1.3 3 3 3 3-1.3 3-3-1.3-3-3-3z"/><path class="st5" d="M78.5 56c-2.5 0-4.5 2-4.5 4.5s2 4.5 4.5 4.5 4.5-2 4.5-4.5-2-4.5-4.5-4.5zm-28 0c-2.5 0-4.5 2-4.5 4.5s2 4.5 4.5 4.5 4.5-2 4.5-4.5-2-4.5-4.5-4.5z"/><path class="st6" d="M79.5 58c-.8 0-1.5.7-1.5 1.5s.7 1.5 1.5 1.5 1.5-.7 1.5-1.5-.7-1.5-1.5-1.5zm-28 0c-.8 0-1.5.7-1.5 1.5s.7 1.5 1.5 1.5 1.5-.7 1.5-1.5-.7-1.5-1.5-1.5z"/><path class="st7" d="M62.8 0h2.5c1 0 1.8.8 1.8 1.8v23.4c0 1-.8 1.8-1.8 1.8h-2.5c-1 0-1.8-.8-1.8-1.8v-23.4c0-1 .8-1.8 1.8-1.8z"/><path class="st8" d="M61 24h6v-3h-6v3zm0-6h6v-3h-6v3zm0-6h6v-3h-6v3zm0-9v3h6v-3h-6z"/><path class="st9" d="M34 76c0-20.8 15.5-37.9 35.5-40.6-1.8-.2-3.6-.4-5.5-.4-22.6 0-41 18.4-41 41s18.4 41 41 41c1.9 0 3.7-.1 5.5-.4-20-2.7-35.5-19.8-35.5-40.6z"/><path class="st10" d="M64 35c-1 0-2 0-3 .1v9c0 1.6 1.3 2.8 3 2.8 1.6 0 3-1.3 3-2.8v-9l-3-.1z"/></svg>