<svg xmlns="http://www.w3.org/2000/svg" viewBox="0 0 128 128" enable-background="new 0 0 128 128"><style type="text/css">.st0{fill:#D8DBDB;} .st1{fill:#676767;} .st2{fill:#E4E7E7;} .st3{fill:#DDE0E0;} .st4{fill:#C7CACA;} .st5{fill:#3DB39E;} .st6{fill:#38A592;}</style><path class="st0" d="M23 84.9l20.2 20.1c1.1 1.1 3.1 17 2 18.1l-4 4c-1.1 1.1-2.9 1.1-4 0l-2.1-2.1-16-16c-6.5-6.5-13.1-13-16.2-16.2l-2-2c-1.1-1.1-1.1-2.9 0-4l4-4c1.1-1.1 17 1 18.1 2.1z"/><path class="st1" d="M30.5 12c-3 0-5.5 2.5-5.5 5.5s2.5 5.5 5.5 5.5 5.5-2.5 5.5-5.5-2.5-5.5-5.5-5.5zm17 6c-3 0-5.5 2.5-5.5 5.5s2.5 5.5 5.5 5.5 5.5-2.5 5.5-5.5-2.5-5.5-5.5-5.5zm62.5 61.5c0-3-2.5-5.5-5.5-5.5s-5.5 2.5-5.5 5.5 2.5 5.5 5.5 5.5 5.5-2.4 5.5-5.5zm.5 11.5c-3 0-5.5 2.5-5.5 5.5s2.5 5.5 5.5 5.5 5.5-2.5 5.5-5.5-2.5-5.5-5.5-5.5z"/><path class="st0" d="M74.9 33.4l19.8 19.8c2.2 2.2 24 63.1 21.8 65.3l-7.9 7.9c-2.2 2.2-5.7 2.2-7.9 0l-43.7-55.5-55.4-43.5c-2.2-2.2-2.2-5.7 0-7.9l7.9-7.9c2.2-2.2 63.2 19.6 65.4 21.8z"/><path class="st2" d="M125.7 2.4c5.5 5.5.6 19.2-5.9 25.8l-71.5 71.4c-6.6 6.6-30.2 21.4-35.7 15.9-5.5-5.5 9.3-29.1 15.9-35.7l71.4-71.5c6.6-6.6 20.3-11.4 25.8-5.9z"/><path class="st3" d="M33.4 84.6l71.4-71.4c5.6-5.6 16.3-9.9 22.7-7.8-.4-1.2-1-2.2-1.8-3.1-5.5-5.5-19.2-.6-25.8 6l-71.4 71.4c-6.6 6.6-21.3 30.2-15.9 35.7.8.8 2.1 1.2 3.7 1.2.1-8.6 11.5-26.4 17.1-32z"/><path class="st4" d="M35 53.6l11.3 8.8 28.9-28.9-.3-.3c-.6-.6-6.2-2.9-13.8-5.8l-26.1 26.2z"/><path class="st5" d="M65.8 82.1l34.8 44.3c2 2 5.2 2.1 7.4.4l-38.4-48.5-3.8 3.8zM49.8 58.5l-48.8-38.2c-1.5 2.2-1.3 5.2.6 7.1l44.4 34.8 3.8-3.7z"/><path class="st6" d="M46 62.2l3.8-3.7-11-8.6-3.8 3.7z"/></svg>