<svg xmlns="http://www.w3.org/2000/svg" viewBox="0 0 128 128" enable-background="new 0 0 128 128"><style type="text/css">.st0{fill:#E4E7E7;} .st1{fill:#D8DBDB;} .st2{fill:#324D5B;} .st3{fill:#283E49;} .st4{fill:#3DB39E;} .st5{fill:#CCD0D2;} .st6{fill:#F3F3F3;} .st7{fill:#D8DADC;}</style><path class="st0" d="M6 50h116c3.3 0 6 2.7 6 6v61c0 3.3-2.7 6-6 6h-116c-3.3 0-6-2.7-6-6v-61c0-3.3 2.7-6 6-6z"/><path class="st1" d="M0 117c0 3.3 2.7 6 6 6h116c3.3 0 6-2.7 6-6v-42h-128v42z"/><path class="st2" d="M17 45h94c3.3 0 6 2.7 6 6v8c0 3.3-2.7 6-6 6h-94c-3.3 0-6-2.7-6-6v-8c0-3.3 2.7-6 6-6z"/><path class="st3" d="M21 52h86c1.7 0 3 1.3 3 3s-1.3 3-3 3h-86c-1.7 0-3-1.3-3-3 0-1.6 1.3-3 3-3z"/><path class="st4" d="M15.5 85c2.5 0 4.5 2 4.5 4.5s-2 4.5-4.5 4.5-4.5-2-4.5-4.5 2-4.5 4.5-4.5z"/><path class="st2" d="M30.5 85c2.5 0 4.5 2 4.5 4.5s-2 4.5-4.5 4.5-4.5-2-4.5-4.5 2-4.5 4.5-4.5z"/><path class="st5" d="M104 5h7c3.3 0 6 2.7 6 6v6c0 3.3-2.7 6-6 6h-7c-3.3 0-6-2.7-6-6v-6c0-3.3 2.7-6 6-6z"/><path class="st6" d="M22 13.1v42h84v-50h-78c-3.3 0-6 2.7-6 6v2zm90-8.1h-6v6c0-3.3 2.7-6 6-6z"/><path class="st7" d="M36 23h56c1.1 0 2-.9 2-2s-.9-2-2-2h-56c-1.1 0-2 .9-2 2s.9 2 2 2zm56 5h-56c-1.1 0-2 .9-2 2s.9 2 2 2h56c1.1 0 2-.9 2-2s-.9-2-2-2zm0 9h-56c-1.1 0-2 .9-2 2s.9 2 2 2h56c1.1 0 2-.9 2-2s-.9-2-2-2z"/></svg>