<svg xmlns="http://www.w3.org/2000/svg" viewBox="0 0 128 128" enable-background="new 0 0 128 128"><style type="text/css">.st0{fill:#EFC75E;} .st1{fill:#D07C40;} .st2{fill:#E4E7E7;} .st3{fill-rule:evenodd;clip-rule:evenodd;fill:#D07C40;}</style><path class="st0" d="M125.9 73.6l-47.1-47.6c-.3-.3-3.7-2.8-7.3-2.8-9.8.1-29.6 0-40 0-4.8 0-6.5 1.6-6.5 6.6v39.8c0 3.1 2.5 7 2.8 7.3l47.6 47.1c2.8 2.8 7.3 2.8 10.1 0l40.4-40.4c2.8-2.7 2.8-7.2 0-10zm-79.4-22.4c-3.6 0-6.5-2.9-6.5-6.5s2.9-6.5 6.5-6.5 6.5 2.9 6.5 6.5-2.9 6.5-6.5 6.5z"/><path class="st1" d="M46.5 35.2c-5.2 0-9.5 4.3-9.5 9.5s4.3 9.5 9.5 9.5 9.5-4.3 9.5-9.5-4.2-9.5-9.5-9.5zm0 14c-2.5 0-4.5-2-4.5-4.5s2-4.5 4.5-4.5 4.5 2 4.5 4.5-2 4.5-4.5 4.5z"/><path class="st2" d="M49.4 23.2c-2.4-10.3-11.5-18-22.3-18-12.8 0-23.1 10.5-23.1 23.5s10.3 23.5 23 23.5c8.6 0 16.1-4.8 20-12 1.4.2 2.7 1 3.4 2.2-4.7 8.2-13.4 13.8-23.4 13.8-14.9 0-27-12.3-27-27.5s12.1-27.5 27-27.5c13.1 0 24 9.4 26.5 22h-4.1z"/><path class="st3" d="M81 71.2c4.1 0 7.5-3.4 7.5-7.5s-3.4-7.5-7.5-7.5-7.5 3.4-7.5 7.5 3.4 7.5 7.5 7.5zm0-11c1.9 0 3.5 1.6 3.5 3.5s-1.6 3.5-3.5 3.5-3.5-1.6-3.5-3.5c0-2 1.6-3.5 3.5-3.5zm0 27c-4.1 0-7.5 3.4-7.5 7.5s3.4 7.5 7.5 7.5 7.5-3.4 7.5-7.5c0-4.2-3.4-7.5-7.5-7.5zm0 11c-1.9 0-3.5-1.6-3.5-3.5s1.6-3.5 3.5-3.5 3.5 1.6 3.5 3.5-1.6 3.5-3.5 3.5zm20.4-21h-40.9c-1.1 0-2 .9-2 2s.9 2 2 2h40.9c1.1 0 2-.9 2-2 .1-1.1-.8-2-2-2z"/></svg>