<svg xmlns="http://www.w3.org/2000/svg" viewBox="0 0 128 128" enable-background="new 0 0 128 128"><style type="text/css">.st0{fill:#B7854E;} .st1{fill:#BE8D54;} .st2{fill:#CC9357;} .st3{fill:#D49D5E;} .st4{fill:#B4E7F8;} .st5{fill:#A6D5E5;} .st6{fill:#3C5663;}</style><path class="st0" d="M125.7 114.5l-25-25c.2-.8.2-1.7.2-2.6 0-7.7-6.3-14-14-14s-14 6.3-14 14 6.3 14 14 14c.9 0 1.8-.1 2.6-.2l24.9 25c3.1 3.1 8.1 3.1 11.2 0 3.2-3.1 3.2-8.1.1-11.2zM125.7 114.5l-25-25c.2-.8.2-1.7.2-2.6 0-7.7-6.3-14-14-14s-14 6.3-14 14 6.3 14 14 14c.9 0 1.8-.1 2.6-.2l24.9 25c3.1 3.1 8.1 3.1 11.2 0 3.2-3.1 3.2-8.1.1-11.2z"/><path class="st1" d="M74 81.7c2.9 2.2 6.1 4.8 8 7.5 2.6 3.6 4.6 7.2 6.6 11.1l.3.6.6-.1 2.5 2.5-2.1-3.8c-2.1-3.9-4-7.6-6.7-11.3-2.1-2.9-5.6-5.7-8.6-8-.1.5-.4 1-.6 1.5zM107.5 114.2c-2.3-4.7-3.9-8.9-5.4-12.7-2.9-7.6-5.1-13.1-10.4-15.5-2.8-1.2-4.3-1.4-5.1-.4-1.3 1.5.3 4.6 4.7 11.4l9.5 14.8c.1.1.1.2.2.2.3.2.6.2.9 0 .4-.2.5-.7.2-1.1l-9.5-14.8c-1.5-2.3-5.4-8.5-4.8-9.5 0 0 .5-.3 3.2.9 4.7 2.1 6.7 7.1 9.6 14.6 1.4 3.7 3.1 8 5.4 12.8.8 1.7 1.4 3 1.9 4.2l2.8 2.8c-.5-1.7-1.5-4.1-3.2-7.7zM118.1 126.2c-3.1-5.9-6.3-12-7.7-15.7-.4-1-.7-2.1-1.1-3.2-1.7-5-3.8-11.1-7.7-16.8l-.9-.9v-.3c-2.6-3.4-5.9-6.6-10.2-9.2h-3.5c13.5 6.3 17.8 18.9 20.8 27.7.4 1.2.8 2.2 1.1 3.3 1.4 3.8 4.6 10 7.7 15.9.1.1.1.2.2.4.7.3 1.4.5 2.2.6l-.9-1.8zM84.2 100.7c.6.1 1.3.2 2 .2-3.1-5.9-6.4-11.4-13-15.9-.1.6-.1 1.2-.2 1.9 5.4 3.9 8.4 8.6 11.2 13.8zM99.1 80.1h-1.6c.9.6 1.7 1.3 2.5 2-.2-.7-.5-1.4-.9-2zM122.3 120.1c-1.8-4.8-2.3-8.4-1.4-10.3l-1.2-1.2c-1.1 1.9-1.4 5.4 1.1 12.1.8 2 1.7 4.3 2.7 6.6.5-.2 1-.5 1.4-.9-.9-2-1.7-4.1-2.6-6.3zM127.9 119c-.1-1-.5-2-1-2.9-.8 1.8-.8 4.7 0 8.1.6-1 1-2.2 1.1-3.3-.1-.7-.1-1.3-.1-1.9zM122.6 127.6c-4.4-9.6-8.4-19.9-11.3-27.5l-2.8-2.8.7 1.8c3.8 9.9 7.7 19.9 11.8 28.9.6-.1 1.1-.2 1.6-.4z"/><path class="st2" d="M127 124c1.7-3 1.3-6.9-1.3-9.5l-24.9-25c.2-.8.2-1.7.2-2.6 0-7.7-6.3-14-14-14-3.1 0-5.9 1-8.3 2.7-1.7 2.4-2.7 5.3-2.7 8.4 0 7.7 6.3 14 14 14 .9 0 1.8-.1 2.6-.2l24.9 25c2.6 2.5 6.5 2.9 9.5 1.2z"/><path class="st3" d="M79.5 93.2c1.2 1.3 2.6 2.4 4.1 3.2-1.9-3.1-4.1-6.1-7.1-8.8.4 1.7 1.2 3.2 2.2 4.6l.8 1zM122.3 120.1c-1.8-4.8-2.3-8.4-1.4-10.3l-1.2-1.2c-1.1 1.9-1.4 5.4 1.1 12.1.5 1.3 1.1 2.8 1.7 4.3.6 0 1.2 0 1.7-.1-.6-1.5-1.2-3.2-1.9-4.8zM127.9 119c-.1-1-.5-2-1-2.9-.8 1.7-.8 4.6-.1 7.9 0 0 .1 0 .1-.1.6-1 .9-2.2 1-3.3v-1.6zM76 83.3c2.3 1.8 4.5 3.9 6 5.9 2.1 2.8 3.7 5.6 5.3 8.5.6.1 1.3.2 2 .2-1.8-3.3-3.6-6.5-5.9-9.7-1.8-2.4-4.5-4.8-7.1-6.8-.2.6-.2 1.2-.3 1.9zM111.3 100.1l-2.8-2.8.7 1.8c3.2 8.4 6.6 17 10.1 24.8.7.4 1.4.7 2.1.8-4-8.7-7.5-17.7-10.1-24.6zM99.1 80.1h-1.6c.9.6 1.7 1.3 2.5 2-.2-.7-.5-1.4-.9-2zM110.5 110.4c-.4-1-.7-2.1-1.1-3.2-1.7-5-3.8-11.1-7.7-16.8l-.9-.9v-.3c-2.6-3.4-5.9-6.6-10.2-9.2h-3.6c13.5 6.3 17.8 18.9 20.8 27.7.4 1.2.8 2.2 1.1 3.3.5 1.5 1.4 3.4 2.4 5.5l3.6 3.6c-1.9-3.7-3.6-7.2-4.4-9.7zM91.7 86c-2.8-1.2-4.3-1.4-5.1-.4-1.3 1.5.3 4.6 4.7 11.4l.5.8.8-.1 2.9 2.9-2.9-4.5c-1.5-2.3-5.4-8.5-4.8-9.5 0 0 .5-.3 3.2.9 4.7 2.1 6.7 7.1 9.6 14.6.7 1.9 1.5 3.9 2.4 6l3.1 3.1c-1.6-3.6-2.9-6.8-4-9.7-2.9-7.6-5.1-13.1-10.4-15.5z"/><path class="st4" d="M52 10c23.2 0 42 18.8 42 42s-18.8 42-42 42-42-18.8-42-42 18.8-42 42-42z"/><path class="st5" d="M52 10c-12.6 0-23.9 5.6-31.6 14.4 7.4-6.5 17-10.4 27.6-10.4 23.2 0 42 18.8 42 42 0 10.6-3.9 20.2-10.4 27.6 8.8-7.7 14.4-19 14.4-31.6 0-23.2-18.8-42-42-42z"/><path class="st6" d="M52 0c-28.7 0-52 23.3-52 52s23.3 52 52 52 52-23.3 52-52-23.3-52-52-52zm0 93c-22.6 0-41-18.4-41-41s18.4-41 41-41 41 18.4 41 41-18.4 41-41 41zM52 0c-28.7 0-52 23.3-52 52s23.3 52 52 52 52-23.3 52-52-23.3-52-52-52zm0 93c-22.6 0-41-18.4-41-41s18.4-41 41-41 41 18.4 41 41-18.4 41-41 41z"/></svg>