<svg xmlns="http://www.w3.org/2000/svg" viewBox="0 0 128 128" enable-background="new 0 0 128 128"><style type="text/css">.st0{fill:#415F6F;} .st1{fill:#26A6D1;} .st2{fill:#638090;}</style><path class="st0" d="M123.4 90.3l4.6-2.6c-.3-1.7-.7-3.4-1.3-5.1h-5.3l-2.9-5.1 2.7-4.6c-1.1-1.3-2.3-2.6-3.7-3.7l-4.6 2.6-5.1-3v-5.3c-.1 0-.2-.1-.4-.1-1.5-.5-3.1-1-4.7-1.3l-2.7 4.6h-5.9l-2.6-4.6c-1.7.3-3.4.7-5.1 1.3v5.3l-5.1 2.9-4.6-2.7c-1.3 1.1-2.6 2.3-3.7 3.7l2.6 4.6-3 5.1h-5.3c-.6 1.7-1.1 3.3-1.4 5l4.6 2.7v5.9l-4.6 2.6c.3 1.7.7 3.4 1.3 5.1h5.3l2.9 5.1-2.7 4.6c1.1 1.3 2.3 2.6 3.7 3.7l4.6-2.6 5.1 3v5.3c.1 0 .2.1.4.1 1.5.5 3.1 1 4.7 1.3l2.7-4.6h5.9l2.6 4.6c1.7-.3 3.4-.7 5.1-1.3v-5.3l5.1-2.9 4.6 2.7c1.3-1.1 2.6-2.3 3.7-3.7l-2.6-4.6 3-5.1h5.3c.6-1.7 1.1-3.3 1.4-5l-4.6-2.7v-5.9zm-26.4 20.2c-9.6 0-17.5-7.8-17.5-17.4s7.8-17.5 17.5-17.5c9.6 0 17.5 7.8 17.5 17.4s-7.9 17.5-17.5 17.5z"/><path class="st1" d="M69.8 61c0-1.9-.1-3.9-.4-5.8l-5.7-1.2-2.1-6.2 3.9-4.4c-.9-1.7-2-3.3-3.2-4.8l-5.6 1.9-4.9-4.3 1.2-5.8c-1.7-1-3.4-1.9-5.2-2.6l-3.8 4.4-6.4-1.3-1.9-5.6c-1.9 0-3.9.1-5.8.4l-1.2 5.7-6.2 2.1-4.4-3.9c-1.7.9-3.3 2-4.8 3.2l1.9 5.6-4.3 4.9-5.8-1.2c-1 1.7-1.9 3.4-2.6 5.2l4.4 3.9-1.3 6.4-5.6 1.8c0 1.9.1 3.9.4 5.8l5.8 1.2 2.1 6.2-3.9 4.4c.9 1.7 2 3.3 3.2 4.8l5.6-1.9 4.9 4.3-1.3 5.8c1.7 1 3.4 1.9 5.2 2.6l3.9-4.4 6.4 1.3 1.9 5.6c1.9 0 3.9-.1 5.8-.4l1.2-5.7 6.2-2.1 4.4 3.9c1.7-.9 3.3-2 4.8-3.2l-1.9-5.6 4.3-4.9 5.8 1.2c1-1.7 1.9-3.4 2.6-5.2l-4.4-3.9 1.3-6.4 5.5-1.8zm-34.9 18.5c-10.7 0-19.4-8.7-19.4-19.4s8.7-19.4 19.4-19.4 19.4 8.7 19.4 19.4-8.7 19.4-19.4 19.4z"/><path class="st2" d="M116 31.8l4.2-1.7c-.1-1.5-.3-3-.6-4.5l-4.5-.6-1.9-4.7 2.8-3.6c-.8-1.3-1.7-2.5-2.7-3.6l-4.2 1.7-4-3.1.6-4.5-.3-.2c-1.3-.6-2.6-1.2-3.9-1.6l-2.8 3.6-5-.7-1.7-4.3c-1.5.1-3 .2-4.5.5l-.6 4.5-4.8 2-3.6-2.8c-1.3.8-2.5 1.7-3.6 2.7l1.7 4.2-3.1 4-4.5-.6c-.7 1.3-1.3 2.7-1.8 4.2l3.6 2.8-.7 5-4.2 1.7c.1 1.5.3 3 .6 4.5l4.5.6 1.9 4.7-2.8 3.6c.8 1.3 1.7 2.5 2.7 3.6l4.2-1.7 4 3.1-.6 4.5.3.2c1.3.6 2.6 1.2 3.9 1.6l2.8-3.6 5 .7 1.7 4.2c1.5-.1 3-.2 4.5-.6l.6-4.5 4.7-1.9 3.6 2.8c1.3-.8 2.5-1.7 3.6-2.7l-1.7-4.2 3.1-4 4.5.6c.7-1.3 1.3-2.7 1.8-4.2l-3.6-2.8.8-4.9zm-22.9 14.8c-8.6 0-15.5-6.9-15.5-15.5s6.9-15.5 15.5-15.5 15.5 6.9 15.5 15.5-6.9 15.5-15.5 15.5z"/></svg>