<svg xmlns="http://www.w3.org/2000/svg" viewBox="0 0 128 128" enable-background="new 0 0 128 128"><style type="text/css">.st0{fill:#F3F3F3;} .st1{fill:#E7E7E7;} .st2{fill:#3DB39E;} .st3{fill:#3AAA96;} .st4{fill:#F9F9F9;}</style><path class="st0" d="M116 20c.1 0-50.7-19.5-52-20-1 .4-52.1 20-52 20v36.8c0 25.5 7.3 58.8 52 71.2 44.6-12.4 51.9-46.3 51.9-71.2.1-12.6.1-36.8.1-36.8z"/><path class="st1" d="M12 56.8c0 25.5 7.3 58.8 52 71.2v-128c-1.9.7-52 20-52 20v36.8z"/><path class="st2" d="M64 10zm41.9 16.9c.1 0-40.9-16.5-42-16.9-.9.3-42.1 16.2-42 16.1v30.9c0 21.4 4.2 50.6 42 61 37.7-10.4 42-40.1 42-61 .1-10.6.1-30.1 0-30.1zm-41.9-16.9z"/><path class="st3" d="M64 10zM64 10c-.9.3-42.1 16.2-42 16.1v30.9c0 21.4 4.2 50.6 42 61v-108zM64 10z"/><path class="st4" d="M83.8 54.2c-.3-1-1.2-1.7-2.3-1.9l-10.4-1.5-4.5-9.2c-.5-1-1.5-1.6-2.6-1.6s-2.1.6-2.6 1.6l-4.5 9.2-10.4 1.5c-1.1.2-2 .9-2.3 1.9-.3 1-.1 2.1.7 2.8l7.6 7.5-1.8 10.4c-.2 1 .3 2.1 1.2 2.7.5.3 1.1.5 1.7.5.5 0 1-.1 1.4-.3l9.1-4.8 9.1 4.8c.4.2.9.3 1.4.3.6 0 1.2-.2 1.7-.5.9-.6 1.4-1.7 1.2-2.7l-1.8-10.4 7.6-7.5c.6-.8.9-1.8.5-2.8z"/></svg>