<svg xmlns="http://www.w3.org/2000/svg" viewBox="0 0 128 128" enable-background="new 0 0 128 128"><style type="text/css">.st0{fill:#E2574C;} .st1{fill:#BF392B;} .st2{fill:#D9D9D9;} .st3{fill:#EFEFEF;} .st4{fill:#EC9089;} .st5{fill:#EEE0DF;} .st6{fill:#CB4E44;}</style><path class="st0" d="M119 122.9c0 2.9-2.3 5.2-5.2 5.2h-99.6c-2.8 0-5.2-2.3-5.2-5.2v-72.5c0-.9.7-1.7 1.6-1.9 8.7-2 15.6-20.3 15.6-42.6v-2.1c0-1 .7-1.9 1.7-2l14.3-1.8c.6-.1 1.2.1 1.6.6 4.3 4.2 11.7 8 20.1 8 8.4 0 15.8-3.8 20.1-8 .4-.4 1-.6 1.6-.6l14.4 1.8c1 .1 1.7 1 1.7 2v2.1c0 22.3 6.9 40.6 15.6 42.6.9.2 1.6 1 1.6 1.9l.1 72.5z"/><path class="st1" d="M64 40c14.4 0 26-15.2 26-34 0-1.9-.1-3.7-.3-5.5l-3.9-.5c-.6-.1-1.2.1-1.6.6-4.3 4.2-11.7 8-20.1 8-8.4 0-15.8-3.8-20.1-8-.4-.4-1-.6-1.6-.6l-3.9.5c-.4 1.8-.5 3.6-.5 5.5 0 18.8 11.6 34 26 34z"/><path class="st2" d="M38.1.5c1.7 8.8 12.6 15.5 25.8 15.5 13.2 0 24.1-6.7 25.9-15.5l-4-.5h-.5c-.4.1-.8.2-1.1.6-4.3 4.2-11.7 8-20.1 8-8.4 0-15.8-3.8-20.1-8-.3-.3-.7-.5-1.1-.6h-.5l-4.3.5z"/><path class="st3" d="M87.3 0c.2 2 .4 4 .4 6 0 17.6-10.6 32-23.7 32s-23.7-14.3-23.7-32c0-2.1.2-4.1.4-6h-4.3c-.2 2-.4 4-.4 6 0 19.8 12.6 36 28 36s28-16.2 28-36c0-2-.2-4-.4-6h-4.3z"/><path class="st4" d="M83 52h14c.6 0 1 .4 1 1v6c0 .6-.4 1-1 1h-14c-.6 0-1-.4-1-1v-6c0-.5.4-1 1-1z"/><path class="st5" d="M60.3 98.8h-11.1c-.3 0-.3-.3-.2-.4 2-2 4.6-3.7 7-5.5 3.2-2.5 5.9-5.2 5.9-9.4 0-5.7-4.6-8.3-10.2-8.3-4.7 0-9 2.7-9.3 7.7 0 1.4.7 2 2.1 2.1 1.3.2 2.7-.3 3-1.7.5-2.3 2.2-3.4 4.3-3.4 2.9 0 4.6 1.5 4.6 4.2 0 2.4-2.5 4.6-4.8 6.4-2.9 2.2-5.6 4.2-8.1 6.9-.6.7-1.4 2-1.4 3.7 0 2.4.6 3.1 2.8 3.1h15.5c1.4 0 1.8-1.2 1.8-2.4-.2-1.4-.6-3-1.9-3zm17.5-13c-.3 0-.4-.3-.2-.5l5.4-5.3c.6-.6 1.1-1.2 1.1-2.2.1-1.4-.2-2.8-1.6-2.8h-14.2c-1.4 0-1.7 1.6-1.7 2.8 0 1.2.3 2.4 1.7 2.4h8.3c-.6.5-1.1.9-1.6 1.5l-3.5 3.6c-.7.8-1 1.7-.5 2.8.4 1 1.2 1.5 2.1 1.5 3.5 0 7.5.6 7.5 5.1 0 2.6-1.9 4.7-4.7 4.7-2.4 0-3.8-.8-4.9-2.9-.7-1.2-2-1.4-3.3-.9-1.4.6-2 1.8-1.3 3.2 1.7 3.6 5.3 5.1 9.4 5.1 5.9 0 10.3-3.8 10.4-9.7-.2-4.6-3.5-7.9-8.4-8.4z"/><path class="st6" d="M10.6 48.5c-.9.2-1.6 1-1.6 1.9v72.5c0 2.9 2.3 5.2 5.2 5.2h1.8v-83.1c-1.7 1.8-3.5 3-5.4 3.5zM117.4 48.5c-1.9-.4-3.7-1.7-5.4-3.5v83h1.8c2.8 0 5.2-2.3 5.2-5.2v-72.4c0-1-.7-1.7-1.6-1.9z"/></svg>