<svg xmlns="http://www.w3.org/2000/svg" viewBox="0 0 128 128" enable-background="new 0 0 128 128"><style type="text/css">.st0{fill:#EFEFEF;} .st1{fill:#EFC75E;} .st2{fill:#D3D6D8;} .st3{fill:#D7B354;}</style><path class="st0" d="M83.8 0c-2.7 0-5.3 1.1-7.2 3l-69.6 69.3c-1.9 1.9-3 4.5-3 7.3s1.1 5.3 3 7.3l38.3 38.1c1.9 1.9 4.5 3 7.2 3s5.3-1.1 7.2-3l61.3-61c1.9-1.9 3-4.6 3-7.3v-15.1c0-2.7-1-5.2-2.8-7.1l-30-31.4c-1.9-1.9-4.6-3.1-7.4-3.1z"/><path class="st1" d="M90.4 69.6l-33.3 33.8c-2.1 2.1-5.4 2.1-7.5 0l-20-20.4c-2.1-2.1-2.1-5.5 0-7.6l33.3-33.8c2.1-2.1 5.4-2.1 7.5 0l20 20.4c2.1 2.1 2.1 5.5 0 7.6z"/><path class="st2" d="M86.6 23.6c.6-.7 1.6-.4 2.3.3.9.9 1 1.9 1.6 2.5.6.6 1.6.5 2.2-.1 1.2-1.2-.6-3.7-1.5-4.6-2.1-2.1-5.2-2.5-7.3-.3-3.6 3.6 2.7 7.7.8 9.5-.8.8-1.9.8-2.9-.2s-1.3-2.5-2-3.2c-.6-.6-1.5-.5-2.1.1-1.4 1.5.8 4.3 2 5.5 2.1 2.1 5.3 2.6 7.5.4 4-4.1-2.1-8.3-.6-9.9zm11.4 5.2c-.7-.7-1.6-.7-2.4 0l-8.8 8.8c-.8.8-.7 1.7 0 2.4s1.6.7 2.4 0l8.8-8.8c.8-.8.7-1.7 0-2.4zm13.7 13.7c-.8-.8-1.9-.8-2.7-.4l-7.9 4.3 4.3-8c.4-.7.3-1.9-.4-2.7-.8-.8-2.1-.8-2.7-.3l-10 7.2c-.1.1-.2.2-.3.2-.7.7-.6 1.6 0 2.2.8.8 1.4.7 2.3.1l7.2-5.4-4.6 8.4c-.3.5-.5 1.3.3 2.1s1.6.6 2.1.3l8.3-4.6-5.4 7.2c-.6.8-.7 1.5.1 2.3.6.6 1.5.7 2.2 0 .1-.1.2-.2.2-.3l7.2-10.1c.6-.4.6-1.7-.2-2.5z"/><path class="st3" d="M90.4 62l-5.4-5.5-1.3-1.3-13.4-13.6c-1-1.1-2.4-1.6-3.8-1.6s-2.7.5-3.8 1.6l-3.8 3.8-2.7 2.7-8.1 8.2-.5.5-10.2 10.6-2.7 2.7-5.2 5.2c-2.1 2.1-2.1 5.5 0 7.6l5.3 5.4 1.4 1.4 6.8 6.9 2.7 2.7 3.9 4c1 1.1 2.4 1.6 3.8 1.6s2.7-.5 3.8-1.6l5.1-5.2 2.7-2.7 25.4-25.8c2.1-2.1 2.1-5.5 0-7.6zm-31.9-11.7l5.6 5.7-8.1 8.3-5.6-5.7 8.1-8.3zm-10.9 11l5.6 5.7-8.1 8.3-5.6-5.7 8.1-8.3zm-15.9 16.2l5.1-5.2 5.6 5.7-6.8 6.9-4-4c-.8-1-.8-2.5.1-3.4zm6.7 10.2l31.1-31.7-1.4-1.4-6.9-7.1 3.8-3.9c.4-.4 1-.7 1.6-.7.6 0 1.2.2 1.6.7l13.4 13.7-36.5 37.2-6.7-6.8zm37.8-19.3l5.6 5.7-8.1 8.2-5.6-5.7 8.1-8.2zm-21.2 32.9c-.4.4-1 .7-1.6.7-.6 0-1.2-.2-1.6-.7l-4-4 6.8-6.9 5.6 5.7-5.2 5.2zm2.3-13.7l8.1-8.3 5.6 5.7-8.1 8.2-5.6-5.6zm31-20.1l-3.8 3.8-5.6-5.7 5.4-5.5 3.9 4c1 .9 1 2.5.1 3.4z"/></svg>