<svg xmlns="http://www.w3.org/2000/svg" viewBox="0 0 128 128" enable-background="new 0 0 128 128"><style type="text/css">.st0{fill:#EFEFEF;} .st1{fill:#FFFFFF;} .st2{fill:#DCDCDC;} .st3{fill:#324D5B;} .st4{fill:#EBEBEB;} .st5{fill:#EFC75E;} .st6{fill:#5B717C;} .st7{fill:#BFC3C5;}</style><path class="st0" d="M6 0h116c3.3 0 6 2.7 6 6v116c0 3.3-2.7 6-6 6h-116c-3.3 0-6-2.7-6-6v-116c0-3.3 2.7-6 6-6z"/><path class="st1" d="M12 26h104c2.2 0 4 1.8 4 4v86c0 2.2-1.8 4-4 4h-104c-2.2 0-4-1.8-4-4v-86c0-2.2 1.8-4 4-4z"/><path class="st2" d="M52 9h64c2.2 0 4 1.8 4 4s-1.8 4-4 4h-64c-2.2 0-4-1.8-4-4s1.8-4 4-4z"/><path class="st3" d="M22 36h84c2.2 0 4 1.8 4 4v24c0 2.2-1.8 4-4 4h-84c-2.2 0-4-1.8-4-4v-24c0-2.2 1.8-4 4-4z"/><path class="st4" d="M22 79h33c2.2 0 4 1.8 4 4v22c0 2.2-1.8 4-4 4h-33c-2.2 0-4-1.8-4-4v-22c0-2.2 1.8-4 4-4zM107 79h-37c-1.7 0-3 1.3-3 3s1.3 3 3 3h37c1.7 0 3-1.3 3-3 0-1.6-1.3-3-3-3zm0 12h-37c-1.7 0-3 1.3-3 3s1.3 3 3 3h37c1.7 0 3-1.3 3-3 0-1.6-1.3-3-3-3zm0 12h-37c-1.7 0-3 1.3-3 3s1.3 3 3 3h37c1.7 0 3-1.3 3-3 0-1.6-1.3-3-3-3z"/><path class="st5" d="M66.5 44c-.6 5.1-3.4 7.9-8.5 8.5 5.1.6 7.9 3.4 8.5 8.5.6-5.1 3.4-7.9 8.5-8.5-5.1-.6-7.9-3.4-8.5-8.5zm-34 4c-.4 3.9-2.6 6.1-6.5 6.5 3.9.4 6.1 2.6 6.5 6.5.4-3.9 2.6-6.1 6.5-6.5-3.9-.4-6.1-2.6-6.5-6.5z"/><path class="st6" d="M46 42c-.3 3-2 4.7-5 5 3 .3 4.7 2 5 5 .3-3 2-4.7 5-5-3-.3-4.7-2-5-5zm41.5 10c-.3 2.7-1.8 4.2-4.5 4.5 2.7.3 4.2 1.8 4.5 4.5.3-2.7 1.8-4.2 4.5-4.5-2.7-.3-4.2-1.8-4.5-4.5zm10.5-10c-.3 3-2 4.7-5 5 3 .3 4.7 2 5 5 .3-3 2-4.7 5-5-3-.3-4.7-2-5-5z"/><path class="st7" d="M12 9c-2.2 0-4 1.8-4 4s1.8 4 4 4 4-1.8 4-4-1.8-4-4-4zm12 0c-2.2 0-4 1.8-4 4s1.8 4 4 4 4-1.8 4-4-1.8-4-4-4zm12 0c-2.2 0-4 1.8-4 4s1.8 4 4 4 4-1.8 4-4-1.8-4-4-4z"/></svg>