<svg xmlns="http://www.w3.org/2000/svg" viewBox="0 0 128 128" enable-background="new 0 0 128 128"><style type="text/css">.st0{fill:#3E4E5C;} .st1{fill:#323E4A;} .st2{fill:#5992BD;} .st3{fill:#63A3D2;} .st4{fill:#487190;} .st5{fill:#426885;} .st6{fill:#EBEDEE;} .st7{fill:#D9DADB;}</style><path class="st0" d="M41 89.2l19.6-6.2c2.2 6-3.1 7.9-2.1 15.3.4 2.8 2.5 2 3.7 5.1l.3 7.6 6.3 5c.9 2.4-2.1 5.2-2.1 5.2s-6.6 7.5-11.3 6.7c-6.6-1-14.4-38.7-14.4-38.7z"/><path class="st1" d="M58.5 98.3c-.9-7.1 3.7-9.1 2.3-14.4l-12.2 2.9-7.6 2.4s.2 1.1.7 3l17.2 7.2c-.2-.3-.3-.6-.4-1.1z"/><path class="st0" d="M14.6 55.8l10.6-3.8c.1 4.5 1.9 12.2 5 20.7 3.1 8.4 6.8 15.4 9.8 18.9l-10.6 3.8c-7.2 2.6-16.3-4.2-20.4-15.1-4.1-11-1.6-21.9 5.6-24.5z"/><path class="st2" d="M86.1 52.4c-8.5-22.9-11.3-43.5-7-49.1-.6.6-1.3 1.4-2.1 2.6-7.1 10.5-19 33.1-59.8 47.7v.1c-2.5.9-1.1 10.9 3.1 22.2 4.2 11.4 9.6 19.9 12.1 19 40.8-14.6 64.8-4.5 77.2-1 3.9 1.1 6.1-.3 6.1-.3-6.5 2.5-20.1-15.8-29.6-41.2z"/><path class="st3" d="M77.2 13c1-6.1 1.3-7.3 1.7-9.2l.1-.3c-.5.6-1.2 1.3-1.9 2.4-7.2 10.5-19.1 33.1-59.9 47.7v.1c-1 .4-1.4 2.2-1.2 4.9l3.3-1c37.6-13.3 50.5-33.5 57.9-44.6z"/><path class="st4" d="M82.3.3c-7.9 2.9-6.8 26.2 2.5 52 9.2 25.8 23.1 44.4 31 41.4 7.9-2.9 6.8-26.2-2.5-52s-23.2-44.3-31-41.4z"/><path class="st5" d="M94.7 62.3c-9.2-25.8-10.3-49.1-2.5-52 1.7-.6 3.6-.3 5.7.9-5.8-8.1-11.5-12.4-15.6-10.9-7.9 2.9-6.8 26.2 2.5 52 7.3 20.4 17.5 36.2 25.3 40.5-5.4-7.4-10.9-18.1-15.4-30.5z"/><path class="st6" d="M82.5 41.8c-.4.1-.7.3-1 .4.9 3.3 2 6.6 3.2 10.1 1.8 5 3.8 9.8 5.9 14.2.3-.1.6-.2.8-.3 6.7-2.5 10.2-9.9 7.8-16.7-2.5-6.7-9.9-10.2-16.7-7.7z"/><path class="st7" d="M94.7 62.3c-2.7-7.4-4.6-14.6-5.9-21.2-2-.3-4.2-.1-6.3.7-.4.1-.7.3-1 .4.9 3.3 2 6.6 3.2 10.1 1.8 5 3.8 9.8 5.9 14.2.3-.1.6-.2.8-.3 1.5-.5 2.8-1.3 3.9-2.3-.2-.5-.4-1-.6-1.6z"/></svg>