<svg xmlns="http://www.w3.org/2000/svg" viewBox="0 0 128 128" enable-background="new 0 0 128 128"><style type="text/css">.st0{fill:#E4E7E7;} .st1{fill:#CDCFCF;} .st2{fill:#CCD0D2;} .st3{fill:#2EA9D3;} .st4{fill:#3DB39E;} .st5{fill:#2998BD;} .st6{fill:#37A18E;} .st7{fill:#E2574C;} .st8{fill:#CB4E44;}</style><path class="st0" d="M12 16h104v100h-104v-100z"/><path class="st1" d="M12 42.9h104v5.1h-104z"/><path class="st0" d="M128 33l-10.2-10h-107.7l-10.1 10v6.7c0 1.8 1.5 3.3 3.4 3.3h121.3c1.9 0 3.4-1.5 3.4-3.3l-.1-6.7z"/><path class="st1" d="M127.7 32.7l-9.9-9.7h-107.7l-9.8 9.7z"/><path class="st2" d="M18.8 9h90.3l6.9 7h-104l6.8-7z"/><path class="st3" d="M19 110h23v-67h-23v67zm30 6h30v-73h-30v73zm37-73v67h23v-67h-23zM19 110h23v-67h-23v67zm30 6h30v-73h-30v73zm37-73v67h23v-67h-23z"/><path class="st4" d="M58.3 59h11.5c1.8 0 3.3 1.5 3.3 3.4v5.1c0 1.9-1.5 3.4-3.3 3.4h-11.5c-1.8 0-3.3-1.5-3.3-3.4v-5.1c0-1.9 1.5-3.4 3.3-3.4z"/><path class="st0" d="M69.7 62c.1 0 .3.2.3.4v5.1c0 .3-.2.4-.3.4h-11.4c-.1 0-.3-.2-.3-.4v-5.1c0-.3.2-.4.3-.4h11.4m0-3h-11.4c-1.8 0-3.3 1.5-3.3 3.4v5.1c0 1.9 1.5 3.4 3.3 3.4h11.5c1.8 0 3.3-1.5 3.3-3.4v-5.1c-.1-1.9-1.6-3.4-3.4-3.4z"/><path class="st5" d="M42 85h-9v-11h-14v36h23zM49 85h12v31h-12zM86 75h23v35h-23zM71 92h8v24h-8z"/><path class="st4" d="M100.5 104.2c1.6 0 3.1.5 4.4 1.4.9-5.5 5.7-9.6 11.5-9.6 6.4 0 11.7 5.1 11.7 11.5s-5.2 11.5-11.7 11.5h-15.8c-4.1 0-7.5-3.3-7.5-7.4-.1-4.1 3.3-7.4 7.4-7.4zM27.5 104.2c-1.6 0-3.1.5-4.4 1.4-.9-5.5-5.7-9.6-11.5-9.6-6.4 0-11.6 5.2-11.6 11.5 0 6.4 5.2 11.5 11.7 11.5h15.8c4.1 0 7.5-3.3 7.5-7.4 0-4.1-3.4-7.4-7.5-7.4z"/><path class="st6" d="M27.5 116h-15.8c-5.9 0-10.8-4.4-11.5-10-.2.5-.2 1-.2 1.5 0 6.4 5.2 11.5 11.7 11.5h15.8c4.1 0 7.5-3.3 7.5-7.4 0-.5-.1-1-.2-1.5-.7 3.4-3.7 5.9-7.3 5.9zM116.3 116h-15.8c-3.6 0-6.6-2.5-7.3-5.9-.1.5-.2 1-.2 1.5 0 4.1 3.4 7.4 7.5 7.4h15.8c6.4 0 11.7-5.1 11.7-11.5 0-.5 0-1-.1-1.5-.8 5.6-5.6 10-11.6 10z"/><path class="st5" d="M86 43h23v4.9h-23zM19 43h23v4.9h-23zM49 43h30v4.9h-30z"/><path class="st7" d="M117.8 23h-5.8l9 10v10h3.6c1.9 0 3.4-1.5 3.4-3.3v-6.7l-.1-.1-10.1-9.9zM33.9 32.7l4-9.7h-5.8l-5.1 9.7v10.3h6.9zM13 43h6.9v-10l7.1-10h-6.7l-7.3 10zM61 32.9l1-9.9h-7l-.9 9.8v10.2h6.9zM47.9 42.9v-10.2l2.1-9.7h-6.5l-2.5 9.7v10.2zM101 43v-10.3l-5.1-9.6h-5.8l3.9 9.6v10.3zM115 43v-10l-7.3-10h-6.7l7.1 10v10zM3.4 43h3.6v-10l9-10h-5.9l-10.1 10v6.6c0 1.9 1.5 3.4 3.4 3.4zM73.9 43v-10.1l-.9-9.9h-7l1 9.9v10.1zM80.1 32.7v10.2h6.9v-10.2l-2.5-9.7h-6.5z"/><path class="st8" d="M95.9 23.1h-5.8l3.9 9.6h6.9zM73 23h-7l1 9.7h6.9zM117.8 23h-5.8l8.7 9.7h7zM107.7 23h-6.7l6.8 9.7h6.9zM84.4 23h-6.4l2.1 9.7h6.9zM41 32.7h6.9l2.1-9.7h-6.5zM27 23h-6.7l-7.1 9.7h6.9zM54.1 32.7h6.9l1-9.7h-7zM.3 32.7h7l8.7-9.7h-5.9zM27 32.7h6.9l4-9.7h-5.8z"/></svg>