<svg xmlns="http://www.w3.org/2000/svg" viewBox="0 0 128 128" enable-background="new 0 0 128 128"><style type="text/css">.st0{fill:#2B414D;} .st1{fill:#475F6C;} .st2{fill:#455E6B;} .st3{fill:#4B6370;}</style><path class="st0" d="M13 84h-3c-.1 11.5-2 16-2 16l11 2s-6-7.5-6-18zm0-25h-3v23h3v-23zM13 84h-3c-.1 11.5-2 16-2 16l11 2s-6-7.5-6-18zm0-25h-3v23h3v-23z"/><path class="st1" d="M11.5 79c3 0 5.5 2.5 5.5 5.5s-2.5 5.5-5.5 5.5-5.5-2.4-5.5-5.5c0-3 2.5-5.5 5.5-5.5z"/><path class="st0" d="M1.4 54.8l59.3-28.1c1.8-.9 4.8-.9 6.6 0l59.3 28.1c1.8.9 1.8 2.5 0 3.4l-59.3 28.1c-1.8.9-4.8.9-6.6 0l-59.3-28.1c-1.8-.9-1.8-2.5 0-3.4zM64 69.8c18.8 0 34 6.8 34 15.1s-15.2 15.1-34 15.1-34-6.8-34-15.1 15.2-15.1 34-15.1z"/><path class="st2" d="M95 61.9c0-7.1-13.8-12.9-30.9-12.9-17 0-30.8 5.7-30.9 12.8 0 0-3.3 23.2-3.2 23.2 0-6.8 14.3-15.1 34.1-15.1 18.4 0 32.1 8.6 33.9 15l-3-23z"/><path class="st3" d="M66 49v21c17.4.6 30.2 8.8 32 15l-3-23.1c0-6.9-12.8-12.4-29-12.9z"/></svg>