<svg xmlns="http://www.w3.org/2000/svg" viewBox="0 0 128 128" enable-background="new 0 0 128 128"><style type="text/css">.st0{fill:#EFC75E;} .st1{fill:#D7B354;} .st2{fill:#F5DD9E;} .st3{fill:#F2F1EF;} .st4{fill:#E2574C;} .st5{fill:#E5685E;} .st6{fill:#CB4E44;}</style><path class="st0" d="M28 0h72c6.6 0 12 5.4 12 12v104c0 6.6-5.4 12-12 12h-72c-6.6 0-12-5.4-12-12v-104c0-6.6 5.4-12 12-12z"/><path class="st1" d="M84 33h-40c-.6 0-1 .4-1 1v2c0 .6.4 1 1 1h40c.6 0 1-.4 1-1v-2c0-.5-.4-1-1-1zm0 14h-40c-.6 0-1 .4-1 1v2c0 .6.4 1 1 1h40c.6 0 1-.4 1-1v-2c0-.5-.4-1-1-1zm0 15h-40c-.6 0-1 .4-1 1v2c0 .6.4 1 1 1h40c.6 0 1-.4 1-1v-2c0-.5-.4-1-1-1z"/><path class="st2" d="M32 108c-2.2 0-4 1.8-4 4s1.8 4 4 4 4-1.8 4-4-1.8-4-4-4zm64 0c-2.2 0-4 1.8-4 4s1.8 4 4 4 4-1.8 4-4-1.8-4-4-4zm-64-96c-2.2 0-4 1.8-4 4s1.8 4 4 4 4-1.8 4-4-1.8-4-4-4zm64 6c2.2 0 4-1.8 4-4s-1.8-4-4-4-4 1.8-4 4 1.8 4 4 4z"/><path class="st3" d="M52 72.4v-47.1c0-6.8 5.2-12.3 12-12.3s12 5.5 12 12.3v47.1c0 2.6 1.3 5.1 3.2 7 3.6 3.7 5.8 8.8 5.8 14.4.1 11.2-9 20.8-20.2 21.2-12 .5-21.8-9.1-21.8-21 0-5.7 2.2-10.8 5.9-14.6 1.7-1.9 3.1-4.4 3.1-7z"/><path class="st4" d="M81 94c0 9.4-7.6 17-17 17s-17-7.6-17-17c0-6.5 3.6-12.1 9-15v-44h16v44c5.4 2.9 9 8.5 9 15z"/><path class="st5" d="M72 79v-44h-8v76c9.4 0 17-7.6 17-17 0-6.5-3.6-12.1-9-15z"/><path class="st6" d="M64 32c4.4 0 8 1.3 8 3s-3.6 3-8 3-8-1.3-8-3c0-1.6 3.6-3 8-3z"/></svg>