<svg xmlns="http://www.w3.org/2000/svg" viewBox="0 0 128 128" enable-background="new 0 0 128 128"><style type="text/css">.st0{fill:#2394BC;} .st1{fill:#1F85A9;} .st2{fill:#26A6D1;} .st3{fill:#EFC75E;} .st4{fill:#E3BD59;} .st5{fill:#EFEFEF;} .st6{fill:#2295BC;}</style><path class="st0" d="M64 0c-35.4 0-64 28.7-64 64s28.6 64 64 64c35.3 0 64-28.7 64-64s-28.7-64-64-64z"/><path class="st1" d="M66.8 63.2c-1-1-2.7-1-3.7 0s-1 2.7 0 3.7l44.2 44.2c1.3-1.2 2.5-2.4 3.7-3.7l-44.2-44.2z"/><path class="st2" d="M64 39c-13.8 0-25 11.2-25 25s11.2 25 25 25 25-11.2 25-25-11.2-25-25-25zm0 38c-7.2 0-13-5.8-13-13s5.8-13 13-13 13 5.8 13 13-5.8 13-13 13zm0-64c-28.2 0-51 22.8-51 51s22.8 51 51 51 51-22.8 51-51-22.8-51-51-51zm0 89c-21 0-38-17-38-38s17-38 38-38 38 17 38 38-17 38-38 38z"/><path class="st3" d="M115.4 12.6c5.2 5.2 16.5 2.3 11.3 7.5l-14 14c-5.1 5.2-13.6 5.2-18.8 0-5.2-5.2-5.2-13.6 0-18.8l14-14c5.1-5.2 2.3 6.1 7.5 11.3z"/><path class="st4" d="M115.4 12.7c-1.5-1.5-2.3-3.4-2.8-5.4l-21.9 21.8c.6 1.8 1.7 3.6 3.1 5 1.5 1.5 3.2 2.5 5.1 3.1l21.8-21.8c-1.9-.5-3.9-1.3-5.3-2.7z"/><path class="st5" d="M120.2 7.8c1 1 1 2.7 0 3.7l-53.8 53.7c-1 1-2.7 1-3.7 0s-1-2.7 0-3.7l53.8-53.8c1.1-1 2.7-1 3.7.1z"/><path class="st6" d="M74.8 71.2c-1 1.5-2.2 2.7-3.7 3.7l8.6 8.6c1.4-1.1 2.6-2.3 3.7-3.7l-8.6-8.6zM92.6 89c-1.1 1.3-2.4 2.5-3.7 3.7l9.2 9.2c1.3-1.2 2.5-2.4 3.7-3.7l-9.2-9.2z"/></svg>