<svg xmlns="http://www.w3.org/2000/svg" viewBox="0 0 128 128" enable-background="new 0 0 128 128"><style type="text/css">.st0{fill:#EFC75E;} .st1{fill:#D7B354;} .st2{fill:#BF9F4B;} .st3{fill:#CDCFCF;} .st4{fill:#AC8F43;} .st5{fill:#CCD0D2;} .st6{fill:#DCDEDF;} .st7{fill:#E4E7E7;} .st8{fill:#B7BBBD;} .st9{fill:#C6C7C8;}</style><path class="st0" d="M103.2 109.2c0 10.4-17.5 18.8-39.2 18.8-21.6 0-39.2-8.4-39.2-18.8l-7.8-84.2h94l-7.8 84.2z"/><path class="st1" d="M17 25l1.2 12.9c7.5 8.9 25.2 15.1 45.8 15.1 20.6 0 38.3-6.2 45.8-15.1l1.2-12.9h-94zM64 66.4c-1.7 0-3.2 1.4-3.2 3.2v42.7c0 1.7 1.4 3.2 3.2 3.2 1.7 0 3.2-1.4 3.2-3.2v-42.8c0-1.7-1.5-3.1-3.2-3.1zm15.8-1.6c-1.7 0-3.2 1.4-3.2 3.2l-1.6 42.6c0 1.7 1.4 3.2 3.2 3.2 1.7 0 3.2-1.4 3.2-3.2l1.5-42.6c0-1.8-1.4-3.2-3.1-3.2zm14.2-3.2c-1.7 0-3.2 1.4-3.2 3.2l-3.2 41.9c0 1.7 1.4 3.2 3.2 3.2 1.7 0 3.2-1.4 3.2-3.2l3.2-41.9c0-1.7-1.5-3.2-3.2-3.2zm-45.8 3.2c-1.7 0-3.2 1.4-3.2 3.2l1.6 42.7c0 1.7 1.4 3.2 3.2 3.2s3.2-1.4 3.2-3.2l-1.6-42.7c0-1.8-1.5-3.2-3.2-3.2zm-14.2-3.2c-1.7 0-3.2 1.4-3.2 3.2l3.2 41.9c0 1.7 1.4 3.2 3.2 3.2s3.2-1.4 3.2-3.2l-3.2-41.9c-.1-1.7-1.5-3.2-3.2-3.2z"/><path class="st0" d="M108.8 18.3c3.9 3.9 3.1 8.4 3.1 8.6 0 13.3-21.5 24.1-48 24.1s-47.9-10.8-47.9-24.1c0-.1-.7-4.8 3-8.6 2.8-3.1 87.1-3.1 89.8 0z"/><path class="st2" d="M64 0c26 0 47 10.3 47 23s-21 23-47 23-47-10.3-47-23 21-23 47-23z"/><path class="st3" d="M37 34.8l-4.6 5.2c8.4 3.6 19.4 5.9 31.6 5.9s23.2-2.2 31.6-5.9l-4.6-5.2c-7.7 2.9-17 4.7-27 4.7-10.1 0-19.4-1.8-27-4.7z"/><path class="st4" d="M64 8c21.1 0 39.2 6.3 47 15.2v-.2c0-12.7-21-23-47-23s-47 10.3-47 23v.2c7.8-8.9 25.9-15.2 47-15.2z"/><path class="st5" d="M64 46c12.2 0 23.3-2.3 31.6-6l-14.2-16.3-19.5 22.3h2.1z"/><path class="st6" d="M40.3 42.7l.3.3c6.9 1.9 14.9 3 23.4 3 6.8 0 13.3-.7 19.2-2l1.3-1.3-22.1-25.3-22.1 25.3z"/><path class="st7" d="M64 46h2.1l-19.5-22.3-14.2 16.3c8.3 3.8 19.4 6 31.6 6z"/><path class="st8" d="M62 45.8h1.9c12.1 0 23.2-2.2 31.6-5.9l-4.5-5.1c-6.7 2.6-14.7 4.3-23.4 4.7l-5.6 6.3z"/><path class="st9" d="M80.3 37.9c-5.1 1.1-10.6 1.7-16.3 1.7-6.7 0-13.1-.8-18.9-2.3l-4.7 5.4.1.1c6.9 1.9 15 3 23.6 3 6.9 0 13.5-.7 19.4-2l1.2-1.2-4.4-4.7z"/><path class="st3" d="M65.9 45.8l-5.6-6.4c-8.7-.4-16.7-2.1-23.4-4.7l-4.5 5.3c8.4 3.6 19.4 5.9 31.6 5.9.6-.1 1.3-.1 1.9-.1z"/></svg>