<svg xmlns="http://www.w3.org/2000/svg" viewBox="0 0 128 128" enable-background="new 0 0 128 128"><style type="text/css">.st0{fill:#B8D9F2;} .st1{fill:#55ACEE;} .st2{fill:#FFFFFF;}</style><path class="st0" d="M58 10.5h-50c-4.4 0-8 3.6-8 8v34c0 4.4 3.6 8 8 8h1c1.1 0 5 .5 6 1.6 3 2.4.8 1 5 4.4-.1-.1 5 4.6 5 0v-6h33c4.4 0 8-3.6 8-8v-34c0-4.4-3.6-8-8-8z"/><path class="st1" d="M43 29.5h77c4.4 0 8 3.6 8 8v60c0 4.4-3.6 8-8 8h-41c-1.1 0-5 .5-6 1.6-3 2.4-6.8 5-11 8.4.1-.1-5 4.6-5 0v-10h-14c-4.4 0-8-3.6-8-8v-60c0-4.4 3.6-8 8-8z"/><path class="st2" d="M104 54.4c-1.6.7-3.4 1.1-5.2 1.3 1.9-1 3.3-2.7 4-4.6-1.7 1-3.7 1.6-5.7 2-1.6-1.6-4-2.6-6.6-2.6-5 0-9 3.7-9 8.3 0 .7.1 1.3.2 1.9-7.5-.3-14.2-3.7-18.6-8.7-.8 1.2-1.2 2.7-1.2 4.2 0 2.9 1.6 5.4 4 6.9-1.5 0-2.9-.4-4.1-1v.1c0 4 3.1 7.4 7.2 8.2-.8.2-1.6.3-2.4.3-.6 0-1.1-.1-1.7-.2 1.1 3.3 4.5 5.7 8.4 5.8-3.1 2.2-7 3.6-11.2 3.6-.7 0-1.4 0-2.2-.1 4 2.4 8.7 3.7 13.8 3.7 16.6 0 25.7-12.7 25.7-23.7v-1.1c1.9-1.2 3.4-2.6 4.6-4.3z"/></svg>