<svg xmlns="http://www.w3.org/2000/svg" viewBox="0 0 128 128" enable-background="new 0 0 128 128"><style type="text/css">.st0{fill:#324D5B;} .st1{fill:#E2574C;} .st2{fill:#CB4E44;} .st3{fill:#2D4552;} .st4{fill:#E4E7E7;} .st5{fill:#D8DBDB;} .st6{fill:#3DB39E;} .st7{fill:#3AAA96;} .st8{fill:#FFFFFF;} .st9{fill:#F2F2F2;} .st10{fill:#2F4956;}</style><path class="st0" d="M64 98c-6.6 0-12 5.4-12 12s5.4 12 12 12 12-5.4 12-12-5.4-12-12-12zm32-8c-6.6 0-12 5.4-12 12s5.4 12 12 12 12-5.4 12-12-5.4-12-12-12zm-64 0c-6.6 0-12 5.4-12 12s5.4 12 12 12 12-5.4 12-12-5.4-12-12-12z"/><path class="st1" d="M27.2 59.4c20.3-12.5 53.2-12.5 73.5 0 20.3 12.5 20.3 32.8 0 45.2-20.3 12.5-53.2 12.5-73.5 0-20.3-12.5-20.3-32.7 0-45.2z"/><path class="st2" d="M32.2 101.6c-19.6-12.1-20.3-31.4-2-43.9-1 .5-2 1.1-3 1.7-20.3 12.5-20.3 32.8 0 45.2 20.3 12.5 53.2 12.5 73.5 0 .7-.4 1.4-.9 2-1.3-20.4 10.8-51.2 10.2-70.5-1.7z"/><path class="st0" d="M18.7 37.1c25-14.8 65.5-14.8 90.5 0s25 38.9 0 53.7c-25 14.8-65.5 14.8-90.5 0s-25-38.8 0-53.7z"/><path class="st3" d="M113.3 86.9c-25 14.8-65.5 14.8-90.5 0-20.2-12-24.1-29.9-11.8-44.2-16.9 14.8-14.3 35.1 7.7 48.2 25 14.8 65.5 14.8 90.5 0 4.8-2.9 8.7-6.1 11.7-9.5-2.2 1.9-4.7 3.7-7.6 5.5z"/><path class="st4" d="M64 6c22.1 0 40 17.9 40 40s-17.9 32-40 32-40-9.9-40-32 17.9-40 40-40z"/><path class="st5" d="M24 46c0 22 17.8 31.9 39.7 32h.3v-72c-22.1 0-40 17.9-40 40z"/><path class="st6" d="M64 78c9 0 17.3-1.6 24-5.1v-26.9c0-13.3-10.7-24-24-24s-24 10.7-24 24v26.9c6.7 3.5 15 5.1 24 5.1z"/><path class="st7" d="M40 46v26.9c6.6 3.4 14.9 5.1 23.8 5.1h.2v-56c-13.3 0-24 10.8-24 24z"/><path class="st8" d="M64 38c6.6 0 12 5.4 12 12s-5.4 12-12 12-12-5.4-12-12 5.4-12 12-12z"/><path class="st9" d="M64 38c-6.6 0-12 5.4-12 12s5.4 12 12 12v-24z"/><path class="st0" d="M64 44c3.3 0 6 2.7 6 6s-2.7 6-6 6-6-2.7-6-6 2.7-6 6-6z"/><path class="st10" d="M64 44c-3.3 0-6 2.7-6 6s2.7 6 6 6v-12z"/></svg>