<svg xmlns="http://www.w3.org/2000/svg" viewBox="0 0 128 128" enable-background="new 0 0 128 128"><style type="text/css">.st0{fill:#4681A0;} .st1{fill:#DADFE1;} .st2{fill:#C4C8CA;} .st3{fill:#E2574C;} .st4{fill:#C74C43;} .st5{fill:#F2F1EF;}</style><path class="st0" d="M37.2 104.3l-5.3-4.9-11.1 11c-3.8 3.8-8.8 4.8-12.6.9-2.6-2.6-1.4-7.6 2.3-11.5 1.3-1.4 1.6-3.5.4-5-1.4-1.8-3.9-1.9-5.5-.3 0 0-2.7 3.3-3.6 5.4-2.6 5.9-2.9 11.5 1.7 16.2 3.3 3.3 7.6 4.7 12 4.3 3.7-.3 7-2.1 9.7-4.6l12-11.5zM112.4 23.2c-.8-.8-2-.9-2.9-.2l-10.6 8.3c-.1 0-.1.1 0 .2l5.2 5.3c.1.1.1 0 .2 0l8.2-10.7c.7-.9.6-2.1-.1-2.9z"/><path class="st1" d="M37.2 104.3l-5.3-4.9 43.3-43.6 5.1 5.1-43.1 43.4z"/><path class="st2" d="M66.1 65.1l5.1 5.1 7.1-7.3-5-5.1z"/><path class="st3" d="M104.9 93.1c7.3 7.3 10.6 16.1 7.8 20.4.7-.6 1.5-1.3 2.2-2 20.4-20.4 16.6-57.3-8.5-82.4-25.1-25.1-62-28.9-82.4-8.5-.7.7-1.3 1.4-2 2.2 4.3-2.8 13.1.5 20.4 7.8 7.1 7.1 10.3 15.5 8.1 20-.4.9-.4 1.9.3 2.6l.3.3c.7.7 1.7.8 2.6.3 4.5-2.3 12.9 1 20 8.1s10.3 15.5 8.1 20c-.4.9-.4 1.9.3 2.6l.3.3c.7.7 1.7.8 2.6.3 4.4-2.4 12.9.9 19.9 8z"/><path class="st4" d="M110.7 100.5c3 5.1 3.9 10.1 2 13 .7-.6 1.5-1.3 2.2-2 20-20 16.7-56-7.2-81h-.6c16.1 22.4 17.1 51.4 3.6 70z"/><path class="st5" d="M103.4 26.3c-15.3-.5-34.7 8.3-51 24.6l-1.8 1.9.3.4.3.3c.7.7 1.7.8 2.6.3 4.5-2.3 12.9 1 20 8.1s10.3 15.5 8.1 20c-.4.9-.4 1.9.3 2.6l.3.3c.1.1.2.2.4.3l1.9-1.8c16.3-16.3 25.1-35.8 24.5-51-.9-1-1.8-2-2.8-3-1.1-1.1-2.1-2-3.1-3z"/></svg>