<svg xmlns="http://www.w3.org/2000/svg" viewBox="0 0 128 128" enable-background="new 0 0 128 128"><style type="text/css">.st0{fill:#CC6D41;} .st1{fill:#324D5B;} .st2{fill:#2B424D;} .st3{fill:#5B717C;} .st4{fill:#E9AD9A;} .st5{fill:#EFC75E;} .st6{fill:#D49F8F;} .st7{fill:#828282;} .st8{fill:#E37948;}</style><path class="st0" d="M35.5 11c4.7 0 8.5 3.8 8.5 8.4v10.1c0 4.7-3.8 8.4-8.5 8.4s-8.5-3.7-8.5-8.3v-10.2c0-4.6 3.8-8.4 8.5-8.4z"/><path class="st1" d="M117 118v4c0 3.3-2.7 6-6 6h-94c-3.3 0-6-2.7-6-6v-27.5c0-12.4 10-22.4 22.3-22.4h61.5c12.3 0 22.3 10 22.3 22.4l-.1 23.5z"/><path class="st2" d="M16.3 128h2.6v-34.3c.1-10.7 7.9-19.7 18.2-21.6h-3.8c-12.3 0-22.3 10-22.3 22.4v27.5c0 3.1 2.3 5.6 5.3 6z"/><path class="st3" d="M50.9 48h26.1c11.1 0 20 9 20 20s-8.9 20-19.9 20h-26.2c-11 0-19.9-9-19.9-20s8.9-20 19.9-20z"/><path class="st4" d="M53.3 6h21.5c10.6 0 19.2 8.6 19.2 19.3v38.5c0 10.6-8.6 19.2-19.3 19.2h-21.4c-10.7 0-19.3-8.6-19.3-19.2v-38.5c0-10.7 8.6-19.3 19.3-19.3z"/><path class="st5" d="M91.4 113.2c-.3 0-.6-.1-.8-.3l-3.8-2.9-3.8 3c-.2.2-.5.3-.8.3-.3 0-.5-.1-.8-.3-.5-.4-.7-1-.5-1.6l1.5-4.7-3.8-2.2c-.5-.4-.7-1-.5-1.6.2-.6.7-1 1.3-1h4.7l1.4-4.7c.2-.6.7-1 1.3-1 .6 0 1.1.4 1.3 1l1.4 4.7h4.7c.6 0 1.1.4 1.3 1 .2.6 0 1.2-.5 1.6l-3.8 2.2 1.5 4.7c.2.6 0 1.2-.5 1.6-.3.1-.5.2-.8.2z"/><path class="st6" d="M60.8 63.6c-1.5 0-3.2-.7-3.2-3.2 0-2.1 6.4-7.5 6.4-9.7v-24.7h-30v37.8c0 10.6 8.6 19.2 19.3 19.2h10.7v-19.4h-3.2z"/><path class="st7" d="M83.5 35h-9c-1.4 0-2.5 1.1-2.5 2.5s1.1 2.5 2.5 2.5h9c1.4 0 2.5-1.1 2.5-2.5s-1.1-2.5-2.5-2.5zm-30 0h-9c-1.4 0-2.5 1.1-2.5 2.5s1.1 2.5 2.5 2.5h9c1.4 0 2.5-1.1 2.5-2.5s-1.1-2.5-2.5-2.5z"/><path class="st1" d="M49 45c-2.2 0-4 1.8-4 4s1.8 4 4 4 4-1.8 4-4-1.8-4-4-4zm30 0c-2.2 0-4 1.8-4 4s1.8 4 4 4 4-1.8 4-4-1.8-4-4-4z"/><path class="st8" d="M35 6.6c22.2-8.2 66.2-6.5 66.2-6.5 3.4 0 4.8 2.1 4.8 4.8 0 14-9.1 21-12.8 21h-59.8c-4.2 0-6.4-3.6-6.4-8.1 0-3.2 1.9-8.8 8-11.2z"/><path class="st0" d="M96.2 23h-59.8c-4.2 0-6.4-3.6-6.4-8.1 0-1.9.6-4.5 2.2-6.8-3.9 2.7-5.2 7-5.2 9.8 0 4.5 2.2 8.1 6.4 8.1h59.8c1.8 0 5-1.7 7.7-5.1-1.8 1.4-3.5 2.1-4.7 2.1z"/></svg>