<svg xmlns="http://www.w3.org/2000/svg" viewBox="0 0 128 128" enable-background="new 0 0 128 128"><style type="text/css">.st0{fill:#324D5B;} .st1{fill:#516873;}</style><path class="st0" d="M102 0h-25c-2.2 0-4 1.8-4 4v7.7c0 7.3-6 13.3-13.4 13.3h-21.6v1.3c0 1.5-1.3 2.7-2.9 2.7h-3.3c-1.6 0-2.9-1.2-2.9-2.7v-1.3h-3c-2.2 0-4 1.8-4 4v95c0 2.2 1.8 4 4 4h76c2.2 0 4-1.8 4-4v-120c.1-2.2-1.7-4-3.9-4zm-64 117.3c0 1.5-1.3 2.7-2.9 2.7h-3.3c-1.6 0-2.9-1.2-2.9-2.7v-2.7c0-1.5 1.3-2.7 2.9-2.7h3.3c1.6 0 2.9 1.2 2.9 2.7v2.7zm0-13c0 1.5-1.3 2.7-2.9 2.7h-3.3c-1.6 0-2.9-1.2-2.9-2.7v-2.7c0-1.5 1.3-2.7 2.9-2.7h3.3c1.6 0 2.9 1.2 2.9 2.7v2.7zm0-13c0 1.5-1.3 2.7-2.9 2.7h-3.3c-1.6 0-2.9-1.2-2.9-2.7v-2.7c0-1.5 1.3-2.7 2.9-2.7h3.3c1.6 0 2.9 1.2 2.9 2.7v2.7zm0-13c0 1.5-1.3 2.7-2.9 2.7h-3.3c-1.6 0-2.9-1.2-2.9-2.7v-2.7c0-1.5 1.3-2.7 2.9-2.7h3.3c1.6 0 2.9 1.2 2.9 2.7v2.7zm0-13c0 1.5-1.3 2.7-2.9 2.7h-3.3c-1.6 0-2.9-1.2-2.9-2.7v-2.7c0-1.5 1.3-2.7 2.9-2.7h3.3c1.6 0 2.9 1.2 2.9 2.7v2.7zm0-13c0 1.5-1.3 2.7-2.9 2.7h-3.3c-1.6 0-2.9-1.2-2.9-2.7v-2.7c0-1.5 1.3-2.7 2.9-2.7h3.3c1.6 0 2.9 1.2 2.9 2.7v2.7zm0-13c0 1.5-1.3 2.7-2.9 2.7h-3.3c-1.6 0-2.9-1.2-2.9-2.7v-2.7c0-1.5 1.3-2.7 2.9-2.7h3.3c1.6 0 2.9 1.2 2.9 2.7v2.7zm61 78c0 1.5-1.3 2.7-2.9 2.7h-3.3c-1.6 0-2.9-1.2-2.9-2.7v-2.7c0-1.5 1.3-2.7 2.9-2.7h3.3c1.6 0 2.9 1.2 2.9 2.7v2.7zm0-13c0 1.5-1.3 2.7-2.9 2.7h-3.3c-1.6 0-2.9-1.2-2.9-2.7v-2.7c0-1.5 1.3-2.7 2.9-2.7h3.3c1.6 0 2.9 1.2 2.9 2.7v2.7zm0-13c0 1.5-1.3 2.7-2.9 2.7h-3.3c-1.6 0-2.9-1.2-2.9-2.7v-2.7c0-1.5 1.3-2.7 2.9-2.7h3.3c1.6 0 2.9 1.2 2.9 2.7v2.7zm0-13c0 1.5-1.3 2.7-2.9 2.7h-3.3c-1.6 0-2.9-1.2-2.9-2.7v-2.7c0-1.5 1.3-2.7 2.9-2.7h3.3c1.6 0 2.9 1.2 2.9 2.7v2.7zm0-13c0 1.5-1.3 2.7-2.9 2.7h-3.3c-1.6 0-2.9-1.2-2.9-2.7v-2.7c0-1.5 1.3-2.7 2.9-2.7h3.3c1.6 0 2.9 1.2 2.9 2.7v2.7zm0-13c0 1.5-1.3 2.7-2.9 2.7h-3.3c-1.6 0-2.9-1.2-2.9-2.7v-2.7c0-1.5 1.3-2.7 2.9-2.7h3.3c1.6 0 2.9 1.2 2.9 2.7v2.7zm0-13c0 1.5-1.3 2.7-2.9 2.7h-3.3c-1.6 0-2.9-1.2-2.9-2.7v-2.7c0-1.5 1.3-2.7 2.9-2.7h3.3c1.6 0 2.9 1.2 2.9 2.7v2.7zm0-13c0 1.5-1.3 2.7-2.9 2.7h-3.3c-1.6 0-2.9-1.2-2.9-2.7v-2.7c0-1.5 1.3-2.7 2.9-2.7h3.3c1.6 0 2.9 1.2 2.9 2.7v2.7zm0-13c0 1.5-1.3 2.7-2.9 2.7h-3.3c-1.6 0-2.9-1.2-2.9-2.7v-2.7c.1-1.4 1.4-2.6 3-2.6h3.3c1.6 0 2.9 1.2 2.9 2.7v2.6zM102 0h-25c-2.2 0-4 1.8-4 4v7.7c0 7.3-6 13.3-13.4 13.3h-21.6v1.3c0 1.5-1.3 2.7-2.9 2.7h-3.3c-1.6 0-2.9-1.2-2.9-2.7v-1.3h-3c-2.2 0-4 1.8-4 4v95c0 2.2 1.8 4 4 4h76c2.2 0 4-1.8 4-4v-120c.1-2.2-1.7-4-3.9-4zm-64 117.3c0 1.5-1.3 2.7-2.9 2.7h-3.3c-1.6 0-2.9-1.2-2.9-2.7v-2.7c0-1.5 1.3-2.7 2.9-2.7h3.3c1.6 0 2.9 1.2 2.9 2.7v2.7zm0-13c0 1.5-1.3 2.7-2.9 2.7h-3.3c-1.6 0-2.9-1.2-2.9-2.7v-2.7c0-1.5 1.3-2.7 2.9-2.7h3.3c1.6 0 2.9 1.2 2.9 2.7v2.7zm0-13c0 1.5-1.3 2.7-2.9 2.7h-3.3c-1.6 0-2.9-1.2-2.9-2.7v-2.7c0-1.5 1.3-2.7 2.9-2.7h3.3c1.6 0 2.9 1.2 2.9 2.7v2.7zm0-13c0 1.5-1.3 2.7-2.9 2.7h-3.3c-1.6 0-2.9-1.2-2.9-2.7v-2.7c0-1.5 1.3-2.7 2.9-2.7h3.3c1.6 0 2.9 1.2 2.9 2.7v2.7zm0-13c0 1.5-1.3 2.7-2.9 2.7h-3.3c-1.6 0-2.9-1.2-2.9-2.7v-2.7c0-1.5 1.3-2.7 2.9-2.7h3.3c1.6 0 2.9 1.2 2.9 2.7v2.7zm0-13c0 1.5-1.3 2.7-2.9 2.7h-3.3c-1.6 0-2.9-1.2-2.9-2.7v-2.7c0-1.5 1.3-2.7 2.9-2.7h3.3c1.6 0 2.9 1.2 2.9 2.7v2.7zm0-13c0 1.5-1.3 2.7-2.9 2.7h-3.3c-1.6 0-2.9-1.2-2.9-2.7v-2.7c0-1.5 1.3-2.7 2.9-2.7h3.3c1.6 0 2.9 1.2 2.9 2.7v2.7zm61 78c0 1.5-1.3 2.7-2.9 2.7h-3.3c-1.6 0-2.9-1.2-2.9-2.7v-2.7c0-1.5 1.3-2.7 2.9-2.7h3.3c1.6 0 2.9 1.2 2.9 2.7v2.7zm0-13c0 1.5-1.3 2.7-2.9 2.7h-3.3c-1.6 0-2.9-1.2-2.9-2.7v-2.7c0-1.5 1.3-2.7 2.9-2.7h3.3c1.6 0 2.9 1.2 2.9 2.7v2.7zm0-13c0 1.5-1.3 2.7-2.9 2.7h-3.3c-1.6 0-2.9-1.2-2.9-2.7v-2.7c0-1.5 1.3-2.7 2.9-2.7h3.3c1.6 0 2.9 1.2 2.9 2.7v2.7zm0-13c0 1.5-1.3 2.7-2.9 2.7h-3.3c-1.6 0-2.9-1.2-2.9-2.7v-2.7c0-1.5 1.3-2.7 2.9-2.7h3.3c1.6 0 2.9 1.2 2.9 2.7v2.7zm0-13c0 1.5-1.3 2.7-2.9 2.7h-3.3c-1.6 0-2.9-1.2-2.9-2.7v-2.7c0-1.5 1.3-2.7 2.9-2.7h3.3c1.6 0 2.9 1.2 2.9 2.7v2.7zm0-13c0 1.5-1.3 2.7-2.9 2.7h-3.3c-1.6 0-2.9-1.2-2.9-2.7v-2.7c0-1.5 1.3-2.7 2.9-2.7h3.3c1.6 0 2.9 1.2 2.9 2.7v2.7zm0-13c0 1.5-1.3 2.7-2.9 2.7h-3.3c-1.6 0-2.9-1.2-2.9-2.7v-2.7c0-1.5 1.3-2.7 2.9-2.7h3.3c1.6 0 2.9 1.2 2.9 2.7v2.7zm0-13c0 1.5-1.3 2.7-2.9 2.7h-3.3c-1.6 0-2.9-1.2-2.9-2.7v-2.7c0-1.5 1.3-2.7 2.9-2.7h3.3c1.6 0 2.9 1.2 2.9 2.7v2.7zm0-13c0 1.5-1.3 2.7-2.9 2.7h-3.3c-1.6 0-2.9-1.2-2.9-2.7v-2.7c.1-1.4 1.4-2.6 3-2.6h3.3c1.6 0 2.9 1.2 2.9 2.7v2.6z"/><path class="st1" d="M81 34h-34c-1.1 0-2 .9-2 2v21c0 1.1.9 2 2 2h34c1.1 0 2-.9 2-2v-21c0-1.1-.9-2-2-2zm0 30h-34c-1.1 0-2 .9-2 2v21c0 1.1.9 2 2 2h34c1.1 0 2-.9 2-2v-21c0-1.1-.9-2-2-2zm0 30h-34c-1.1 0-2 .9-2 2v21c0 1.1.9 2 2 2h34c1.1 0 2-.9 2-2v-21c0-1.1-.9-2-2-2zM81 34h-34c-1.1 0-2 .9-2 2v21c0 1.1.9 2 2 2h34c1.1 0 2-.9 2-2v-21c0-1.1-.9-2-2-2zm0 30h-34c-1.1 0-2 .9-2 2v21c0 1.1.9 2 2 2h34c1.1 0 2-.9 2-2v-21c0-1.1-.9-2-2-2zm0 30h-34c-1.1 0-2 .9-2 2v21c0 1.1.9 2 2 2h34c1.1 0 2-.9 2-2v-21c0-1.1-.9-2-2-2z"/></svg>