<svg xmlns="http://www.w3.org/2000/svg" viewBox="0 0 128 128" enable-background="new 0 0 128 128"><style type="text/css">.st0{fill:#A86A3F;} .st1{fill:#3DB39E;} .st2{fill:#78CABB;} .st3{fill:#5ABEAC;} .st4{fill:#8CD2C5;} .st5{fill:#C47E4D;} .st6{fill:#EFC75E;} .st7{fill:#D7B354;} .st8{fill:#B27245;} .st9{fill:#CA8B5F;}</style><path class="st0" d="M10 21.1h100c5.5 0 10 4.5 10 10v12c0 5.5-4.5 10-10 10h-100c-5.5 0-10-4.5-10-10v-12c0-5.5 4.5-10 10-10z"/><path class="st1" d="M31.9 31.8l62.6-16.6c2.1-.6 4.3.7 4.9 2.8l10.4 38.4c.6 2.1-.7 4.3-2.8 4.9l-81.5 21.7c-2.1.6-4.3-.7-4.9-2.8l-7.6-28.2 18.9-20.2z"/><path class="st2" d="M98.9 55.2l-13.5 3.6c-1.1.3-2.2-.3-2.4-1.4-.3-1.1.3-2.2 1.4-2.4l11.6-3.1-6.2-23.2-11.6 3.1c-1.1.3-2.2-.3-2.4-1.4-.3-1.1.3-2.2 1.4-2.4l13.5-3.6c1.1-.3 2.2.3 2.4 1.4l7.2 27c.3 1.1-.3 2.2-1.4 2.4zm-56 15.1l-13.5 3.6c-1.1.3-2.2-.3-2.4-1.4l-7.2-27c-.3-1.1.3-2.2 1.4-2.4l13.5-3.6c1.1-.3 2.2.3 2.4 1.4.3 1.1-.3 2.2-1.4 2.4l-11.6 3.1 6.2 23.2 11.6-3.1c1.1-.3 2.2.3 2.4 1.4.3 1-.3 2.1-1.4 2.4z"/><path class="st3" d="M.8 45.8c17.8-10.2 65.8-38.3 65.8-38.3 1.9-1.1 4.4-.5 5.5 1.4l20 34.4c1.1 1.9.4 4.3-1.5 5.4l-73.2 42c-1.9 1.1-4.4.5-5.5-1.4 0 0-5.6-11.4-11.2-21 0-22.5.1-15.1.1-22.5z"/><path class="st4" d="M81.9 42.2l-14-24.2c-.6-1-1.8-1.3-2.7-.7l-12.1 7c-1 .6-1.3 1.8-.7 2.7.6 1 1.8 1.3 2.7.7l10.4-6 12 20.8-10.4 6c-1 .6-1.3 1.8-.7 2.7.6 1 1.8 1.3 2.7.7l12.1-7c.9-.5 1.3-1.7.7-2.7zm-53 28.3l-10.4 6-12-20.8 10.4-6c1-.6 1.3-1.8.7-2.7-.6-1-1.8-1.3-2.7-.7l-12.1 7c-1 .6-1.3 1.8-.7 2.7l14 24.2c.6 1 1.8 1.3 2.7.7l12.1-7c1-.6 1.3-1.8.7-2.7-.5-.9-1.7-1.3-2.7-.7zm5.1-35.3c-7.7 4.4-10.3 14.2-5.9 21.9 4.5 7.7 14.2 10.3 21.9 5.9 7.7-4.4 10.3-14.2 5.9-21.9-4.5-7.6-14.2-10.3-21.9-5.9zM81.9 42.2l-14-24.2c-.6-1-1.8-1.3-2.7-.7l-12.1 7c-1 .6-1.3 1.8-.7 2.7.6 1 1.8 1.3 2.7.7l10.4-6 12 20.8-10.4 6c-1 .6-1.3 1.8-.7 2.7.6 1 1.8 1.3 2.7.7l12.1-7c.9-.5 1.3-1.7.7-2.7zm-53 28.3l-10.4 6-12-20.8 10.4-6c1-.6 1.3-1.8.7-2.7-.6-1-1.8-1.3-2.7-.7l-12.1 7c-1 .6-1.3 1.8-.7 2.7l14 24.2c.6 1 1.8 1.3 2.7.7l12.1-7c1-.6 1.3-1.8.7-2.7-.5-.9-1.7-1.3-2.7-.7zm5.1-35.3c-7.7 4.4-10.3 14.2-5.9 21.9 4.5 7.7 14.2 10.3 21.9 5.9 7.7-4.4 10.3-14.2 5.9-21.9-4.5-7.6-14.2-10.3-21.9-5.9z"/><path class="st5" d="M114 121.1h-104c-5.5 0-10-4.5-10-10v-72h114c5.5 0 10 4.5 10 10v62c0 5.5-4.5 10-10 10zm-106-82h-8v-8c0 4.4 3.6 8 8 8z"/><path class="st0" d="M124 96.1h-16c-7.7 0-14-6.3-14-14s6.3-14 14-14h16c2.2 0 4 1.8 4 4v20c0 2.2-1.8 4-4 4z"/><path class="st6" d="M108 74.1c4.4 0 8 3.6 8 8s-3.6 8-8 8-8-3.6-8-8 3.6-8 8-8z"/><path class="st7" d="M110 88.1c-4.4 0-8-3.6-8-8 0-1.7.5-3.3 1.4-4.6-2.1 1.4-3.4 3.8-3.4 6.6 0 4.4 3.6 8 8 8 2.7 0 5.1-1.4 6.6-3.4-1.3.9-2.9 1.4-4.6 1.4z"/><path class="st8" d="M114 117.1h-104c-5.5 0-10-4.5-10-10v4c0 5.5 4.5 10 10 10h104c5.5 0 10-4.5 10-10v-4c0 5.5-4.5 10-10 10z"/><path class="st9" d="M114 39.1h-106c-4.4 0-8-3.6-8-8v4c0 4.4 3.6 8 8 8h106c5.5 0 10 4.5 10 10v-4c0-5.5-4.5-10-10-10z"/></svg>