<svg xmlns="http://www.w3.org/2000/svg" viewBox="0 0 128 128" enable-background="new 0 0 128 128"><style type="text/css">.st0{fill:#2EA9D3;} .st1{fill:#FFFFFF;} .st2{fill:#EFC75E;} .st3{fill:#47BFE8;}</style><path class="st0" d="M64 0c35.3 0 64 28.7 64 64s-28.7 64-64 64-64-28.6-64-64 28.7-64 64-64z"/><path class="st1" d="M35.1 63.3h-6.8c3.2-3.8 8.9-8.8 8.9-13.8 0-4.6-3.7-7.5-8.3-7.5-4.6 0-8.7 3.6-8.7 8.1 0 1.4.9 2.6 2.7 2.6 3.6 0 1.5-5.8 5.8-5.8 1.5 0 2.7 1.3 2.7 2.8 0 1.3-.6 2.4-1.3 3.3-2.8 3.9-6.2 7.2-9.3 10.7-.4.4-.9 1.1-.9 1.8 0 1.7 1.3 2.4 2.9 2.4h12.4c1.4 0 2.7-.7 2.7-2.4.1-1.5-1.2-2.2-2.8-2.2zm20-9.5c1.8-1.1 2.8-3.1 2.8-5 0-4.2-3.7-6.8-7.9-6.8-4.3 0-7.9 2.6-7.9 6.8 0 2.2 1.1 3.8 2.8 5-2.3 1.2-3.9 3.3-3.9 6.2 0 4.7 4 8 9 8 4.9 0 9-3.1 9-8 0-2.8-1.4-5-3.9-6.2zm-5.1-7.1c1.7 0 2.7 1.2 2.7 2.7 0 1.6-1 2.7-2.7 2.7-1.7 0-2.6-1.1-2.6-2.7s.9-2.7 2.6-2.7zm0 16.4c-2.2 0-3.3-1.7-3.3-3.5 0-2 1.2-3.5 3.3-3.5 2 0 3.3 1.3 3.3 3.5 0 1.8-1.2 3.5-3.3 3.5zm18-21.1c-3.3 0-6 2.7-6 6s2.7 6 6 6 6-2.7 6-6-2.7-6-6-6zm0 8c-1.1 0-2-.9-2-2s.9-2 2-2 2 .9 2 2-.9 2-2 2z"/><path class="st2" d="M123.6 40.6c-7-17.8-21.7-31.7-40-37.6-1.7 3.7-2.6 7.7-2.6 12 0 16 13 29 29 29 4.9 0 9.5-1.2 13.6-3.4z"/><path class="st3" d="M128 65h-.2c-8.2 0-15.4 3.9-19.9 10-.4.5 4.9 5.8 4.5 11.3-3.7-6.6-10.8-11.1-18.9-11.1-12 0-21.7 9.8-21.7 21.8 0 3.1.7 6.1 1.8 8.8-5.5 1.8-9.5 7.1-9.5 13.2 0 3.4 1.2 6.5 3.2 8.9 33.4-1.6 60.1-29.1 60.7-62.9z"/><path class="st1" d="M67.9 127.9c-.9-9.4-7.6-17.2-16.5-19.4-.6-.2-1.3-.3-2-.4-.6-.1-1.3-.2-2-.2h-1.5s-5.9.1-10.2 3.7c0 0 2.3-4.8 7.9-6.7l-.8-.9c-1.1-1.2-2.3-2.3-3.7-3.3-1.1-.8-2.3-1.6-3.5-2.3-1.8-1-3.7-1.7-5.6-2.3l-1.5-.4-1.5-.3c-1.5-.3-3.1-.4-4.7-.4-1.9 0-3.7.2-5.4.5-.9.2-1.9.5-2.9.8-1.4.5-2.8 1.1-4.2 1.7 11.4 18.1 31.4 30 54.2 30 1.3 0 2.6 0 3.9-.1z"/></svg>