<svg xmlns="http://www.w3.org/2000/svg" viewBox="0 0 128 128" enable-background="new 0 0 128 128"><style type="text/css">.st0{fill:#E4E7E7;} .st1{fill:#B6B9B9;} .st2{fill:#E2574C;} .st3{fill:#324D5B;} .st4{fill:#233640;} .st5{fill:#2B414D;} .st6{fill:#5A6870;} .st7{fill:#D2D5D5;}</style><path class="st0" d="M95.6 118.2c0-10-14.1-18.2-31.6-18.2-17.4 0-31.6 8.1-31.6 18.2 0 5.4 14.1 9.8 31.6 9.8 17.4 0 31.6-4.4 31.6-9.8z"/><path class="st1" d="M64 100c-8.8 0-16.7 2.1-22.4 5.4 3.6 3.8 12.3 6.4 22.4 6.4s18.8-2.7 22.4-6.4c-5.7-3.4-13.6-5.4-22.4-5.4z"/><path class="st0" d="M64 0c28.7 0 52 23.3 52 52s-23.3 52-52 52-52-23.3-52-52 23.3-52 52-52z"/><path class="st2" d="M64 6c2.2 0 4 1.8 4 4s-1.8 4-4 4-4-1.8-4-4 1.8-4 4-4z"/><path class="st3" d="M64 20c-17.7 0-32 14.3-32 32s14.3 32 32 32 32-14.3 32-32-14.3-32-32-32z"/><path class="st4" d="M64 28c-13.3 0-24 10.8-24 24 0 13.3 10.7 24 24 24s24-10.7 24-24-10.7-24-24-24z"/><path class="st5" d="M64 34c-9.9 0-18 8.1-18 18s8.1 18 18 18 18-8.1 18-18-8.1-18-18-18z"/><path class="st4" d="M64 43c-5 0-9 4-9 9s4 9 9 9 9-4 9-9-4-9-9-9z"/><path class="st6" d="M61.5 47c1.4 0 2.5 1.1 2.5 2.5s-1.1 2.5-2.5 2.5-2.5-1.1-2.5-2.5 1.1-2.5 2.5-2.5z"/><path class="st7" d="M64 94c-27 0-49.2-20.6-51.8-47-.2 1.6-.2 3.3-.2 5 0 28.7 23.3 52 52 52s52-23.3 52-52c0-1.7-.1-3.4-.2-5-2.6 26.4-24.8 47-51.8 47z"/></svg>