<svg xmlns="http://www.w3.org/2000/svg" viewBox="0 0 128 128" enable-background="new 0 0 128 128"><style type="text/css">.st0{fill:#415661;} .st1{fill:#2B414D;} .st2{fill:#E2574C;} .st3{fill:#E66B62;} .st4{fill:#FFFFFF;} .st5{fill:#324D5B;}</style><path class="st0" d="M20 0h88c11 0 20 9 20 20v88c0 11-9 20-20 20h-88c-11 0-20-9-20-20v-88c0-11 9-20 20-20z"/><path class="st1" d="M20 8h88c6.6 0 12 5.4 12 12v62c0 6.6-5.4 12-12 12h-88c-6.6 0-12-5.4-12-12v-62c0-6.6 5.4-12 12-12z"/><path class="st2" d="M22 14h84c4.4 0 8 3.6 8 8v58c0 4.4-3.6 8-8 8h-84c-4.4 0-8-3.6-8-8v-58c0-4.4 3.6-8 8-8z"/><path class="st3" d="M114 80v-58c0-4.4-3.6-8-8-8h-42v74h42c4.4 0 8-3.6 8-8z"/><path class="st4" d="M81.5 48.8l-24.6-15.3c-1.9-1.2-3.8-.2-3.8 2.2v30.6c0 2.4 1.9 3.4 3.8 2.2l24.6-15c2.4-1.5 1.5-3.8 0-4.7z"/><path class="st1" d="M48 103c-1.1 0-2 .9-2 2v10c0 1.1.9 2 2 2s2-.9 2-2v-10c0-1.1-.9-2-2-2zm8 0c-1.1 0-2 .9-2 2v10c0 1.1.9 2 2 2s2-.9 2-2v-10c0-1.1-.9-2-2-2zm8 0c-1.1 0-2 .9-2 2v10c0 1.1.9 2 2 2s2-.9 2-2v-10c0-1.1-.9-2-2-2zm8 0c-1.1 0-2 .9-2 2v10c0 1.1.9 2 2 2s2-.9 2-2v-10c0-1.1-.9-2-2-2zm8 0c-1.1 0-2 .9-2 2v10c0 1.1.9 2 2 2s2-.9 2-2v-10c0-1.1-.9-2-2-2z"/><path class="st4" d="M99 103c-3.9 0-7 3.1-7 7s3.1 7 7 7 7-3.1 7-7-3.1-7-7-7zm-70 0c-3.9 0-7 3.1-7 7s3.1 7 7 7 7-3.1 7-7-3.1-7-7-7z"/><path class="st5" d="M29 107c-1.7 0-3 1.3-3 3s1.3 3 3 3 3-1.3 3-3c0-1.6-1.3-3-3-3zm70 0c-1.7 0-3 1.3-3 3s1.3 3 3 3 3-1.3 3-3c0-1.6-1.3-3-3-3z"/></svg>